<svg height="401" viewBox="0 0 424 401" width="424" xmlns="http://www.w3.org/2000/svg"><g fill="none" fill-rule="evenodd" transform="translate(3 3)"><path d="m347.700005 256.450727c-20.842431 12.043363-45.122365 18.949273-71.042013 18.949273-77.094119 0-139.68208-61.094938-140.457992-136.75073 20.84243-12.043361 45.122362-18.94927 71.042008-18.94927 77.094119 0 139.68208 61.094938 140.457992 136.75073z" fill="#0e77d2" fill-opacity=".3" transform="matrix(-1 0 0 1 483.900004 0)"/><g stroke="#0e77d2" stroke-width="4.5"><ellipse cx="139.770874" cy="257.696152" rx="139.770874" ry="137.573221"/><ellipse cx="278.729126" cy="256.88451" rx="139.770874" ry="137.573221"/><ellipse cx="208.843689" cy="137.573221" rx="139.770874" ry="137.573221"/></g><g fill="#000"><path d="m297.258986 278.136494c-.486 0-.81-.054-1.26-.378-.378-.27-.936-.828-1.188-1.188-.324-.45-.378-.774-.378-1.26v-5.328c0-.486.054-.81.378-1.26.27-.378.828-.936 1.188-1.188.45-.324.774-.378 1.26-.378h2.376c1.116 0 1.962.918 2.376 1.512.288.414.468.774.612 1.17l-2.052.54c-.252-.45-.54-.864-.918-1.116h-2.358c-.018 0-.162.108-.36.306s-.306.342-.306.36v5.436c0 .018.108.162.306.36s.342.306.36.306h2.358c.378-.252.666-.666.918-1.116l2.052.54c-.144.396-.324.774-.612 1.17-.432.594-1.26 1.512-2.376 1.512zm10.029255 0c-.486 0-.81-.054-1.26-.378-.378-.27-.936-.828-1.188-1.188-.324-.45-.378-.774-.378-1.26v-5.328c0-.486.054-.81.378-1.26.27-.378.828-.936 1.188-1.188.45-.324.774-.378 1.26-.378h2.7c.486 0 .81.054 1.26.378.378.27.936.828 1.188 1.188.324.45.378.774.378 1.26v5.328c0 .486-.054.81-.378 1.26-.27.378-.828.936-1.188 1.188-.45.324-.774.378-1.26.378zm-.63-2.772c0 .018.108.162.306.36s.342.306.36.306h2.628c.018 0 .162-.108.36-.306s.306-.342.306-.36v-5.436c0-.018-.108-.162-.306-.36s-.342-.306-.36-.306h-2.628c-.018 0-.162.108-.36.306s-.306.342-.306.36zm10.641256.558h4.788v2.124h-6.984v-10.8h2.196zm8.571255 0h4.788v2.124h-6.984v-10.8h2.196zm13.089255 2.124-.684-2.07h-3.852l-.684 2.07h-2.34l3.744-10.8h2.43l3.726 10.8zm-3.834-4.176h2.448l-1.224-3.726zm15.591256-3.798v1.08c0 .702-.486 1.17-.81 1.512.342.36.81.792.81 1.512v1.044c0 .486-.054.81-.378 1.26-.27.378-.828.936-1.188 1.188-.45.324-.774.378-1.26.378h-5.076v-10.8h5.076c.486 0 .81.054 1.26.378.378.27.936.828 1.188 1.188.324.45.378.774.378 1.26zm-2.196.882v-.936c0-.018-.108-.162-.306-.36s-.342-.306-.36-.306h-2.844v2.268h2.844c.018 0 .162-.108.36-.306s.306-.342.306-.36zm0 4.32v-.972c0-.018-.108-.162-.306-.36s-.342-.306-.36-.306h-2.844v2.304h2.844c.018 0 .162-.108.36-.306s.306-.342.306-.36zm7.131255 2.862c-.486 0-.81-.054-1.26-.378-.378-.27-.936-.828-1.188-1.188-.324-.45-.378-.774-.378-1.26v-5.328c0-.486.054-.81.378-1.26.27-.378.828-.936 1.188-1.188.45-.324.774-.378 1.26-.378h2.7c.486 0 .81.054 1.26.378.378.27.936.828 1.188 1.188.324.45.378.774.378 1.26v5.328c0 .486-.054.81-.378 1.26-.27.378-.828.936-1.188 1.188-.45.324-.774.378-1.26.378zm-.63-2.772c0 .018.108.162.306.36s.342.306.36.306h2.628c.018 0 .162-.108.36-.306s.306-.342.306-.36v-5.436c0-.018-.108-.162-.306-.36s-.342-.306-.36-.306h-2.628c-.018 0-.162.108-.36.306s-.306.342-.306.36zm14.385255 2.682-1.926-4.122h-1.818v4.122h-2.196v-10.8h5.094c.486 0 .81.054 1.26.378.378.27.936.828 1.188 1.188.324.45.378.774.378 1.26v1.026c0 .486-.054.81-.378 1.26-.27.378-.828.936-1.188 1.188-.054.036-.09.072-.144.09l2.16 4.41zm-3.744-8.694v2.466h2.862c.018 0 .162-.108.36-.306s.306-.342.306-.36v-1.134c0-.018-.108-.162-.306-.36s-.342-.306-.36-.306zm14.709255 8.694-.684-2.07h-3.852l-.684 2.07h-2.34l3.744-10.8h2.43l3.726 10.8zm-3.834-4.176h2.448l-1.224-3.726zm13.917256-6.624v2.106h-2.898v8.694h-2.214v-8.694h-2.916v-2.106zm8.913255 2.106h-4.896v2.214h4.734v2.106h-4.734v2.268h4.896v2.106h-7.092v-10.8h7.092z"/><path d="m186.780839 80.8671218c-.486 0-.81-.054-1.26-.378-.378-.27-.936-.828-1.188-1.188-.324-.45-.378-.774-.378-1.26v-5.328c0-.486.054-.81.378-1.26.27-.378.828-.936 1.188-1.188.45-.324.774-.378 1.26-.378h2.376c1.116 0 1.962.918 2.376 1.512.288.414.468.774.612 1.17l-2.052.54c-.252-.45-.54-.864-.918-1.116h-2.358c-.018 0-.162.108-.36.306s-.306.342-.306.36v5.436c0 .018.108.162.306.36s.342.306.36.306h2.358c.378-.252.666-.666.918-1.116l2.052.54c-.144.396-.324.774-.612 1.17-.432.594-1.26 1.512-2.376 1.512zm13.221-.09-1.926-4.122h-1.818v4.122h-2.196v-10.8h5.094c.486 0 .81.054 1.26.378.378.27.936.828 1.188 1.188.324.45.378.774.378 1.26v1.026c0 .486-.054.81-.378 1.26-.27.378-.828.936-1.188 1.188-.054.036-.09.072-.144.09l2.16 4.41zm-3.744-8.694v2.466h2.862c.018 0 .162-.108.36-.306s.306-.342.306-.36v-1.134c0-.018-.108-.162-.306-.36s-.342-.306-.36-.306zm14.715 8.694-.684-2.07h-3.852l-.684 2.07h-2.34l3.744-10.8h2.43l3.726 10.8zm-3.834-4.176h2.448l-1.224-3.726zm14.787-4.518h-4.896v2.214h4.644v2.106h-4.644v4.374h-2.196v-10.8h7.092zm9.639-2.106v2.106h-2.898v8.694h-2.214v-8.694h-2.916v-2.106z"/><path d="m41.3574545 275.922494h4.788v2.124h-6.984v-10.8h2.196zm13.4672553-6.57h-4.896v2.214h4.734v2.106h-4.734v2.268h4.896v2.106h-7.092v-10.8h7.092zm9.0752553 8.694-.684-2.07h-3.852l-.684 2.07h-2.34l3.744-10.8h2.43l3.726 10.8zm-3.834-4.176h2.448l-1.224-3.726zm13.6292553 4.176-1.926-4.122h-1.818v4.122h-2.196v-10.8h5.094c.486 0 .81.054 1.26.378.378.27.936.828 1.188 1.188.324.45.378.774.378 1.26v1.026c0 .486-.054.81-.378 1.26-.27.378-.828.936-1.188 1.188-.054.036-.09.072-.144.09l2.16 4.41zm-3.744-8.694v2.466h2.862c.018 0 .162-.108.36-.306s.306-.342.306-.36v-1.134c0-.018-.108-.162-.306-.36s-.342-.306-.36-.306zm13.7012553-2.106h2.196v10.8h-2.214l-3.492-6.426v6.426h-2.196v-10.8h2.25l3.456 6.498z"/><path d="m192.676086 312.13c-.710671 0-1.328164-.112666-1.8525-.338s-.922999-.522165-1.196-.8905c-.273002-.368335-.418167-.764831-.4355-1.1895 0-.069334.025999-.13.078-.182.052-.052.116999-.078.195-.078h.637c.156 0 .264333.086666.325.26.078.364002.301165.678165.6695.9425s.89483.3965 1.5795.3965c.73667 0 1.286998-.129999 1.651-.39s.546-.619664.546-1.079c0-.294668-.088833-.537332-.2665-.728-.177668-.190668-.441999-.357499-.793-.5005-.351002-.143001-.877497-.318499-1.5795-.5265-.667337-.190668-1.198165-.394332-1.5925-.611-.394336-.216668-.691166-.483165-.8905-.7995-.199335-.316335-.299-.717164-.299-1.2025 0-.468002.125665-.886165.377-1.2545.251334-.368335.615331-.658666 1.092-.871s1.039996-.3185 1.69-.3185c.676003 0 1.254497.119165 1.7355.3575.481002.238335.847165.537332 1.0985.897.251334.359668.385666.721498.403 1.0855 0 .078-.026.143-.078.195-.052001.052-.117.078-.195.078h-.65c-.069334 0-.134333-.021666-.195-.065s-.104-.108333-.13-.195c-.052001-.372669-.259998-.680332-.624-.923s-.818998-.364-1.365-.364c-.589337 0-1.057332.114832-1.404.3445-.346669.229668-.52.569831-.52 1.0205 0 .303335.080166.550332.2405.741s.407331.359666.741.507c.333668.147334.821163.316332 1.4625.507.73667.208001 1.315164.415999 1.7355.624.420335.208001.734499.465832.9425.7735s.312.704164.312 1.1895c0 .814671-.309831 1.449498-.9295 1.9045-.61967.455002-1.458162.6825-2.5155.6825zm7.85075-.13c-1.34334 0-2.015-.758326-2.015-2.275v-3.484h-1.027c-.086667 0-.156-.026-.208-.078-.052001-.052-.078-.121333-.078-.208v-.416c0-.086667.025999-.158166.078-.2145.052-.056334.121333-.0845.208-.0845h1.027v-2.171c0-.086667.025999-.158166.078-.2145.052-.056334.121333-.0845.208-.0845h.572c.086667 0 .158166.028166.2145.0845.056333.056334.0845.127833.0845.2145v2.171h1.612c.086667 0 .158166.028166.2145.0845.056333.056334.0845.127833.0845.2145v.416c0 .086667-.028167.156-.0845.208-.056334.052-.127833.078-.2145.078h-1.612v3.393c0 .442002.071499.775666.2145 1.001.143.225334.387831.338.7345.338h.793c.086667 0 .155999.028166.208.0845.052.056334.078.127833.078.2145v.429c0 .086667-.026.158166-.078.2145-.052001.056334-.121333.0845-.208.0845zm3.00175 0c-.086667 0-.158167-.028166-.2145-.0845-.056334-.056334-.0845-.127833-.0845-.2145v-6.149c0-.086667.028166-.160333.0845-.221.056333-.060667.127833-.091.2145-.091h.546c.095333 0 .171166.028166.2275.0845.056333.056334.0845.132166.0845.2275v.572c.355335-.589336.957662-.884 1.807-.884h.507c.095333 0 .168999.026.221.078.052.052.078.125666.078.221v.481c0 .086667-.026.158166-.078.2145-.052001.056334-.125667.0845-.221.0845h-.741c-.476669 0-.851499.138665-1.1245.416-.273002.277335-.4095.654331-.4095 1.131v3.835c0 .086667-.030333.158166-.091.2145s-.134333.0845-.221.0845zm7.46075.13c-.953338 0-1.687831-.268664-2.2035-.806-.51567-.537336-.790833-1.252329-.8255-2.145l-.013-.559.013-.559c.034667-.892671.314164-1.607664.8385-2.145s1.254495-.806 2.1905-.806c.936004 0 1.666164.268664 2.1905.806s.803833 1.252329.8385 2.145c.017333.190668.026.376999.026.559s-.008667.368332-.026.559c-.034667.892671-.309831 1.607664-.8255 2.145-.51567.537336-1.250162.806-2.2035.806zm0-.975c.554669 0 .994498-.175498 1.3195-.5265.325001-.351002.5005-.85583.5265-1.5145.008666-.086667.013-.251332.013-.494s-.004334-.407333-.013-.494c-.026-.65867-.201499-1.163498-.5265-1.5145-.325002-.351002-.764831-.5265-1.3195-.5265-.55467 0-.994499.175498-1.3195.5265-.325002.351002-.5005.85583-.5265 1.5145l-.013.494.013.494c.026.65867.201498 1.163498.5265 1.5145.325001.351002.76483.5265 1.3195.5265zm5.25075.845c-.086667 0-.158167-.028166-.2145-.0845-.056334-.056334-.0845-.127833-.0845-.2145v-6.162c0-.086667.028166-.158166.0845-.2145.056333-.056334.127833-.0845.2145-.0845h.559c.095333 0 .168999.026.221.078.052.052.078.125666.078.221v.572c.260001-.320668.561165-.567666.9035-.741s.769164-.26 1.2805-.26c.832004 0 1.477664.266497 1.937.7995.459335.533003.689 1.237162.689 2.1125v3.679c0 .086667-.028167.158166-.0845.2145-.056334.056334-.127833.0845-.2145.0845h-.598c-.086667 0-.158167-.028166-.2145-.0845-.056334-.056334-.0845-.127833-.0845-.2145v-3.601c0-.624003-.151665-1.109332-.455-1.456s-.736664-.52-1.3-.52c-.55467 0-.996665.175498-1.326.5265s-.494.834164-.494 1.4495v3.601c0 .086667-.028167.158166-.0845.2145-.056334.056334-.127833.0845-.2145.0845zm10.55475 2.86c-.719337 0-1.295665-.121332-1.729-.364-.433336-.242668-.738833-.519998-.9165-.832-.177668-.312002-.2665-.580666-.2665-.806 0-.078.030333-.145166.091-.2015s.129999-.0845.208-.0845h.572c.078 0 .142999.0195.195.0585.052.039.095333.110499.13.2145.242668.693337.792995 1.04 1.651 1.04.650003 0 1.130998-.138665 1.443-.416.312001-.277335.468-.766996.468-1.469v-.897c-.50267.641337-1.204663.962-2.106.962-.918672 0-1.605498-.294664-2.0605-.884-.455003-.589336-.6955-1.334662-.7215-2.236l-.013-.364.013-.351c.026-.892671.266497-1.63583.7215-2.2295.455002-.59367 1.141828-.8905 2.0605-.8905.910004 0 1.620664.333663 2.132 1.001v-.559c0-.086667.028166-.160333.0845-.221.056333-.060667.127833-.091.2145-.091h.559c.086667 0 .158166.030333.2145.091.056333.060667.0845.134333.0845.221v6.305c0 2.00201-1.009657 3.003-3.029 3.003zm-.026-3.809c.606669 0 1.063831-.197165 1.3715-.5915.307668-.394335.4745-.868831.5005-1.4235.008666-.078.013-.229666.013-.455 0-.216668-.004334-.364-.013-.442-.026-.554669-.192832-1.029165-.5005-1.4235-.307669-.394335-.764831-.5915-1.3715-.5915-.624003 0-1.076832.197165-1.3585.5915s-.4355.903497-.4615 1.5275l-.013.338.013.351c.026.624003.179832 1.133165.4615 1.5275s.734497.5915 1.3585.5915zm-33.540875 15.949c-.086667 0-.158167-.028166-.2145-.0845-.056334-.056334-.0845-.127833-.0845-.2145v-7.683h-2.509c-.086667 0-.158167-.028166-.2145-.0845-.056334-.056334-.0845-.127833-.0845-.2145v-.507c0-.095334.028166-.171166.0845-.2275.056333-.056334.127833-.0845.2145-.0845h6.24c.095333 0 .168999.028166.221.0845.052.056334.078.132166.078.2275v.507c0 .086667-.028167.158166-.0845.2145-.056334.056334-.127833.0845-.2145.0845h-2.496v7.683c0 .086667-.030333.158166-.091.2145s-.134333.0845-.221.0845zm6.73275.13c-.884005 0-1.590331-.275164-2.119-.8255-.52867-.550336-.819-1.302162-.871-2.2555l-.013-.442.013-.429c.052-.936005.34233-1.681331.871-2.236.528669-.554669 1.234995-.832 2.119-.832.953338 0 1.692164.30333 2.2165.91s.7865 1.429995.7865 2.47v.234c0 .086667-.028167.158166-.0845.2145-.056334.056334-.127833.0845-.2145.0845h-4.511v.117c.026.563336.199331 1.044331.52 1.443.320668.398669.74533.598 1.274.598.407335 0 .738832-.080166.9945-.2405s.448499-.327166.5785-.5005c.078-.104001.138666-.166833.182-.1885.043333-.021667.116999-.0325.221-.0325h.572c.078 0 .145166.021666.2015.065.056333.043334.0845.099666.0845.169 0 .190668-.116999.420332-.351.689s-.565498.500499-.9945.6955-.920831.2925-1.4755.2925zm1.82-3.991v-.039c0-.60667-.164665-1.100665-.494-1.482s-.771331-.572-1.326-.572c-.563336 0-1.005332.190665-1.326.572-.320669.381335-.481.87533-.481 1.482v.039zm4.89975 3.991c-.424669 0-.816832-.086666-1.1765-.26-.359669-.173334-.645666-.409499-.858-.7085-.212335-.299001-.3185-.630498-.3185-.9945 0-.572003.233997-1.039998.702-1.404.468002-.364002 1.104996-.606666 1.911-.728l1.95-.273v-.377c0-.892671-.515662-1.339-1.547-1.339-.398669 0-.719332.080166-.962.2405s-.420333.348832-.533.5655c-.034667.086667-.0715.145167-.1105.1755-.039001.030333-.093167.0455-.1625.0455h-.507c-.078001 0-.145167-.028166-.2015-.0845-.056334-.056334-.0845-.1235-.0845-.2015 0-.199334.093165-.431165.2795-.6955.186334-.264335.474498-.493999.8645-.689s.866664-.2925 1.43-.2925c.970671 0 1.666164.225331 2.0865.676.420335.450669.6305 1.013997.6305 1.69v4.225c0 .086667-.028167.158166-.0845.2145-.056334.056334-.127833.0845-.2145.0845h-.572c-.086667 0-.156-.028166-.208-.0845-.052001-.056334-.078-.127833-.078-.2145v-.572c-.190668.286001-.467999.524332-.832.715-.364002.190668-.831997.286-1.404.286zm.26-.949c.572003 0 1.039998-.186331 1.404-.559.364001-.372669.546-.91433.546-1.625v-.364l-1.521.221c-.624003.086667-1.096332.233999-1.417.442-.320669.208001-.481.467998-.481.78 0 .355335.145165.628332.4355.819.290334.190668.634831.286 1.0335.286zm5.57575.819c-.086667 0-.158167-.028166-.2145-.0845-.056334-.056334-.0845-.127833-.0845-.2145v-6.162c0-.086667.028166-.158166.0845-.2145.056333-.056334.127833-.0845.2145-.0845h.546c.086667 0 .155999.028166.208.0845.052.056334.078.127833.078.2145v.442c.468002-.58067 1.100662-.871 1.898-.871.953338 0 1.629331.398663 2.028 1.196.208001-.364002.504831-.654332.8905-.871.385668-.216668.816831-.325 1.2935-.325.71067 0 1.291331.242664 1.742.728s.676 1.187329.676 2.106v3.757c0 .086667-.028167.158166-.0845.2145-.056334.056334-.127833.0845-.2145.0845h-.559c-.086667 0-.158167-.028166-.2145-.0845-.056334-.056334-.0845-.127833-.0845-.2145v-3.64c0-.693337-.142999-1.189499-.429-1.4885-.286002-.299001-.662998-.4485-1.131-.4485-.416002 0-.773499.153832-1.0725.4615-.299002.307668-.4485.799497-.4485 1.4755v3.64c0 .086667-.028167.158166-.0845.2145-.056334.056334-.127833.0845-.2145.0845h-.572c-.086667 0-.158167-.028166-.2145-.0845-.056334-.056334-.0845-.127833-.0845-.2145v-3.64c0-.68467-.149499-1.178665-.4485-1.482-.299002-.303335-.669498-.455-1.1115-.455-.416002 0-.773499.151665-1.0725.455-.299002.303335-.4485.792997-.4485 1.469v3.653c0 .086667-.028167.158166-.0845.2145-.056334.056334-.127833.0845-.2145.0845zm13.81775.13c-.598003 0-1.102832-.097499-1.5145-.2925-.411669-.195001-.717166-.418165-.9165-.6695-.199335-.251335-.299-.459333-.299-.624 0-.086667.030333-.153833.091-.2015s.125666-.0715.195-.0715h.546c.052 0 .093166.008667.1235.026.030333.017333.071499.056333.1235.117.199334.242668.422498.433333.6695.572.247001.138667.578498.208.9945.208.468002 0 .842832-.086666 1.1245-.26s.4225-.424665.4225-.754c0-.216668-.060666-.389999-.182-.52s-.322832-.246999-.6045-.351-.699831-.216666-1.2545-.338c-.754004-.164667-1.286999-.402998-1.599-.715-.312002-.312002-.468-.714998-.468-1.209 0-.320668.095332-.630499.286-.9295.190667-.299001.474498-.541666.8515-.728s.825497-.2795 1.3455-.2795c.546002 0 1.011831.090999 1.3975.273.385668.182001.675999.394332.871.637s.2925.446333.2925.611c0 .078-.028167.143-.0845.195-.056334.052-.1235.078-.2015.078h-.494c-.121334 0-.208-.047666-.26-.143-.147334-.164667-.270833-.2925-.3705-.3835-.099668-.091-.244833-.169-.4355-.234-.190668-.065-.428999-.0975-.715-.0975-.424669 0-.749666.088832-.975.2665-.225335.177668-.338.413832-.338.7085 0 .182001.047666.335833.143.4615.095333.125667.277332.242666.546.351s.66733.218833 1.196.3315c.823337.173334 1.406165.420332 1.7485.741s.5135.732331.5135 1.235c0 .372669-.106166.710665-.3185 1.014-.212335.303335-.528665.541666-.949.715-.420336.173334-.920831.26-1.5015.26z"/><path d="m277.905236 158.13c-.71067 0-1.328164-.112666-1.8525-.338s-.922999-.522165-1.196-.8905-.418167-.764831-.4355-1.1895c0-.069334.026-.13.078-.182s.117-.078.195-.078h.637c.156001 0 .264333.086666.325.26.078.364002.301165.678165.6695.9425s.89483.3965 1.5795.3965c.73667 0 1.286998-.129999 1.651-.39s.546-.619664.546-1.079c0-.294668-.088832-.537332-.2665-.728s-.441998-.357499-.793-.5005-.877496-.318499-1.5795-.5265c-.667337-.190668-1.198165-.394332-1.5925-.611s-.691166-.483165-.8905-.7995-.299-.717164-.299-1.2025c0-.468002.125665-.886165.377-1.2545s.615331-.658666 1.092-.871 1.039997-.3185 1.69-.3185c.676003 0 1.254498.119165 1.7355.3575s.847165.537332 1.0985.897.385667.721498.403 1.0855c0 .078-.026.143-.078.195s-.117.078-.195.078h-.65c-.069334 0-.134333-.021666-.195-.065s-.104-.108333-.13-.195c-.052-.372669-.259998-.680332-.624-.923s-.818997-.364-1.365-.364c-.589336 0-1.057332.114832-1.404.3445s-.52.569831-.52 1.0205c0 .303335.080166.550332.2405.741s.407332.359666.741.507.821163.316332 1.4625.507c.73667.208001 1.315165.415999 1.7355.624s.734499.465832.9425.7735.312.704164.312 1.1895c0 .814671-.30983 1.449498-.9295 1.9045s-1.458161.6825-2.5155.6825zm7.85075-.13c-1.34334 0-2.015-.758326-2.015-2.275v-3.484h-1.027c-.086667 0-.156-.026-.208-.078s-.078-.121333-.078-.208v-.416c0-.086667.026-.158166.078-.2145s.121333-.0845.208-.0845h1.027v-2.171c0-.086667.026-.158166.078-.2145s.121333-.0845.208-.0845h.572c.086667 0 .158166.028166.2145.0845s.0845.127833.0845.2145v2.171h1.612c.086667 0 .158166.028166.2145.0845s.0845.127833.0845.2145v.416c0 .086667-.028166.156-.0845.208s-.127833.078-.2145.078h-1.612v3.393c0 .442002.071499.775666.2145 1.001s.387832.338.7345.338h.793c.086667 0 .156.028166.208.0845s.078.127833.078.2145v.429c0 .086667-.026.158166-.078.2145s-.121333.0845-.208.0845zm4.57475.13c-.424669 0-.816832-.086666-1.1765-.26s-.645666-.409499-.858-.7085-.3185-.630498-.3185-.9945c0-.572003.233998-1.039998.702-1.404s1.104996-.606666 1.911-.728l1.95-.273v-.377c0-.892671-.515661-1.339-1.547-1.339-.398669 0-.719332.080166-.962.2405s-.420333.348832-.533.5655c-.034667.086667-.0715.145167-.1105.1755s-.093166.0455-.1625.0455h-.507c-.078 0-.145166-.028166-.2015-.0845s-.0845-.1235-.0845-.2015c0-.199334.093166-.431165.2795-.6955s.474498-.493999.8645-.689.866664-.2925 1.43-.2925c.970672 0 1.666165.225331 2.0865.676s.6305 1.013997.6305 1.69v4.225c0 .086667-.028166.158166-.0845.2145s-.127833.0845-.2145.0845h-.572c-.086667 0-.156-.028166-.208-.0845s-.078-.127833-.078-.2145v-.572c-.190668.286001-.467998.524332-.832.715s-.831997.286-1.404.286zm.26-.949c.572003 0 1.039998-.186331 1.404-.559s.546-.91433.546-1.625v-.364l-1.521.221c-.624003.086667-1.096332.233999-1.417.442s-.481.467998-.481.78c0 .355335.145165.628332.4355.819s.634831.286 1.0335.286zm8.57875.949c-.936005 0-1.650998-.32933-2.145-.988v.559c0 .086667-.028166.158166-.0845.2145s-.127833.0845-.2145.0845h-.546c-.086667 0-.158166-.028166-.2145-.0845s-.0845-.127833-.0845-.2145v-8.632c0-.095334.028166-.169.0845-.221s.127833-.078.2145-.078h.585c.086667 0 .158166.028166.2145.0845s.0845.127833.0845.2145v3.003c.485336-.641337 1.187329-.962 2.106-.962.910005 0 1.592498.29683 2.0475.8905s.6955 1.336829.7215 2.2295c.008667.095334.013.225333.013.39s-.004333.294666-.013.39c-.026.892671-.266498 1.63583-.7215 2.2295s-1.137495.8905-2.0475.8905zm-.247-1.014c.624003 0 1.078999-.194998 1.365-.585s.442-.90133.468-1.534c.008667-.086667.013-.212333.013-.377 0-1.664008-.615327-2.496-1.846-2.496-.589336 0-1.042165.192831-1.3585.5785s-.483167.842831-.5005 1.3715c-.008667.095334-.013.264332-.013.507 0 .234001.004333.398666.013.494.017333.554669.179832 1.033498.4875 1.4365s.76483.6045 1.3715.6045zm5.23775.884c-.086667 0-.158166-.028166-.2145-.0845s-.0845-.127833-.0845-.2145v-8.632c0-.095334.028166-.169.0845-.221s.127833-.078.2145-.078h.572c.086667 0 .158166.028166.2145.0845s.0845.127833.0845.2145v8.632c0 .086667-.028166.158166-.0845.2145s-.127833.0845-.2145.0845zm5.75775.13c-.884004 0-1.590331-.275164-2.119-.8255s-.819-1.302162-.871-2.2555l-.013-.442.013-.429c.052-.936005.342331-1.681331.871-2.236s1.234996-.832 2.119-.832c.953338 0 1.692164.30333 2.2165.91s.7865 1.429995.7865 2.47v.234c0 .086667-.028166.158166-.0845.2145s-.127833.0845-.2145.0845h-4.511v.117c.026.563336.199332 1.044331.52 1.443s.745331.598 1.274.598c.407335 0 .738832-.080166.9945-.2405s.448499-.327166.5785-.5005c.078-.104001.138666-.166833.182-.1885s.116999-.0325.221-.0325h.572c.078 0 .145166.021666.2015.065s.0845.099666.0845.169c0 .190668-.116999.420332-.351.689s-.565498.500499-.9945.6955-.920831.2925-1.4755.2925zm1.82-3.991v-.039c0-.60667-.164665-1.100665-.494-1.482s-.771331-.572-1.326-.572c-.563336 0-1.005332.190665-1.326.572s-.481.87533-.481 1.482v.039zm-40.787125 18.991c-.71067 0-1.328164-.112666-1.8525-.338s-.922999-.522165-1.196-.8905-.418167-.764831-.4355-1.1895c0-.069334.026-.13.078-.182s.117-.078.195-.078h.637c.156001 0 .264333.086666.325.26.078.364002.301165.678165.6695.9425s.89483.3965 1.5795.3965c.73667 0 1.286998-.129999 1.651-.39s.546-.619664.546-1.079c0-.294668-.088832-.537332-.2665-.728s-.441998-.357499-.793-.5005-.877496-.318499-1.5795-.5265c-.667337-.190668-1.198165-.394332-1.5925-.611s-.691166-.483165-.8905-.7995-.299-.717164-.299-1.2025c0-.468002.125665-.886165.377-1.2545s.615331-.658666 1.092-.871 1.039997-.3185 1.69-.3185c.676003 0 1.254498.119165 1.7355.3575s.847165.537332 1.0985.897.385667.721498.403 1.0855c0 .078-.026.143-.078.195s-.117.078-.195.078h-.65c-.069334 0-.134333-.021666-.195-.065s-.104-.108333-.13-.195c-.052-.372669-.259998-.680332-.624-.923s-.818997-.364-1.365-.364c-.589336 0-1.057332.114832-1.404.3445s-.52.569831-.52 1.0205c0 .303335.080166.550332.2405.741s.407332.359666.741.507.821163.316332 1.4625.507c.73667.208001 1.315165.415999 1.7355.624s.734499.465832.9425.7735.312.704164.312 1.1895c0 .814671-.30983 1.449498-.9295 1.9045s-1.458161.6825-2.5155.6825zm6.42075 2.34c-.078 0-.143-.026-.195-.078s-.078-.112666-.078-.182c0-.026.021666-.103999.065-.234l1.014-2.379-2.483-5.863c-.052-.104001-.078-.177666-.078-.221.008667-.078.039-.143.091-.195s.112666-.078.182-.078h.598c.138667 0 .242666.069333.312.208l2.002 4.784 2.054-4.784c.069334-.138667.173333-.208.312-.208h.585c.069334 0 .13.026.182.078s.078.112666.078.182c0 .060667-.021666.138666-.065.234l-3.679 8.528c-.043334.069334-.088833.121333-.1365.156s-.1105.052-.1885.052zm8.31875-2.34c-.598003 0-1.102831-.097499-1.5145-.2925s-.717166-.418165-.9165-.6695-.299-.459333-.299-.624c0-.086667.030333-.153833.091-.2015s.125666-.0715.195-.0715h.546c.052 0 .093167.008667.1235.026.030334.017333.0715.056333.1235.117.199334.242668.422499.433333.6695.572s.578498.208.9945.208c.468002 0 .842832-.086666 1.1245-.26s.4225-.424665.4225-.754c0-.216668-.060666-.389999-.182-.52s-.322832-.246999-.6045-.351-.699831-.216666-1.2545-.338c-.754004-.164667-1.286998-.402998-1.599-.715s-.468-.714998-.468-1.209c0-.320668.095332-.630499.286-.9295s.474498-.541666.8515-.728.825497-.2795 1.3455-.2795c.546003 0 1.011831.090999 1.3975.273s.675999.394332.871.637.2925.446333.2925.611c0 .078-.028166.143-.0845.195s-.1235.078-.2015.078h-.494c-.121334 0-.208-.047666-.26-.143-.147334-.164667-.270833-.2925-.3705-.3835s-.244832-.169-.4355-.234-.428999-.0975-.715-.0975c-.424669 0-.749666.088832-.975.2665s-.338.413832-.338.7085c0 .182001.047666.335833.143.4615s.277332.242666.546.351.667331.218833 1.196.3315c.823337.173334 1.406165.420332 1.7485.741s.5135.732331.5135 1.235c0 .372669-.106166.710665-.3185 1.014s-.528665.541666-.949.715-.92083.26-1.5015.26zm7.13575-.13c-1.34334 0-2.015-.758326-2.015-2.275v-3.484h-1.027c-.086667 0-.156-.026-.208-.078s-.078-.121333-.078-.208v-.416c0-.086667.026-.158166.078-.2145s.121333-.0845.208-.0845h1.027v-2.171c0-.086667.026-.158166.078-.2145s.121333-.0845.208-.0845h.572c.086667 0 .158166.028166.2145.0845s.0845.127833.0845.2145v2.171h1.612c.086667 0 .158166.028166.2145.0845s.0845.127833.0845.2145v.416c0 .086667-.028166.156-.0845.208s-.127833.078-.2145.078h-1.612v3.393c0 .442002.071499.775666.2145 1.001s.387832.338.7345.338h.793c.086667 0 .156.028166.208.0845s.078.127833.078.2145v.429c0 .086667-.026.158166-.078.2145s-.121333.0845-.208.0845zm5.38075.13c-.884004 0-1.590331-.275164-2.119-.8255s-.819-1.302162-.871-2.2555l-.013-.442.013-.429c.052-.936005.342331-1.681331.871-2.236s1.234996-.832 2.119-.832c.953338 0 1.692164.30333 2.2165.91s.7865 1.429995.7865 2.47v.234c0 .086667-.028166.158166-.0845.2145s-.127833.0845-.2145.0845h-4.511v.117c.026.563336.199332 1.044331.52 1.443s.745331.598 1.274.598c.407335 0 .738832-.080166.9945-.2405s.448499-.327166.5785-.5005c.078-.104001.138666-.166833.182-.1885s.116999-.0325.221-.0325h.572c.078 0 .145166.021666.2015.065s.0845.099666.0845.169c0 .190668-.116999.420332-.351.689s-.565498.500499-.9945.6955-.920831.2925-1.4755.2925zm1.82-3.991v-.039c0-.60667-.164665-1.100665-.494-1.482s-.771331-.572-1.326-.572c-.563336 0-1.005332.190665-1.326.572s-.481.87533-.481 1.482v.039zm3.32675 3.861c-.086667 0-.158166-.028166-.2145-.0845s-.0845-.127833-.0845-.2145v-6.162c0-.086667.028166-.158166.0845-.2145s.127833-.0845.2145-.0845h.546c.086667 0 .156.028166.208.0845s.078.127833.078.2145v.442c.468002-.58067 1.100663-.871 1.898-.871.953338 0 1.629331.398663 2.028 1.196.208001-.364002.504831-.654332.8905-.871s.816831-.325 1.2935-.325c.71067 0 1.291331.242664 1.742.728s.676 1.187329.676 2.106v3.757c0 .086667-.028166.158166-.0845.2145s-.127833.0845-.2145.0845h-.559c-.086667 0-.158166-.028166-.2145-.0845s-.0845-.127833-.0845-.2145v-3.64c0-.693337-.142999-1.189499-.429-1.4885s-.662998-.4485-1.131-.4485c-.416002 0-.773498.153832-1.0725.4615-.299001.307668-.4485.799497-.4485 1.4755v3.64c0 .086667-.028166.158166-.0845.2145s-.127833.0845-.2145.0845h-.572c-.086667 0-.158166-.028166-.2145-.0845s-.0845-.127833-.0845-.2145v-3.64c0-.68467-.149498-1.178665-.4485-1.482-.299001-.303335-.669498-.455-1.1115-.455-.416002 0-.773498.151665-1.0725.455-.299001.303335-.4485.792997-.4485 1.469v3.653c0 .086667-.028166.158166-.0845.2145s-.127833.0845-.2145.0845zm13.81775.13c-.598003 0-1.102831-.097499-1.5145-.2925s-.717166-.418165-.9165-.6695-.299-.459333-.299-.624c0-.086667.030333-.153833.091-.2015s.125666-.0715.195-.0715h.546c.052 0 .093167.008667.1235.026s.0715.056333.1235.117c.199334.242668.422499.433333.6695.572s.578498.208.9945.208c.468002 0 .842832-.086666 1.1245-.26s.4225-.424665.4225-.754c0-.216668-.060666-.389999-.182-.52s-.322832-.246999-.6045-.351-.699831-.216666-1.2545-.338c-.754004-.164667-1.286998-.402998-1.599-.715s-.468-.714998-.468-1.209c0-.320668.095332-.630499.286-.9295s.474498-.541666.8515-.728.825497-.2795 1.3455-.2795c.546003 0 1.011831.090999 1.3975.273s.675999.394332.871.637.2925.446333.2925.611c0 .078-.028166.143-.0845.195s-.1235.078-.2015.078h-.494c-.121334 0-.208-.047666-.26-.143-.147334-.164667-.270833-.2925-.3705-.3835s-.244832-.169-.4355-.234-.428999-.0975-.715-.0975c-.424669 0-.749666.088832-.975.2665s-.338.413832-.338.7085c0 .182001.047666.335833.143.4615s.277332.242666.546.351.667331.218833 1.196.3315c.823337.173334 1.406165.420332 1.7485.741s.5135.732331.5135 1.235c0 .372669-.106166.710665-.3185 1.014s-.528665.541666-.949.715-.92083.26-1.5015.26z"/><path d="m106.834559 157.12c-.720003 0-1.335997-.107999-1.848-.324-.512002-.216001-.899998-.499998-1.164-.852-.264001-.352002-.403999-.735998-.42-1.152 0-.064.024-.122.072-.174.048001-.052.108-.078.18-.078h1.092c.088001 0 .16.02.216.06.056001.04.108.096.156.168.080001.272001.261999.499999.546.684.284002.184001.673998.276 1.17.276.560003 0 .981999-.093999 1.266-.282.284002-.188001.426-.445998.426-.774 0-.216001-.071999-.395999-.216-.54-.144-.144001-.361998-.269999-.654-.378-.292001-.108001-.725997-.237999-1.302-.39-.944004-.224001-1.635997-.519998-2.076-.888-.440002-.368002-.66-.895997-.66-1.584 0-.464002.127999-.877998.384-1.242.256002-.364002.621998-.649999 1.098-.858.476003-.208001 1.029997-.312 1.662-.312.664004 0 1.237998.115999 1.722.348.484003.232001.851999.521998 1.104.87.252002.348002.386.693998.402 1.038 0 .064-.023999.122-.072.174-.048.052-.107999.078-.18.078h-1.14c-.176 0-.295999-.071999-.36-.216-.04-.256001-.195998-.469999-.468-.642-.272001-.172001-.607998-.258-1.008-.258-.440002 0-.785998.083999-1.038.252-.252001.168001-.378.411998-.378.732 0 .216001.064.395999.192.54.128001.144001.327999.269999.6.378.272002.108001.667998.229999 1.188.366.712004.160001 1.277998.339999 1.698.54.420003.200001.729999.451998.93.756s.3.691998.3 1.164c0 .520003-.141998.969998-.426 1.35-.284001.380002-.683997.669999-1.2.87-.516002.200001-1.113996.3-1.794.3zm5.447125-.12c-.08 0-.147999-.028-.204-.084-.056-.056-.084-.124-.084-.204v-7.944c0-.088.028-.158.084-.21.056001-.052.124-.078.204-.078h.996c.080001 0 .148.028.204.084.056001.056.084.124.084.204v4.104l1.992-1.908c.024001-.016.062-.046.114-.09.052001-.044.102-.074.15-.09.048001-.016.108-.024.18-.024h1.14c.080001 0 .144.024.192.072.048001.048.072.112.072.192 0 .072-.039999.144-.12.216l-2.448 2.316 2.748 2.976c.072001.072.108.14.108.204 0 .08-.023999.144-.072.192-.048.048-.107999.072-.18.072h-1.164c-.112 0-.193999-.014-.246-.042-.052-.028-.117999-.082-.198-.162l-2.268-2.412v2.328c0 .08-.027999.148-.084.204-.056.056-.123999.084-.204.084zm7.067125-7.26c-.08 0-.147999-.028-.204-.084-.056-.056-.084-.124-.084-.204v-.876c0-.088.028-.16.084-.216.056001-.056.124-.084.204-.084h1.104c.088001 0 .16.028.216.084.056001.056.084.128.084.216v.876c0 .08-.029999.148-.09.204-.06.056-.129999.084-.21.084zm.048 7.26c-.08 0-.147999-.028-.204-.084-.056-.056-.084-.124-.084-.204v-5.664c0-.088.028-.158.084-.21.056001-.052.124-.078.204-.078h1.02c.080001 0 .148.028.204.084.056001.056.084.124.084.204v5.664c0 .08-.027999.148-.084.204-.056.056-.123999.084-.204.084zm3.695125 0c-.08 0-.147999-.028-.204-.084-.056-.056-.084-.124-.084-.204v-7.944c0-.088.028-.158.084-.21.056001-.052.124-.078.204-.078h1.008c.088001 0 .158.026.21.078.052001.052.078.122.078.21v7.944c0 .08-.025999.148-.078.204-.052.056-.121999.084-.21.084zm3.695125 0c-.08 0-.147999-.028-.204-.084-.056-.056-.084-.124-.084-.204v-7.944c0-.088.028-.158.084-.21.056001-.052.124-.078.204-.078h1.008c.088001 0 .158.026.21.078.052001.052.078.122.078.21v7.944c0 .08-.025999.148-.078.204-.052.056-.121999.084-.21.084zm4.355125 0c-.08 0-.147999-.028-.204-.084-.056-.056-.084-.124-.084-.204v-4.668h-.972c-.08 0-.147999-.028-.204-.084-.056-.056-.084-.124-.084-.204v-.708c0-.08.028-.148.084-.204.056001-.056.124-.084.204-.084h.972v-.48c0-.728004.195998-1.269998.588-1.626s.983996-.534 1.776-.534h.828c.080001 0 .148.028.204.084.056001.056.084.124.084.204v.708c0 .08-.027999.148-.084.204-.056.056-.123999.084-.204.084h-.768c-.312001 0-.531999.075999-.66.228-.128.152001-.192.387998-.192.708v.42h1.5c.080001 0 .148.028.204.084.056001.056.084.124.084.204v.708c0 .08-.027999.148-.084.204-.056.056-.123999.084-.204.084h-1.5v4.668c0 .08-.025999.148-.078.204-.052.056-.121999.084-.21.084zm6.839125.12c-.736003 0-1.315997-.239998-1.74-.72-.424002-.480002-.636-1.139996-.636-1.98v-3.372c0-.088.028-.158.084-.21.056001-.052.124-.078.204-.078h1.08c.080001 0 .148.028.204.084.056001.056.084.124.084.204v3.3c0 .984005.427996 1.476 1.284 1.476.416003 0 .745999-.131999.99-.396.244002-.264001.366-.623998.366-1.08v-3.3c0-.088.028-.158.084-.21.056001-.052.124-.078.204-.078h1.068c.088001 0 .158.026.21.078.052001.052.078.122.078.21v5.664c0 .08-.025999.148-.078.204-.052.056-.121999.084-.21.084h-.996c-.08 0-.147999-.028-.204-.084-.056-.056-.084-.124-.084-.204v-.492c-.440002.600003-1.103995.9-1.992.9zm5.951125-.12c-.08 0-.147999-.028-.204-.084-.056-.056-.084-.124-.084-.204v-7.944c0-.088.028-.158.084-.21.056001-.052.124-.078.204-.078h1.008c.088001 0 .158.026.21.078.052001.052.078.122.078.21v7.944c0 .08-.025999.148-.078.204-.052.056-.121999.084-.21.084zm-52.2285621 14c-.0800004 0-.1479997-.028-.204-.084-.0560002-.056-.084-.124-.084-.204v-7.824c0-.088.0279998-.158.084-.21.0560003-.052.1239996-.078.204-.078h1.152c.0880005 0 .1579998.026.21.078.0520003.052.078.122.078.21v7.824c0 .08-.0259997.148-.078.204-.0520002.056-.1219995.084-.21.084zm3.959125 0c-.0800004 0-.1479997-.028-.204-.084-.0560002-.056-.084-.124-.084-.204v-5.664c0-.088.0279998-.158.084-.21.0560003-.052.1239996-.078.204-.078h.996c.0880005 0 .1579998.026.21.078.0520003.052.078.122.078.21v.492c.4880025-.600003 1.1559958-.9 2.004-.9.7360037 0 1.3199981.239998 1.7520001.72s.648 1.139996.648 1.98v3.372c0 .08-.026.148-.078.204s-.122.084-.21.084h-1.0800001c-.0800004 0-.1479997-.028-.204-.084-.0560002-.056-.084-.124-.084-.204v-3.3c0-.464002-.1139988-.825999-.342-1.086-.2280011-.260001-.5539978-.39-.978-.39-.408002 0-.7359987.131999-.984.396-.2480012.264001-.372.623998-.372 1.08v3.3c0 .08-.0259997.148-.078.204-.0520002.056-.1219995.084-.21.084zm10.0311251.12c-.808004 0-1.427998-.257997-1.86-.774s-.668-1.205996-.708-2.07l-.012-.396.012-.396c.032-.848004.265998-1.533997.702-2.058s1.057996-.786 1.866-.786c.768004 0 1.379998.263997 1.836.792v-2.664c0-.088.028-.158.084-.21s.124-.078.204-.078h1.044c.088 0 .158.026.21.078s.078.122.078.21v7.944c0 .08-.026.148-.078.204s-.122.084-.21.084h-.972c-.08 0-.148-.028-.204-.084s-.084-.124-.084-.204v-.444c-.440002.568003-1.075996.852-1.908.852zm.456-1.296c.456002 0 .793999-.145999 1.014-.438s.342-.653998.366-1.086c.008-.096.012-.247999.012-.456 0-.216001-.004-.372-.012-.468-.016-.400002-.139999-.739999-.372-1.02s-.567998-.42-1.008-.42c-.856004 0-1.312.527995-1.368 1.584l-.012.36.012.36c.056 1.056005.511996 1.584 1.368 1.584zm5.339125-6.084c-.08 0-.148-.028-.204-.084s-.084-.124-.084-.204v-.876c0-.088.028-.16.084-.216s.124-.084.204-.084h1.104c.088 0 .16.028.216.084s.084.128.084.216v.876c0 .08-.03.148-.09.204s-.13.084-.21.084zm.048 7.26c-.08 0-.148-.028-.204-.084s-.084-.124-.084-.204v-5.664c0-.088.028-.158.084-.21s.124-.078.204-.078h1.02c.08 0 .148.028.204.084s.084.124.084.204v5.664c0 .08-.028.148-.084.204s-.124.084-.204.084zm5.603125 0c-.120001 0-.212-.026-.276-.078s-.116-.126-.156-.222l-2.256-5.568c-.008-.024-.012-.06-.012-.108 0-.072.026-.134.078-.186s.11-.078.174-.078h.996c.160001 0 .268.075999.324.228l1.584 4.188 1.584-4.188c.016-.056.05-.108.102-.156s.122-.072.21-.072h.996c.072 0 .132.026.18.078s.072.114.072.186c0 .048-.004.084-.012.108l-2.244 5.568c-.088.200001-.231999.3-.432.3zm5.435125-7.26c-.08 0-.148-.028-.204-.084s-.084-.124-.084-.204v-.876c0-.088.028-.16.084-.216s.124-.084.204-.084h1.104c.088 0 .16.028.216.084s.084.128.084.216v.876c0 .08-.03.148-.09.204s-.13.084-.21.084zm.048 7.26c-.08 0-.148-.028-.204-.084s-.084-.124-.084-.204v-5.664c0-.088.028-.158.084-.21s.124-.078.204-.078h1.02c.08 0 .148.028.204.084s.084.124.084.204v5.664c0 .08-.028.148-.084.204s-.124.084-.204.084zm5.711125.12c-.808004 0-1.427998-.257997-1.86-.774s-.668-1.205996-.708-2.07l-.012-.396.012-.396c.032-.848004.265998-1.533997.702-2.058s1.057996-.786 1.866-.786c.768004 0 1.379998.263997 1.836.792v-2.664c0-.088.028-.158.084-.21s.124-.078.204-.078h1.044c.088 0 .158.026.21.078s.078.122.078.21v7.944c0 .08-.026.148-.078.204s-.122.084-.21.084h-.972c-.08 0-.148-.028-.204-.084s-.084-.124-.084-.204v-.444c-.440002.568003-1.075996.852-1.908.852zm.456-1.296c.456002 0 .793999-.145999 1.014-.438s.342-.653998.366-1.086c.008-.096.012-.247999.012-.456 0-.216001-.004-.372-.012-.468-.016-.400002-.139999-.739999-.372-1.02s-.567998-.42-1.008-.42c-.856004 0-1.312.527995-1.368 1.584l-.012.36.012.36c.056 1.056005.511996 1.584 1.368 1.584zm7.415125 1.296c-.736004 0-1.315998-.239998-1.74-.72s-.636-1.139996-.636-1.98v-3.372c0-.088.028-.158.084-.21s.124-.078.204-.078h1.08c.08 0 .148.028.204.084s.084.124.084.204v3.3c0 .984005.427996 1.476 1.284 1.476.416002 0 .745999-.131999.99-.396s.366-.623998.366-1.08v-3.3c0-.088.028-.158.084-.21s.124-.078.204-.078h1.068c.088 0 .158.026.21.078s.078.122.078.21v5.664c0 .08-.026.148-.078.204s-.122.084-.21.084h-.996c-.08 0-.148-.028-.204-.084s-.084-.124-.084-.204v-.492c-.440002.600003-1.103996.9-1.992.9zm7.463125 0c-.408002 0-.781998-.081999-1.122-.246s-.607999-.385999-.804-.666-.294-.587998-.294-.924c0-.544003.219998-.983998.66-1.32s1.043996-.563999 1.812-.684l1.644-.24v-.252c0-.344002-.087999-.603999-.264-.78s-.455998-.264-.84-.264c-.264001 0-.475999.048-.636.144s-.29.193999-.39.294l-.198.198c-.032.096-.092.144-.18.144h-.936c-.072 0-.134-.024-.186-.072s-.078-.112-.078-.192c.008-.200001.105999-.425999.294-.678s.477998-.471999.87-.66.875997-.282 1.452-.282c.944005 0 1.631998.211998 2.064.636s.648.979997.648 1.668v3.768c0 .08-.026.148-.078.204s-.122.084-.21.084h-.996c-.08 0-.148-.028-.204-.084s-.084-.124-.084-.204v-.468c-.176001.256001-.423998.465999-.744.63s-.719998.246-1.2.246zm.408-1.152c.440002 0 .799999-.143999 1.08-.432s.42-.703997.42-1.248v-.24l-1.2.192c-.920005.144001-1.38.451998-1.38.924 0 .256001.105999.453999.318.594s.465998.21.762.21zm5.447125 1.032c-.08 0-.148-.028-.204-.084s-.084-.124-.084-.204v-7.944c0-.088.028-.158.084-.21s.124-.078.204-.078h1.008c.088 0 .158.026.21.078s.078.122.078.21v7.944c0 .08-.026.148-.078.204s-.122.084-.21.084zm5.771125.12c-.608003 0-1.115998-.091999-1.524-.276s-.709999-.397999-.906-.642-.294-.453999-.294-.63c0-.08.026-.144.078-.192s.114-.072.186-.072h.984c.064 0 .12.032.168.096.04.032.129999.107999.27.228s.299999.214.48.282.377999.102.594.102c.320002 0 .579999-.061999.78-.186s.3-.301999.3-.534c0-.160001-.046-.29-.138-.39-.092001-.100001-.255999-.192-.492-.276s-.589998-.177999-1.062-.282c-.680003-.144001-1.181998-.363999-1.506-.66s-.486-.687998-.486-1.176c0-.320002.095999-.621999.288-.906s.477998-.515999.858-.696.833997-.27 1.362-.27c.544003 0 1.011998.085999 1.404.258s.689999.377999.894.618.306.451999.306.636c0 .072-.026.134-.078.186s-.114.078-.186.078h-.9c-.088 0-.156-.032-.204-.096-.056-.04-.145999-.113999-.27-.222s-.261999-.194-.414-.258-.335999-.096-.552-.096c-.296002 0-.523999.063999-.684.192s-.24.295999-.24.504c0 .144001.038.264.114.36s.229999.186.462.27.579998.17 1.044.258c1.440007.280001 2.16.907995 2.16 1.884 0 .568003-.245998 1.027998-.738 1.38-.492003.352002-1.177996.528-2.058.528z"/><path d="m187.959122 197.124428h1.9276v9.48h-1.9276v-3.8236h-3.16v3.8236h-1.9276v-9.48h1.9276v3.8078h3.16zm6.4842 9.559c-.4266 0-.711-.0474-1.106-.3318-.3318-.237-.8216-.7268-1.0428-1.0428-.2844-.395-.3318-.6794-.3318-1.106v-4.6768c0-.4266.0474-.711.3318-1.106.237-.3318.7268-.8216 1.0428-1.0428.395-.2844.6794-.3318 1.106-.3318h2.37c.4266 0 .711.0474 1.106.3318.3318.237.8216.7268 1.0428 1.0428.2844.395.3318.6794.3318 1.106v4.6768c0 .4266-.0474.711-.3318 1.106-.237.3318-.7268.8216-1.0428 1.0428-.395.2844-.6794.3318-1.106.3318zm-.553-2.4332c0 .0158.0948.1422.2686.316s.3002.2686.316.2686h2.3068c.0158 0 .1422-.0948.316-.2686s.2686-.3002.2686-.316v-4.7716c0-.0158-.0948-.1422-.2686-.316s-.3002-.2686-.316-.2686h-2.3068c-.0158 0-.1422.0948-.316.2686s-.2686.3002-.2686.316zm16.2328-7.1258h2.0224l-2.1804 9.48h-2.2278l-1.343-6.004-1.3904 6.004h-2.2278l-2.1804-9.48h2.0224l1.343 6.2884 1.4378-6.2884h1.9592l1.4378 6.2726zm16.3338 0h2.0224l-2.1804 9.48h-2.2278l-1.343-6.004-1.3904 6.004h-2.2278l-2.1804-9.48h2.0224l1.343 6.2884 1.4378-6.2884h1.9592l1.4378 6.2726zm9.7232 1.8486h-4.2976v1.9434h4.1554v1.8486h-4.1554v1.9908h4.2976v1.8486h-6.2252v-9.48h6.2252zm-38.2481 16.632v.948c0 .6162-.4266 1.027-.711 1.3272.3002.316.711.6952.711 1.3272v.9164c0 .4266-.0474.711-.3318 1.106-.237.3318-.7268.8216-1.0428 1.0428-.395.2844-.6794.3318-1.106.3318h-4.4556v-9.48h4.4556c.4266 0 .711.0474 1.106.3318.3318.237.8216.7268 1.0428 1.0428.2844.395.3318.6794.3318 1.106zm-1.9276.7742v-.8216c0-.0158-.0948-.1422-.2686-.316s-.3002-.2686-.316-.2686h-2.4964v1.9908h2.4964c.0158 0 .1422-.0948.316-.2686s.2686-.3002.2686-.316zm0 3.792v-.8532c0-.0158-.0948-.1422-.2686-.316s-.3002-.2686-.316-.2686h-2.4964v2.0224h2.4964c.0158 0 .1422-.0948.316-.2686s.2686-.3002.2686-.316zm6.3894 2.5122c-.4266 0-.711-.0474-1.106-.3318-.3318-.237-.8216-.7268-1.0428-1.0428-.2844-.395-.3318-.6794-.3318-1.106v-7.0784h1.9276v7.1258c0 .0158.0948.1422.2686.316s.3002.2686.316.2686h2.1488c.0158 0 .1422-.0948.316-.2686s.2686-.3002.2686-.316v-7.1258h1.9276v7.0784c0 .4266-.0474.711-.3318 1.106-.237.3318-.7268.8216-1.0428 1.0428-.395.2844-.6794.3318-1.106.3318zm6.8318-.079v-9.48h1.9434v9.48zm6.0102-1.8644h4.2028v1.8644h-6.1304v-9.48h1.9276zm12.5514-6.241c.2844.395.3318.6794.3318 1.106v4.5188c0 .4266-.0474.711-.3318 1.106-.237.3318-.7268.8216-1.0428 1.0428-.395.2844-.6794.3318-1.106.3318h-4.74v-9.48h4.74c.4266 0 .711.0474 1.106.3318.3318.237.8216.7268 1.0428 1.0428zm-1.5958 5.6722v-4.6136c0-.0158-.0948-.1422-.2686-.316s-.3002-.2686-.316-.2686h-2.7808v5.7828h2.7808c.0158 0 .1422-.0948.316-.2686s.2686-.3002.2686-.316zm-49.9147 18.5122c-.9796 0-1.7064-.8058-2.0856-1.3272-.2528-.3476-.4108-.6794-.5372-1.027l1.8012-.474c.2212.395.474.7584.8058.9796h2.3858c.0158 0 .1422-.0948.316-.2686s.2686-.3002.2686-.316v-.9006c0-.0474-.0158-.079-.0474-.0948l-3.9974-1.0744c-.8848-.237-1.3114-1.0586-1.3114-1.8328v-.8216c0-.4266.0474-.711.3318-1.106.237-.3318.7268-.8216 1.0428-1.0428.395-.2844.6794-.3318 1.106-.3318h2.212c.9796 0 1.7222.8058 2.0856 1.3272.2528.3634.4108.6794.5372 1.027l-1.8012.474c-.2212-.395-.474-.7584-.8058-.9796h-2.1962c-.0158 0-.1422.0948-.316.2686s-.2686.3002-.2686.316v.8058c0 .0632.0474.0948.0474.0948l4.0132 1.0902c.869.237 1.3114 1.0586 1.3114 1.8328v.9006c0 .4266-.0474.711-.3318 1.106-.237.3318-.7268.8216-1.0428 1.0428-.395.2844-.6794.3318-1.106.3318zm9.1702 0c-.4266 0-.711-.0474-1.106-.3318-.3318-.237-.8216-.7268-1.0428-1.0428-.2844-.395-.3318-.6794-.3318-1.106v-4.6768c0-.4266.0474-.711.3318-1.106.237-.3318.7268-.8216 1.0428-1.0428.395-.2844.6794-.3318 1.106-.3318h2.37c.4266 0 .711.0474 1.106.3318.3318.237.8216.7268 1.0428 1.0428.2844.395.3318.6794.3318 1.106v4.6768c0 .4266-.0474.711-.3318 1.106-.237.3318-.7268.8216-1.0428 1.0428-.395.2844-.6794.3318-1.106.3318zm-.553-2.4332c0 .0158.0948.1422.2686.316s.3002.2686.316.2686h2.3068c.0158 0 .1422-.0948.316-.2686s.2686-.3002.2686-.316v-4.7716c0-.0158-.0948-.1422-.2686-.316s-.3002-.2686-.316-.2686h-2.3068c-.0158 0-.1422.0948-.316.2686s-.2686.3002-.2686.316zm13.7048-5.2772h-4.2976v1.9434h4.0764v1.8486h-4.0764v3.8394h-1.9276v-9.48h6.2252zm8.5224-1.8486v1.8486h-2.5438v7.6314h-1.9434v-7.6314h-2.5596v-1.8486zm10.529 0h2.0224l-2.1804 9.48h-2.2278l-1.343-6.004-1.3904 6.004h-2.2278l-2.1804-9.48h2.0224l1.343 6.2884 1.4378-6.2884h1.9592l1.4378 6.2726zm8.7594 9.48-.6004-1.817h-3.3812l-.6004 1.817h-2.054l3.2864-9.48h2.133l3.2706 9.48zm-3.3654-3.6656h2.1488l-1.0744-3.2706zm12.03 3.6656-1.6906-3.6182h-1.5958v3.6182h-1.9276v-9.48h4.4714c.4266 0 .711.0474 1.106.3318.3318.237.8216.7268 1.0428 1.0428.2844.395.3318.6794.3318 1.106v.9006c0 .4266-.0474.711-.3318 1.106-.237.3318-.7268.8216-1.0428 1.0428-.0474.0316-.079.0632-.1264.079l1.896 3.871zm-3.2864-7.6314v2.1646h2.5122c.0158 0 .1422-.0948.316-.2686s.2686-.3002.2686-.316v-.9954c0-.0158-.0948-.1422-.2686-.316s-.3002-.2686-.316-.2686zm13.3098 0h-4.2976v1.9434h4.1554v1.8486h-4.1554v1.9908h4.2976v1.8486h-6.2252v-9.48h6.2252z"/></g></g></svg>