<?xml version="1.0" encoding="UTF-8"?>
<svg width="28px" height="28px" viewBox="0 0 28 28" version="1.1" xmlns="http://www.w3.org/2000/svg" xmlns:xlink="http://www.w3.org/1999/xlink">
    <!-- Generator: Sketch 52.3 (67297) - http://www.bohemiancoding.com/sketch -->
    <title>close</title>
    <desc>Created with Sketch.</desc>
    <g id="Other-Assets" stroke="none" stroke-width="1" fill="none" fill-rule="evenodd">
        <g id="close" transform="translate(13.748737, 13.748737) rotate(45.000000) translate(-13.748737, -13.748737) translate(-4.751263, -4.751263)" fill="#FFFFFF" fill-rule="nonzero">
            <path d="M1.89199359,16.0698659 L35.8093094,16.1222116 C36.3555553,16.1230546 36.8000528,16.5620743 36.8076689,17.1082678 L36.8463944,19.885486 C36.8540947,20.437717 36.4126653,20.8916311 35.8604342,20.8993314 C35.8560797,20.8993921 35.8517248,20.8994244 35.8473698,20.8994282 L1.92017789,20.929224 C1.371487,20.9297059 0.924886268,20.4879765 0.919350553,19.9393133 L0.890501158,17.0799537 C0.884929187,16.527697 1.32810468,16.0754876 1.88036132,16.0699156 C1.88423861,16.0698765 1.8881161,16.0698599 1.89199359,16.0698659 Z" id="Rectangle"></path>
            <path d="M1.93001072,16.112071 L35.8374585,16.0715092 C36.3897429,16.0708485 36.8379934,16.5180279 36.8386541,17.0703122 C36.8386593,17.0746755 36.8386359,17.0790388 36.838584,17.0834018 L36.8046599,19.9355808 C36.7981429,20.4834985 36.3518895,20.9241242 35.8039332,20.9236873 L1.89638912,20.8966497 C1.34410455,20.8962093 0.896746444,20.4481372 0.897186831,19.8958526 C0.897189866,19.8920461 0.897214636,19.8882397 0.897261138,19.8844335 L0.931281596,17.0998537 C0.937964699,16.5528407 1.38295726,16.1127254 1.93001072,16.112071 Z" id="Rectangle" transform="translate(18.867921, 18.497598) rotate(90.000000) translate(-18.867921, -18.497598) "></path>
        </g>
    </g>
</svg>