<?xml version="1.0" encoding="UTF-8"?>
<svg width="589px" height="562px" viewBox="0 0 589 562" version="1.1" xmlns="http://www.w3.org/2000/svg" xmlns:xlink="http://www.w3.org/1999/xlink">
    <!-- Generator: Sketch 52.4 (67378) - http://www.bohemiancoding.com/sketch -->
    <title>craft</title>
    <desc>Created with Sketch.</desc>
    <g id="craft" stroke="none" stroke-width="1" fill="none" fill-rule="evenodd">
        <path d="M471.290495,208.479134 C448.56162,197.904191 423.220309,192 396.5,192 C358.537432,192 323.358367,203.917594 294.500004,224.215584 C265.641637,203.917596 230.46257,192 192.5,192 C165.779691,192 140.43838,197.904191 117.709505,208.479134 C117.239868,203.215514 117,197.885769 117,192.5 C117,94.4694569 196.469457,15 294.5,15 C392.530543,15 472,94.4694569 472,192.5 C472,197.885769 471.760132,203.215514 471.290495,208.479134 Z" id="Combined-Shape" fill="#FDCF00" fill-rule="nonzero"></path>
        <circle id="Oval" stroke="#000000" stroke-width="30" fill-rule="nonzero" cx="192.5" cy="369.5" r="177.5"></circle>
        <circle id="Oval" stroke="#000000" stroke-width="30" fill-rule="nonzero" cx="396.5" cy="369.5" r="177.5"></circle>
        <circle id="Oval" stroke="#000000" stroke-width="30" fill-rule="nonzero" cx="294.5" cy="192.5" r="177.5"></circle>
    </g>
</svg>