<?xml version="1.0" encoding="UTF-8"?>
<svg width="449px" height="468px" viewBox="0 0 449 468" version="1.1" xmlns="http://www.w3.org/2000/svg" xmlns:xlink="http://www.w3.org/1999/xlink">
    <!-- Generator: Sketch 52.2 (67145) - http://www.bohemiancoding.com/sketch -->
    <title>Group 5 Copy</title>
    <desc>Created with Sketch.</desc>
    <g id="Mockup-V1" stroke="none" stroke-width="1" fill="none" fill-rule="evenodd" opacity="0.300837054">
        <g id="Artboard" transform="translate(-84.000000, -92.000000)" fill-rule="nonzero" stroke="#0E77D2">
            <g id="Group-5-Copy" transform="translate(47.000000, 56.000000)">
                <g id="Group-Copy-13" transform="translate(181.000000, 299.000000) rotate(30.000000) translate(-181.000000, -299.000000) translate(116.000000, 224.000000)">
                    <g id="Basic_equilateral_triangle" transform="translate(0.000000, 25.080386)">
                        <polygon id="Shape" points="28.7546468 0 0 49.6784566 57.5092937 49.6784566"></polygon>
                    </g>
                    <g id="Basic_equilateral_triangle-Copy-3" transform="translate(29.000000, 99.919614) scale(1, -1) translate(-29.000000, -99.919614) translate(0.000000, 74.919614)">
                        <polygon id="Shape" points="28.7546468 0 0 49.6784566 57.5092937 49.6784566"></polygon>
                    </g>
                    <g id="Basic_equilateral_triangle-Copy" transform="translate(64.983444, 37.672289) rotate(60.000000) translate(-64.983444, -37.672289) translate(35.983444, 12.672289)">
                        <polygon id="Shape" points="28.7546468 0 0 49.6784566 57.5092937 49.6784566"></polygon>
                    </g>
                    <g id="Basic_equilateral_triangle-Copy-4" transform="translate(64.983444, 112.327711) scale(1, -1) rotate(60.000000) translate(-64.983444, -112.327711) translate(35.983444, 87.327711)">
                        <polygon id="Shape" points="28.7546468 0 0 49.6784566 57.5092937 49.6784566"></polygon>
                    </g>
                    <g id="Basic_equilateral_triangle-Copy-2" transform="translate(93.734374, 62.591903) rotate(120.000000) translate(-93.734374, -62.591903) translate(64.734374, 37.591903)">
                        <polygon id="Shape" points="28.7546468 0 0 49.6784566 57.5092937 49.6784566"></polygon>
                    </g>
                    <g id="Basic_equilateral_triangle-Copy-5" transform="translate(93.734374, 87.408097) scale(1, -1) rotate(120.000000) translate(-93.734374, -87.408097) translate(64.734374, 62.408097)">
                        <polygon id="Shape" points="28.7546468 0 0 49.6784566 57.5092937 49.6784566"></polygon>
                    </g>
                </g>
                <g id="Group-Copy-14" transform="translate(268.000000, 248.000000) rotate(30.000000) translate(-268.000000, -248.000000) translate(203.000000, 173.000000)">
                    <g id="Basic_equilateral_triangle" transform="translate(0.000000, 25.080386)">
                        <polygon id="Shape" points="28.7546468 0 0 49.6784566 57.5092937 49.6784566"></polygon>
                    </g>
                    <g id="Basic_equilateral_triangle-Copy-3" transform="translate(29.000000, 99.919614) scale(1, -1) translate(-29.000000, -99.919614) translate(0.000000, 74.919614)">
                        <polygon id="Shape" points="28.7546468 0 0 49.6784566 57.5092937 49.6784566"></polygon>
                    </g>
                    <g id="Basic_equilateral_triangle-Copy" transform="translate(64.983444, 37.672289) rotate(60.000000) translate(-64.983444, -37.672289) translate(35.983444, 12.672289)">
                        <polygon id="Shape" points="28.7546468 0 0 49.6784566 57.5092937 49.6784566"></polygon>
                    </g>
                    <g id="Basic_equilateral_triangle-Copy-4" transform="translate(64.983444, 112.327711) scale(1, -1) rotate(60.000000) translate(-64.983444, -112.327711) translate(35.983444, 87.327711)">
                        <polygon id="Shape" points="28.7546468 0 0 49.6784566 57.5092937 49.6784566"></polygon>
                    </g>
                    <g id="Basic_equilateral_triangle-Copy-2" transform="translate(93.734374, 62.591903) rotate(120.000000) translate(-93.734374, -62.591903) translate(64.734374, 37.591903)">
                        <polygon id="Shape" points="28.7546468 0 0 49.6784566 57.5092937 49.6784566"></polygon>
                    </g>
                    <g id="Basic_equilateral_triangle-Copy-5" transform="translate(93.734374, 87.408097) scale(1, -1) rotate(120.000000) translate(-93.734374, -87.408097) translate(64.734374, 62.408097)">
                        <polygon id="Shape" points="28.7546468 0 0 49.6784566 57.5092937 49.6784566"></polygon>
                    </g>
                </g>
                <g id="Group-Copy-15" transform="translate(268.000000, 348.000000) rotate(30.000000) translate(-268.000000, -348.000000) translate(203.000000, 273.000000)">
                    <g id="Basic_equilateral_triangle" transform="translate(0.000000, 25.080386)">
                        <polygon id="Shape" points="28.7546468 0 0 49.6784566 57.5092937 49.6784566"></polygon>
                    </g>
                    <g id="Basic_equilateral_triangle-Copy-3" transform="translate(29.000000, 99.919614) scale(1, -1) translate(-29.000000, -99.919614) translate(0.000000, 74.919614)">
                        <polygon id="Shape" points="28.7546468 0 0 49.6784566 57.5092937 49.6784566"></polygon>
                    </g>
                    <g id="Basic_equilateral_triangle-Copy" transform="translate(64.983444, 37.672289) rotate(60.000000) translate(-64.983444, -37.672289) translate(35.983444, 12.672289)">
                        <polygon id="Shape" points="28.7546468 0 0 49.6784566 57.5092937 49.6784566"></polygon>
                    </g>
                    <g id="Basic_equilateral_triangle-Copy-4" transform="translate(64.983444, 112.327711) scale(1, -1) rotate(60.000000) translate(-64.983444, -112.327711) translate(35.983444, 87.327711)">
                        <polygon id="Shape" points="28.7546468 0 0 49.6784566 57.5092937 49.6784566"></polygon>
                    </g>
                    <g id="Basic_equilateral_triangle-Copy-2" transform="translate(93.734374, 62.591903) rotate(120.000000) translate(-93.734374, -62.591903) translate(64.734374, 37.591903)">
                        <polygon id="Shape" points="28.7546468 0 0 49.6784566 57.5092937 49.6784566"></polygon>
                    </g>
                    <g id="Basic_equilateral_triangle-Copy-5" transform="translate(93.734374, 87.408097) scale(1, -1) rotate(120.000000) translate(-93.734374, -87.408097) translate(64.734374, 62.408097)">
                        <polygon id="Shape" points="28.7546468 0 0 49.6784566 57.5092937 49.6784566"></polygon>
                    </g>
                </g>
                <g id="Group-Copy-16" transform="translate(354.000000, 299.000000) rotate(30.000000) translate(-354.000000, -299.000000) translate(289.000000, 224.000000)">
                    <g id="Basic_equilateral_triangle" transform="translate(0.000000, 25.080386)">
                        <polygon id="Shape" points="28.7546468 0 0 49.6784566 57.5092937 49.6784566"></polygon>
                    </g>
                    <g id="Basic_equilateral_triangle-Copy-3" transform="translate(29.000000, 99.919614) scale(1, -1) translate(-29.000000, -99.919614) translate(0.000000, 74.919614)">
                        <polygon id="Shape" points="28.7546468 0 0 49.6784566 57.5092937 49.6784566"></polygon>
                    </g>
                    <g id="Basic_equilateral_triangle-Copy" transform="translate(64.983444, 37.672289) rotate(60.000000) translate(-64.983444, -37.672289) translate(35.983444, 12.672289)">
                        <polygon id="Shape" points="28.7546468 0 0 49.6784566 57.5092937 49.6784566"></polygon>
                    </g>
                    <g id="Basic_equilateral_triangle-Copy-4" transform="translate(64.983444, 112.327711) scale(1, -1) rotate(60.000000) translate(-64.983444, -112.327711) translate(35.983444, 87.327711)">
                        <polygon id="Shape" points="28.7546468 0 0 49.6784566 57.5092937 49.6784566"></polygon>
                    </g>
                    <g id="Basic_equilateral_triangle-Copy-2" transform="translate(93.734374, 62.591903) rotate(120.000000) translate(-93.734374, -62.591903) translate(64.734374, 37.591903)">
                        <polygon id="Shape" points="28.7546468 0 0 49.6784566 57.5092937 49.6784566"></polygon>
                    </g>
                    <g id="Basic_equilateral_triangle-Copy-5" transform="translate(93.734374, 87.408097) scale(1, -1) rotate(120.000000) translate(-93.734374, -87.408097) translate(64.734374, 62.408097)">
                        <polygon id="Shape" points="28.7546468 0 0 49.6784566 57.5092937 49.6784566"></polygon>
                    </g>
                </g>
                <g id="Group-Copy-17" transform="translate(354.000000, 398.000000) rotate(30.000000) translate(-354.000000, -398.000000) translate(289.000000, 323.000000)">
                    <g id="Basic_equilateral_triangle" transform="translate(0.000000, 25.080386)">
                        <polygon id="Shape" points="28.7546468 0 0 49.6784566 57.5092937 49.6784566"></polygon>
                    </g>
                    <g id="Basic_equilateral_triangle-Copy-3" transform="translate(29.000000, 99.919614) scale(1, -1) translate(-29.000000, -99.919614) translate(0.000000, 74.919614)">
                        <polygon id="Shape" points="28.7546468 0 0 49.6784566 57.5092937 49.6784566"></polygon>
                    </g>
                    <g id="Basic_equilateral_triangle-Copy" transform="translate(64.983444, 37.672289) rotate(60.000000) translate(-64.983444, -37.672289) translate(35.983444, 12.672289)">
                        <polygon id="Shape" points="28.7546468 0 0 49.6784566 57.5092937 49.6784566"></polygon>
                    </g>
                    <g id="Basic_equilateral_triangle-Copy-4" transform="translate(64.983444, 112.327711) scale(1, -1) rotate(60.000000) translate(-64.983444, -112.327711) translate(35.983444, 87.327711)">
                        <polygon id="Shape" points="28.7546468 0 0 49.6784566 57.5092937 49.6784566"></polygon>
                    </g>
                    <g id="Basic_equilateral_triangle-Copy-2" transform="translate(93.734374, 62.591903) rotate(120.000000) translate(-93.734374, -62.591903) translate(64.734374, 37.591903)">
                        <polygon id="Shape" points="28.7546468 0 0 49.6784566 57.5092937 49.6784566"></polygon>
                    </g>
                    <g id="Basic_equilateral_triangle-Copy-5" transform="translate(93.734374, 87.408097) scale(1, -1) rotate(120.000000) translate(-93.734374, -87.408097) translate(64.734374, 62.408097)">
                        <polygon id="Shape" points="28.7546468 0 0 49.6784566 57.5092937 49.6784566"></polygon>
                    </g>
                </g>
                <g id="Group-Copy-18" transform="translate(268.000000, 149.000000) rotate(30.000000) translate(-268.000000, -149.000000) translate(203.000000, 74.000000)">
                    <g id="Basic_equilateral_triangle" transform="translate(0.000000, 25.080386)">
                        <polygon id="Shape" points="28.7546468 0 0 49.6784566 57.5092937 49.6784566"></polygon>
                    </g>
                    <g id="Basic_equilateral_triangle-Copy-3" transform="translate(29.000000, 99.919614) scale(1, -1) translate(-29.000000, -99.919614) translate(0.000000, 74.919614)">
                        <polygon id="Shape" points="28.7546468 0 0 49.6784566 57.5092937 49.6784566"></polygon>
                    </g>
                    <g id="Basic_equilateral_triangle-Copy" transform="translate(64.983444, 37.672289) rotate(60.000000) translate(-64.983444, -37.672289) translate(35.983444, 12.672289)">
                        <polygon id="Shape" points="28.7546468 0 0 49.6784566 57.5092937 49.6784566"></polygon>
                    </g>
                    <g id="Basic_equilateral_triangle-Copy-4" transform="translate(64.983444, 112.327711) scale(1, -1) rotate(60.000000) translate(-64.983444, -112.327711) translate(35.983444, 87.327711)">
                        <polygon id="Shape" points="28.7546468 0 0 49.6784566 57.5092937 49.6784566"></polygon>
                    </g>
                    <g id="Basic_equilateral_triangle-Copy-2" transform="translate(93.734374, 62.591903) rotate(120.000000) translate(-93.734374, -62.591903) translate(64.734374, 37.591903)">
                        <polygon id="Shape" points="28.7546468 0 0 49.6784566 57.5092937 49.6784566"></polygon>
                    </g>
                    <g id="Basic_equilateral_triangle-Copy-5" transform="translate(93.734374, 87.408097) scale(1, -1) rotate(120.000000) translate(-93.734374, -87.408097) translate(64.734374, 62.408097)">
                        <polygon id="Shape" points="28.7546468 0 0 49.6784566 57.5092937 49.6784566"></polygon>
                    </g>
                </g>
                <g id="Group-Copy-19" transform="translate(181.000000, 398.000000) rotate(30.000000) translate(-181.000000, -398.000000) translate(116.000000, 323.000000)">
                    <g id="Basic_equilateral_triangle" transform="translate(0.000000, 25.080386)">
                        <polygon id="Shape" points="28.7546468 0 0 49.6784566 57.5092937 49.6784566"></polygon>
                    </g>
                    <g id="Basic_equilateral_triangle-Copy-3" transform="translate(29.000000, 99.919614) scale(1, -1) translate(-29.000000, -99.919614) translate(0.000000, 74.919614)">
                        <polygon id="Shape" points="28.7546468 0 0 49.6784566 57.5092937 49.6784566"></polygon>
                    </g>
                    <g id="Basic_equilateral_triangle-Copy" transform="translate(64.983444, 37.672289) rotate(60.000000) translate(-64.983444, -37.672289) translate(35.983444, 12.672289)">
                        <polygon id="Shape" points="28.7546468 0 0 49.6784566 57.5092937 49.6784566"></polygon>
                    </g>
                    <g id="Basic_equilateral_triangle-Copy-4" transform="translate(64.983444, 112.327711) scale(1, -1) rotate(60.000000) translate(-64.983444, -112.327711) translate(35.983444, 87.327711)">
                        <polygon id="Shape" points="28.7546468 0 0 49.6784566 57.5092937 49.6784566"></polygon>
                    </g>
                    <g id="Basic_equilateral_triangle-Copy-2" transform="translate(93.734374, 62.591903) rotate(120.000000) translate(-93.734374, -62.591903) translate(64.734374, 37.591903)">
                        <polygon id="Shape" points="28.7546468 0 0 49.6784566 57.5092937 49.6784566"></polygon>
                    </g>
                    <g id="Basic_equilateral_triangle-Copy-5" transform="translate(93.734374, 87.408097) scale(1, -1) rotate(120.000000) translate(-93.734374, -87.408097) translate(64.734374, 62.408097)">
                        <polygon id="Shape" points="28.7546468 0 0 49.6784566 57.5092937 49.6784566"></polygon>
                    </g>
                </g>
                <g id="Group-Copy-20" transform="translate(268.000000, 449.000000) rotate(30.000000) translate(-268.000000, -449.000000) translate(203.000000, 374.000000)">
                    <g id="Basic_equilateral_triangle" transform="translate(0.000000, 25.080386)">
                        <polygon id="Shape" points="28.7546468 0 0 49.6784566 57.5092937 49.6784566"></polygon>
                    </g>
                    <g id="Basic_equilateral_triangle-Copy-3" transform="translate(29.000000, 99.919614) scale(1, -1) translate(-29.000000, -99.919614) translate(0.000000, 74.919614)">
                        <polygon id="Shape" points="28.7546468 0 0 49.6784566 57.5092937 49.6784566"></polygon>
                    </g>
                    <g id="Basic_equilateral_triangle-Copy" transform="translate(64.983444, 37.672289) rotate(60.000000) translate(-64.983444, -37.672289) translate(35.983444, 12.672289)">
                        <polygon id="Shape" points="28.7546468 0 0 49.6784566 57.5092937 49.6784566"></polygon>
                    </g>
                    <g id="Basic_equilateral_triangle-Copy-4" transform="translate(64.983444, 112.327711) scale(1, -1) rotate(60.000000) translate(-64.983444, -112.327711) translate(35.983444, 87.327711)">
                        <polygon id="Shape" points="28.7546468 0 0 49.6784566 57.5092937 49.6784566"></polygon>
                    </g>
                    <g id="Basic_equilateral_triangle-Copy-2" transform="translate(93.734374, 62.591903) rotate(120.000000) translate(-93.734374, -62.591903) translate(64.734374, 37.591903)">
                        <polygon id="Shape" points="28.7546468 0 0 49.6784566 57.5092937 49.6784566"></polygon>
                    </g>
                    <g id="Basic_equilateral_triangle-Copy-5" transform="translate(93.734374, 87.408097) scale(1, -1) rotate(120.000000) translate(-93.734374, -87.408097) translate(64.734374, 62.408097)">
                        <polygon id="Shape" points="28.7546468 0 0 49.6784566 57.5092937 49.6784566"></polygon>
                    </g>
                </g>
                <g id="Group-Copy-21" transform="translate(354.000000, 98.000000) rotate(30.000000) translate(-354.000000, -98.000000) translate(289.000000, 23.000000)">
                    <g id="Basic_equilateral_triangle" transform="translate(0.000000, 25.080386)">
                        <polygon id="Shape" points="28.7546468 0 0 49.6784566 57.5092937 49.6784566"></polygon>
                    </g>
                    <g id="Basic_equilateral_triangle-Copy-3" transform="translate(29.000000, 99.919614) scale(1, -1) translate(-29.000000, -99.919614) translate(0.000000, 74.919614)">
                        <polygon id="Shape" points="28.7546468 0 0 49.6784566 57.5092937 49.6784566"></polygon>
                    </g>
                    <g id="Basic_equilateral_triangle-Copy" transform="translate(64.983444, 37.672289) rotate(60.000000) translate(-64.983444, -37.672289) translate(35.983444, 12.672289)">
                        <polygon id="Shape" points="28.7546468 0 0 49.6784566 57.5092937 49.6784566"></polygon>
                    </g>
                    <g id="Basic_equilateral_triangle-Copy-4" transform="translate(64.983444, 112.327711) scale(1, -1) rotate(60.000000) translate(-64.983444, -112.327711) translate(35.983444, 87.327711)">
                        <polygon id="Shape" points="28.7546468 0 0 49.6784566 57.5092937 49.6784566"></polygon>
                    </g>
                    <g id="Basic_equilateral_triangle-Copy-2" transform="translate(93.734374, 62.591903) rotate(120.000000) translate(-93.734374, -62.591903) translate(64.734374, 37.591903)">
                        <polygon id="Shape" points="28.7546468 0 0 49.6784566 57.5092937 49.6784566"></polygon>
                    </g>
                    <g id="Basic_equilateral_triangle-Copy-5" transform="translate(93.734374, 87.408097) scale(1, -1) rotate(120.000000) translate(-93.734374, -87.408097) translate(64.734374, 62.408097)">
                        <polygon id="Shape" points="28.7546468 0 0 49.6784566 57.5092937 49.6784566"></polygon>
                    </g>
                </g>
                <g id="Group-Copy-22" transform="translate(441.000000, 248.000000) rotate(30.000000) translate(-441.000000, -248.000000) translate(376.000000, 173.000000)">
                    <g id="Basic_equilateral_triangle" transform="translate(0.000000, 25.080386)">
                        <polygon id="Shape" points="28.7546468 0 0 49.6784566 57.5092937 49.6784566"></polygon>
                    </g>
                    <g id="Basic_equilateral_triangle-Copy-3" transform="translate(29.000000, 99.919614) scale(1, -1) translate(-29.000000, -99.919614) translate(0.000000, 74.919614)">
                        <polygon id="Shape" points="28.7546468 0 0 49.6784566 57.5092937 49.6784566"></polygon>
                    </g>
                    <g id="Basic_equilateral_triangle-Copy" transform="translate(64.983444, 37.672289) rotate(60.000000) translate(-64.983444, -37.672289) translate(35.983444, 12.672289)">
                        <polygon id="Shape" points="28.7546468 0 0 49.6784566 57.5092937 49.6784566"></polygon>
                    </g>
                    <g id="Basic_equilateral_triangle-Copy-4" transform="translate(64.983444, 112.327711) scale(1, -1) rotate(60.000000) translate(-64.983444, -112.327711) translate(35.983444, 87.327711)">
                        <polygon id="Shape" points="28.7546468 0 0 49.6784566 57.5092937 49.6784566"></polygon>
                    </g>
                    <g id="Basic_equilateral_triangle-Copy-2" transform="translate(93.734374, 62.591903) rotate(120.000000) translate(-93.734374, -62.591903) translate(64.734374, 37.591903)">
                        <polygon id="Shape" points="28.7546468 0 0 49.6784566 57.5092937 49.6784566"></polygon>
                    </g>
                    <g id="Basic_equilateral_triangle-Copy-5" transform="translate(93.734374, 87.408097) scale(1, -1) rotate(120.000000) translate(-93.734374, -87.408097) translate(64.734374, 62.408097)">
                        <polygon id="Shape" points="28.7546468 0 0 49.6784566 57.5092937 49.6784566"></polygon>
                    </g>
                </g>
                <g id="Group-Copy-23" transform="translate(94.000000, 248.000000) rotate(30.000000) translate(-94.000000, -248.000000) translate(29.000000, 173.000000)">
                    <g id="Basic_equilateral_triangle" transform="translate(0.000000, 25.080386)">
                        <polygon id="Shape" points="28.7546468 0 0 49.6784566 57.5092937 49.6784566"></polygon>
                    </g>
                    <g id="Basic_equilateral_triangle-Copy-3" transform="translate(29.000000, 99.919614) scale(1, -1) translate(-29.000000, -99.919614) translate(0.000000, 74.919614)">
                        <polygon id="Shape" points="28.7546468 0 0 49.6784566 57.5092937 49.6784566"></polygon>
                    </g>
                    <g id="Basic_equilateral_triangle-Copy" transform="translate(64.983444, 37.672289) rotate(60.000000) translate(-64.983444, -37.672289) translate(35.983444, 12.672289)">
                        <polygon id="Shape" points="28.7546468 0 0 49.6784566 57.5092937 49.6784566"></polygon>
                    </g>
                    <g id="Basic_equilateral_triangle-Copy-4" transform="translate(64.983444, 112.327711) scale(1, -1) rotate(60.000000) translate(-64.983444, -112.327711) translate(35.983444, 87.327711)">
                        <polygon id="Shape" points="28.7546468 0 0 49.6784566 57.5092937 49.6784566"></polygon>
                    </g>
                    <g id="Basic_equilateral_triangle-Copy-2" transform="translate(93.734374, 62.591903) rotate(120.000000) translate(-93.734374, -62.591903) translate(64.734374, 37.591903)">
                        <polygon id="Shape" points="28.7546468 0 0 49.6784566 57.5092937 49.6784566"></polygon>
                    </g>
                    <g id="Basic_equilateral_triangle-Copy-5" transform="translate(93.734374, 87.408097) scale(1, -1) rotate(120.000000) translate(-93.734374, -87.408097) translate(64.734374, 62.408097)">
                        <polygon id="Shape" points="28.7546468 0 0 49.6784566 57.5092937 49.6784566"></polygon>
                    </g>
                </g>
                <g id="Group-Copy-24" transform="translate(181.000000, 198.000000) rotate(30.000000) translate(-181.000000, -198.000000) translate(116.000000, 123.000000)">
                    <g id="Basic_equilateral_triangle" transform="translate(0.000000, 25.080386)">
                        <polygon id="Shape" points="28.7546468 0 0 49.6784566 57.5092937 49.6784566"></polygon>
                    </g>
                    <g id="Basic_equilateral_triangle-Copy-3" transform="translate(29.000000, 99.919614) scale(1, -1) translate(-29.000000, -99.919614) translate(0.000000, 74.919614)">
                        <polygon id="Shape" points="28.7546468 0 0 49.6784566 57.5092937 49.6784566"></polygon>
                    </g>
                    <g id="Basic_equilateral_triangle-Copy" transform="translate(64.983444, 37.672289) rotate(60.000000) translate(-64.983444, -37.672289) translate(35.983444, 12.672289)">
                        <polygon id="Shape" points="28.7546468 0 0 49.6784566 57.5092937 49.6784566"></polygon>
                    </g>
                    <g id="Basic_equilateral_triangle-Copy-4" transform="translate(64.983444, 112.327711) scale(1, -1) rotate(60.000000) translate(-64.983444, -112.327711) translate(35.983444, 87.327711)">
                        <polygon id="Shape" points="28.7546468 0 0 49.6784566 57.5092937 49.6784566"></polygon>
                    </g>
                    <g id="Basic_equilateral_triangle-Copy-2" transform="translate(93.734374, 62.591903) rotate(120.000000) translate(-93.734374, -62.591903) translate(64.734374, 37.591903)">
                        <polygon id="Shape" points="28.7546468 0 0 49.6784566 57.5092937 49.6784566"></polygon>
                    </g>
                    <g id="Basic_equilateral_triangle-Copy-5" transform="translate(93.734374, 87.408097) scale(1, -1) rotate(120.000000) translate(-93.734374, -87.408097) translate(64.734374, 62.408097)">
                        <polygon id="Shape" points="28.7546468 0 0 49.6784566 57.5092937 49.6784566"></polygon>
                    </g>
                </g>
                <g id="Group-Copy-25" transform="translate(354.000000, 198.000000) rotate(30.000000) translate(-354.000000, -198.000000) translate(289.000000, 123.000000)">
                    <g id="Basic_equilateral_triangle" transform="translate(0.000000, 25.080386)">
                        <polygon id="Shape" points="28.7546468 0 0 49.6784566 57.5092937 49.6784566"></polygon>
                    </g>
                    <g id="Basic_equilateral_triangle-Copy-3" transform="translate(29.000000, 99.919614) scale(1, -1) translate(-29.000000, -99.919614) translate(0.000000, 74.919614)">
                        <polygon id="Shape" points="28.7546468 0 0 49.6784566 57.5092937 49.6784566"></polygon>
                    </g>
                    <g id="Basic_equilateral_triangle-Copy" transform="translate(64.983444, 37.672289) rotate(60.000000) translate(-64.983444, -37.672289) translate(35.983444, 12.672289)">
                        <polygon id="Shape" points="28.7546468 0 0 49.6784566 57.5092937 49.6784566"></polygon>
                    </g>
                    <g id="Basic_equilateral_triangle-Copy-4" transform="translate(64.983444, 112.327711) scale(1, -1) rotate(60.000000) translate(-64.983444, -112.327711) translate(35.983444, 87.327711)">
                        <polygon id="Shape" points="28.7546468 0 0 49.6784566 57.5092937 49.6784566"></polygon>
                    </g>
                    <g id="Basic_equilateral_triangle-Copy-2" transform="translate(93.734374, 62.591903) rotate(120.000000) translate(-93.734374, -62.591903) translate(64.734374, 37.591903)">
                        <polygon id="Shape" points="28.7546468 0 0 49.6784566 57.5092937 49.6784566"></polygon>
                    </g>
                    <g id="Basic_equilateral_triangle-Copy-5" transform="translate(93.734374, 87.408097) scale(1, -1) rotate(120.000000) translate(-93.734374, -87.408097) translate(64.734374, 62.408097)">
                        <polygon id="Shape" points="28.7546468 0 0 49.6784566 57.5092937 49.6784566"></polygon>
                    </g>
                </g>
            </g>
        </g>
    </g>
</svg>