<?xml version="1.0" encoding="UTF-8"?>
<svg width="814px" height="162px" viewBox="0 0 814 162" version="1.1" xmlns="http://www.w3.org/2000/svg" xmlns:xlink="http://www.w3.org/1999/xlink">
    <!-- Generator: Sketch 52.5 (67469) - http://www.bohemiancoding.com/sketch -->
    <title>mini-logo</title>
    <desc>Created with Sketch.</desc>
    <defs>
        <path d="M294.64,63.92 L260.168,63.92 L260.168,86.364 L292.284,86.364 L292.284,96.036 L260.168,96.036 L260.168,118.48 L294.64,118.48 L294.64,128.152 L250,128.152 L250,54.124 L294.64,54.124 L294.64,63.92 Z M352.92,82.396 C354.408,84.628 355.028,87.108 355.028,89.712 L355.028,128.152 L345.356,128.152 L345.356,89.836 C345.356,88.348 344.736,87.356 343,85.62 C341.264,83.76 340.272,83.264 338.784,83.264 L329.732,83.264 C326.88,83.264 322.416,87.604 320.68,89.836 L320.68,128.152 L311.008,128.152 L311.008,84.628 L309.892,74.708 L319.316,74.708 L320.184,79.048 C322.416,77.188 326.136,74.088 329.36,74.088 L339.404,74.088 C342.008,74.088 344.488,74.708 346.72,76.196 C348.332,77.312 351.804,80.784 352.92,82.396 Z M386.152,148.736 C379.208,148.736 374,142.908 370.776,137.204 L379.828,134.352 C381.44,136.708 383.672,139.56 385.78,139.56 L398.056,139.56 C399.544,139.56 400.536,138.94 402.272,137.204 C404.132,135.468 404.628,134.476 404.628,132.988 L404.628,123.688 C402.272,126.044 398.8,128.772 395.576,128.772 L385.036,128.772 C382.432,128.772 379.952,128.152 377.72,126.664 C376.108,125.548 372.636,122.076 371.52,120.464 C370.032,118.232 369.412,115.752 369.412,113.148 L369.412,89.712 C369.412,87.108 370.032,84.628 371.52,82.396 C372.636,80.784 376.108,77.312 377.72,76.196 C379.952,74.708 382.432,74.088 385.036,74.088 L395.7,74.088 C399.172,74.088 402.272,76.816 405,79.172 L405.62,74.708 L415.168,74.708 L414.3,84.628 L414.3,133.112 C414.3,135.716 413.68,138.196 412.192,140.428 C411.076,142.04 407.604,145.512 405.992,146.628 C403.76,148.116 401.28,148.736 398.676,148.736 L386.152,148.736 Z M379.084,113.024 C379.084,114.512 379.704,115.504 381.44,117.24 C383.176,119.1 384.168,119.596 385.656,119.596 L395.452,119.596 C397.312,119.596 403.016,114.884 404.628,112.528 L404.628,90.084 C403.264,87.976 397.436,83.264 395.328,83.264 L385.656,83.264 C384.168,83.264 383.176,83.884 381.44,85.62 C379.58,87.356 379.084,88.348 379.084,89.836 L379.084,113.024 Z M429.304,65.408 L429.304,54 L440.34,54 L440.34,65.408 L429.304,65.408 Z M430.048,128.152 L430.048,74.708 L439.72,74.708 L439.72,128.152 L430.048,128.152 Z M497.752,82.396 C499.24,84.628 499.86,87.108 499.86,89.712 L499.86,128.152 L490.188,128.152 L490.188,89.836 C490.188,88.348 489.568,87.356 487.832,85.62 C486.096,83.76 485.104,83.264 483.616,83.264 L474.564,83.264 C471.712,83.264 467.248,87.604 465.512,89.836 L465.512,128.152 L455.84,128.152 L455.84,84.628 L454.724,74.708 L464.148,74.708 L465.016,79.048 C467.248,77.188 470.968,74.088 474.192,74.088 L484.236,74.088 C486.84,74.088 489.32,74.708 491.552,76.196 C493.164,77.312 496.636,80.784 497.752,82.396 Z M559.132,106.08 L523.916,106.08 L523.916,113.024 C523.916,114.512 524.536,115.504 526.272,117.24 C528.008,119.1 529,119.596 530.488,119.596 L543.756,119.596 C545.988,119.596 548.22,116.248 549.832,114.016 L558.884,116.868 C555.66,122.696 550.576,128.772 543.508,128.772 L529.868,128.772 C527.264,128.772 524.784,128.152 522.552,126.664 C520.94,125.548 517.468,122.076 516.352,120.464 C514.864,118.232 514.244,115.752 514.244,113.148 L514.244,89.712 C514.244,87.108 514.864,84.628 516.352,82.396 C517.468,80.784 520.94,77.312 522.552,76.196 C524.784,74.708 527.264,74.088 529.868,74.088 L543.508,74.088 C546.112,74.088 548.592,74.708 550.824,76.196 C552.436,77.312 555.908,80.784 557.024,82.396 C558.512,84.628 559.132,87.108 559.132,89.712 L559.132,106.08 Z M526.272,85.62 C524.412,87.356 523.916,88.348 523.916,89.836 L523.916,97.276 L549.46,97.276 L549.46,89.836 C549.46,88.348 548.84,87.356 547.104,85.62 C545.368,83.76 544.376,83.264 542.888,83.264 L530.488,83.264 C529,83.264 528.008,83.884 526.272,85.62 Z M617.412,106.08 L582.196,106.08 L582.196,113.024 C582.196,114.512 582.816,115.504 584.552,117.24 C586.288,119.1 587.28,119.596 588.768,119.596 L602.036,119.596 C604.268,119.596 606.5,116.248 608.112,114.016 L617.164,116.868 C613.94,122.696 608.856,128.772 601.788,128.772 L588.148,128.772 C585.544,128.772 583.064,128.152 580.832,126.664 C579.22,125.548 575.748,122.076 574.632,120.464 C573.144,118.232 572.524,115.752 572.524,113.148 L572.524,89.712 C572.524,87.108 573.144,84.628 574.632,82.396 C575.748,80.784 579.22,77.312 580.832,76.196 C583.064,74.708 585.544,74.088 588.148,74.088 L601.788,74.088 C604.392,74.088 606.872,74.708 609.104,76.196 C610.716,77.312 614.188,80.784 615.304,82.396 C616.792,84.628 617.412,87.108 617.412,89.712 L617.412,106.08 Z M584.552,85.62 C582.692,87.356 582.196,88.348 582.196,89.836 L582.196,97.276 L607.74,97.276 L607.74,89.836 C607.74,88.348 607.12,87.356 605.384,85.62 C603.648,83.76 602.656,83.264 601.168,83.264 L588.768,83.264 C587.28,83.264 586.288,83.884 584.552,85.62 Z M632.292,128.152 L632.292,84.628 L631.176,74.708 L640.476,74.708 L641.344,79.172 C643.452,77.312 647.172,74.088 650.644,74.088 L658.58,74.088 C665.524,74.088 670.732,80.164 673.832,85.868 L664.78,88.72 C662.92,86.24 660.936,83.264 658.704,83.264 L651.016,83.264 C648.04,83.264 643.204,87.728 641.964,89.836 L641.964,128.152 L632.292,128.152 Z M682.76,65.408 L682.76,54 L693.796,54 L693.796,65.408 L682.76,65.408 Z M683.504,128.152 L683.504,74.708 L693.176,74.708 L693.176,128.152 L683.504,128.152 Z M751.208,82.396 C752.696,84.628 753.316,87.108 753.316,89.712 L753.316,128.152 L743.644,128.152 L743.644,89.836 C743.644,88.348 743.024,87.356 741.288,85.62 C739.552,83.76 738.56,83.264 737.072,83.264 L728.02,83.264 C725.168,83.264 720.704,87.604 718.968,89.836 L718.968,128.152 L709.296,128.152 L709.296,84.628 L708.18,74.708 L717.604,74.708 L718.472,79.048 C720.704,77.188 724.424,74.088 727.648,74.088 L737.692,74.088 C740.296,74.088 742.776,74.708 745.008,76.196 C746.62,77.312 750.092,80.784 751.208,82.396 Z M784.44,148.736 C777.496,148.736 772.288,142.908 769.064,137.204 L778.116,134.352 C779.728,136.708 781.96,139.56 784.068,139.56 L796.344,139.56 C797.832,139.56 798.824,138.94 800.56,137.204 C802.42,135.468 802.916,134.476 802.916,132.988 L802.916,123.688 C800.56,126.044 797.088,128.772 793.864,128.772 L783.324,128.772 C780.72,128.772 778.24,128.152 776.008,126.664 C774.396,125.548 770.924,122.076 769.808,120.464 C768.32,118.232 767.7,115.752 767.7,113.148 L767.7,89.712 C767.7,87.108 768.32,84.628 769.808,82.396 C770.924,80.784 774.396,77.312 776.008,76.196 C778.24,74.708 780.72,74.088 783.324,74.088 L793.988,74.088 C797.46,74.088 800.56,76.816 803.288,79.172 L803.908,74.708 L813.456,74.708 L812.588,84.628 L812.588,133.112 C812.588,135.716 811.968,138.196 810.48,140.428 C809.364,142.04 805.892,145.512 804.28,146.628 C802.048,148.116 799.568,148.736 796.964,148.736 L784.44,148.736 Z M777.372,113.024 C777.372,114.512 777.992,115.504 779.728,117.24 C781.464,119.1 782.456,119.596 783.944,119.596 L793.74,119.596 C795.6,119.596 801.304,114.884 802.916,112.528 L802.916,90.084 C801.552,87.976 795.724,83.264 793.616,83.264 L783.944,83.264 C782.456,83.264 781.464,83.884 779.728,85.62 C777.868,87.356 777.372,88.348 777.372,89.836 L777.372,113.024 Z" id="path-1"></path>
    </defs>
    <g id="Other-Assets" stroke="none" stroke-width="1" fill="none" fill-rule="evenodd">
        <g id="mini-logo">
            <g id="Nulogy_Full_Color" fill="#F0B41C" fill-rule="nonzero">
                <path d="M160.3666,5.88835132 L190.062992,17.665054 L190.062992,123.70562 C190.062992,146.475252 161.69387,150.474507 142.544711,153.157425 C153.49722,150.474507 160.427391,147.459992 160.3666,123.70562 L160.3666,29.451805 L130.670206,17.665054 L160.3666,5.88835132 Z M35.6336449,147.269073 L35.6336449,82.4871604 C35.6336449,75.9657611 40.5678459,68.5902493 46.5557572,66.048009 L77.2146737,52.9851135 L77.2146737,94.1834759 L106.911066,111.938965 C112.898978,114.95348 124.732955,115.023818 124.732955,106.040566 L124.732955,88.3654633 L112.838187,82.4670636 L112.838187,0 L22.2900252,33.0893189 C9.9798522,37.5809453 0,51.7391143 0,64.8020097 L0,162 L35.6336449,147.269073 Z" id="Shape"></path>
            </g>
            <g id="Engineering">
                <use fill="#000000" xlink:href="#path-1"></use>
                <use fill="#FFFFFF" xlink:href="#path-1"></use>
            </g>
        </g>
    </g>
</svg>