<?xml version="1.0" encoding="UTF-8"?>
<svg width="589px" height="562px" viewBox="0 0 589 562" version="1.1" xmlns="http://www.w3.org/2000/svg" xmlns:xlink="http://www.w3.org/1999/xlink">
    <!-- Generator: Sketch 52.4 (67378) - http://www.bohemiancoding.com/sketch -->
    <title>practices</title>
    <desc>Created with Sketch.</desc>
    <g id="practices" stroke="none" stroke-width="1" fill="none" fill-rule="evenodd">
        <path d="M395.725728,356.717544 C352.224926,387.580858 322.528751,436.62429 317.711316,492.773726 C258.612841,465.453429 216.239634,408.046104 210.190706,340.173135 C234.041567,329.063503 260.633823,322.860786 288.673149,322.860786 C328.517355,322.860786 365.43953,335.38577 395.725723,356.717547 Z" id="Combined-Shape" fill="#FDCF00" fill-rule="nonzero" transform="translate(302.958217, 407.817256) scale(-1, -1) rotate(60.000000) translate(-302.958217, -407.817256) "></path>
        <path d="M470.7905,216.215584 C429.222213,245.453301 400.76826,292.078848 396,345.520866 C339.923215,319.430318 299.748579,264.908438 294,200.479134 C316.728876,189.904191 342.070187,184 368.790495,184 C406.753066,184 441.932132,195.917596 470.790495,216.215587 Z" id="Combined-Shape" fill="#FDCF00" fill-rule="nonzero" transform="translate(382.395250, 264.760433) scale(-1, 1) translate(-382.395250, -264.760433) "></path>
        <path d="M294.7905,225.215584 C253.222213,254.453301 224.76826,301.078848 220,354.520866 C163.923215,328.430318 123.748579,273.908438 118,209.479134 C140.728876,198.904191 166.070187,193 192.790495,193 C230.753066,193 265.932132,204.917596 294.790495,225.215587 Z" id="Combined-Shape" fill="#FDCF00" fill-rule="nonzero"></path>
        <path d="M220.909316,354.073646 C223.09956,330.317092 230.142521,306.617573 242.450583,284.413241 C255.404846,261.043133 272.854479,241.741531 293.12271,226.989243 C337.028237,256.713958 363.89812,303.441517 369.755686,353.303606 C346.907605,364.014909 321.402749,370 294.5,370 C268.248913,370 243.328816,364.30135 220.909304,354.073641 Z" id="Combined-Shape" fill="#FDCF00" fill-rule="nonzero"></path>
        <circle id="Oval" stroke="#000000" stroke-width="30" fill-rule="nonzero" cx="192.5" cy="369.5" r="177.5"></circle>
        <circle id="Oval" stroke="#000000" stroke-width="30" fill-rule="nonzero" cx="396.5" cy="369.5" r="177.5"></circle>
        <circle id="Oval" stroke="#000000" stroke-width="30" fill-rule="nonzero" cx="294.5" cy="192.5" r="177.5"></circle>
    </g>
</svg>