<?xml version="1.0" encoding="utf-8"?>
<!-- Generator: Adobe Illustrator 22.1.0, SVG Export Plug-In . SVG Version: 6.00 Build 0)  -->
<svg version="1.1" id="Layer_1" xmlns="http://www.w3.org/2000/svg" xmlns:xlink="http://www.w3.org/1999/xlink" x="0px" y="0px"
	 viewBox="0 0 31 29" style="enable-background:new 0 0 31 29;" xml:space="preserve">
<style type="text/css">
	.st0{enable-background:new    ;}
</style>
<title>“</title>
<desc>Created with Sketch.</desc>
<g id="Mockup-V2---Mobile">
	<g id="Collaborate---Mobile" transform="translate(-35.000000, -1412.000000)">
		<g id="Group-2" transform="translate(22.000000, 1389.000000)">
			<g class="st0">
				<path d="M25.5,29.4c-2.2,0.4-3.8,2.1-4.7,4.9c-0.5,1.4-0.7,2.8-0.7,4.2c0,0.2,0,0.3,0,0.4c0,0.1,0,0.4,0.1,0.8h5.3v10.6H15.1
					v-9.8c0-4.8,1-8.5,2.9-11.1c1.9-2.6,4.4-4.1,7.5-4.5V29.4z M41.9,29.4c-1.8,0.3-3.1,1.3-4.1,3c-0.9,1.7-1.4,3.7-1.4,6
					c0,0.2,0,0.4,0,0.6c0,0.2,0.1,0.4,0.1,0.6h5.3v10.6H31.5v-9.8c0-3.9,0.8-7.3,2.4-10.4c1.6-3,4.3-4.8,8-5.2V29.4z"/>
			</g>
		</g>
	</g>
</g>
</svg>
