<?xml version="1.0" encoding="UTF-8"?>
<svg width="424px" height="401px" viewBox="0 0 424 401" version="1.1" xmlns="http://www.w3.org/2000/svg" xmlns:xlink="http://www.w3.org/1999/xlink">
    <!-- Generator: Sketch 52.4 (67378) - http://www.bohemiancoding.com/sketch -->
    <title>Group 23</title>
    <desc>Created with Sketch.</desc>
    <g id="Mockup-V2---Web" stroke="none" stroke-width="1" fill="none" fill-rule="evenodd">
        <g id="Practices-in-Action---New" transform="translate(-581.000000, -598.000000)">
            <g id="Group-6" transform="translate(49.000000, 464.000000)">
                <g id="Group-23" transform="translate(535.000000, 137.000000)">
                    <path d="M281.700005,256.450727 C260.857574,268.49409 236.57764,275.4 210.657992,275.4 C133.563873,275.4 70.975912,214.305062 70.2,138.64927 C91.0424297,126.605909 115.322362,119.7 141.242008,119.7 C218.336127,119.7 280.924088,180.794938 281.7,256.45073 Z" id="Combined-Shape" fill-opacity="0.3" fill="#0E77D2"></path>
                    <g id="Group-3">
                        <g id="Venn-Diagram">
                            <g id="Group" stroke="#0E77D2" stroke-width="4.5">
                                <ellipse id="Oval-5" cx="139.770874" cy="257.696152" rx="139.770874" ry="137.573221"></ellipse>
                                <ellipse id="Oval-5" cx="278.729126" cy="256.88451" rx="139.770874" ry="137.573221"></ellipse>
                                <ellipse id="Oval-5" cx="208.843689" cy="137.573221" rx="139.770874" ry="137.573221"></ellipse>
                            </g>
                            <path d="M297.258986,278.136494 C296.772986,278.136494 296.448986,278.082494 295.998986,277.758494 C295.620986,277.488494 295.062986,276.930494 294.810986,276.570494 C294.486986,276.120494 294.432986,275.796494 294.432986,275.310494 L294.432986,269.982494 C294.432986,269.496494 294.486986,269.172494 294.810986,268.722494 C295.080986,268.344494 295.638986,267.786494 295.998986,267.534494 C296.448986,267.210494 296.772986,267.156494 297.258986,267.156494 L299.634986,267.156494 C300.750986,267.156494 301.596986,268.074494 302.010986,268.668494 C302.298986,269.082494 302.478986,269.442494 302.622986,269.838494 L300.570986,270.378494 C300.318986,269.928494 300.030986,269.514494 299.652986,269.262494 L297.294986,269.262494 C297.276986,269.262494 297.132986,269.370494 296.934986,269.568494 C296.736986,269.766494 296.628986,269.910494 296.628986,269.928494 L296.628986,275.364494 C296.628986,275.382494 296.736986,275.526494 296.934986,275.724494 C297.132986,275.922494 297.276986,276.030494 297.294986,276.030494 L299.652986,276.030494 C300.030986,275.778494 300.318986,275.364494 300.570986,274.914494 L302.622986,275.454494 C302.478986,275.850494 302.298986,276.228494 302.010986,276.624494 C301.578986,277.218494 300.750986,278.136494 299.634986,278.136494 L297.258986,278.136494 Z M307.288241,278.136494 C306.802241,278.136494 306.478241,278.082494 306.028241,277.758494 C305.650241,277.488494 305.092241,276.930494 304.840241,276.570494 C304.516241,276.120494 304.462241,275.796494 304.462241,275.310494 L304.462241,269.982494 C304.462241,269.496494 304.516241,269.172494 304.840241,268.722494 C305.110241,268.344494 305.668241,267.786494 306.028241,267.534494 C306.478241,267.210494 306.802241,267.156494 307.288241,267.156494 L309.988241,267.156494 C310.474241,267.156494 310.798241,267.210494 311.248241,267.534494 C311.626241,267.804494 312.184241,268.362494 312.436241,268.722494 C312.760241,269.172494 312.814241,269.496494 312.814241,269.982494 L312.814241,275.310494 C312.814241,275.796494 312.760241,276.120494 312.436241,276.570494 C312.166241,276.948494 311.608241,277.506494 311.248241,277.758494 C310.798241,278.082494 310.474241,278.136494 309.988241,278.136494 L307.288241,278.136494 Z M306.658241,275.364494 C306.658241,275.382494 306.766241,275.526494 306.964241,275.724494 C307.162241,275.922494 307.306241,276.030494 307.324241,276.030494 L309.952241,276.030494 C309.970241,276.030494 310.114241,275.922494 310.312241,275.724494 C310.510241,275.526494 310.618241,275.382494 310.618241,275.364494 L310.618241,269.928494 C310.618241,269.910494 310.510241,269.766494 310.312241,269.568494 C310.114241,269.370494 309.970241,269.262494 309.952241,269.262494 L307.324241,269.262494 C307.306241,269.262494 307.162241,269.370494 306.964241,269.568494 C306.766241,269.766494 306.658241,269.910494 306.658241,269.928494 L306.658241,275.364494 Z M317.299497,275.922494 L322.087497,275.922494 L322.087497,278.046494 L315.103497,278.046494 L315.103497,267.246494 L317.299497,267.246494 L317.299497,275.922494 Z M325.870752,275.922494 L330.658752,275.922494 L330.658752,278.046494 L323.674752,278.046494 L323.674752,267.246494 L325.870752,267.246494 L325.870752,275.922494 Z M338.960007,278.046494 L338.276007,275.976494 L334.424007,275.976494 L333.740007,278.046494 L331.400007,278.046494 L335.144007,267.246494 L337.574007,267.246494 L341.300007,278.046494 L338.960007,278.046494 Z M335.126007,273.870494 L337.574007,273.870494 L336.350007,270.144494 L335.126007,273.870494 Z M350.717263,270.072494 L350.717263,271.152494 C350.717263,271.854494 350.231263,272.322494 349.907263,272.664494 C350.249263,273.024494 350.717263,273.456494 350.717263,274.176494 L350.717263,275.220494 C350.717263,275.706494 350.663263,276.030494 350.339263,276.480494 C350.069263,276.858494 349.511263,277.416494 349.151263,277.668494 C348.701263,277.992494 348.377263,278.046494 347.891263,278.046494 L342.815263,278.046494 L342.815263,267.246494 L347.891263,267.246494 C348.377263,267.246494 348.701263,267.300494 349.151263,267.624494 C349.529263,267.894494 350.087263,268.452494 350.339263,268.812494 C350.663263,269.262494 350.717263,269.586494 350.717263,270.072494 Z M348.521263,270.954494 L348.521263,270.018494 C348.521263,270.000494 348.413263,269.856494 348.215263,269.658494 C348.017263,269.460494 347.873263,269.352494 347.855263,269.352494 L345.011263,269.352494 L345.011263,271.620494 L347.855263,271.620494 C347.873263,271.620494 348.017263,271.512494 348.215263,271.314494 C348.413263,271.116494 348.521263,270.972494 348.521263,270.954494 Z M348.521263,275.274494 L348.521263,274.302494 C348.521263,274.284494 348.413263,274.140494 348.215263,273.942494 C348.017263,273.744494 347.873263,273.636494 347.855263,273.636494 L345.011263,273.636494 L345.011263,275.940494 L347.855263,275.940494 C347.873263,275.940494 348.017263,275.832494 348.215263,275.634494 C348.413263,275.436494 348.521263,275.292494 348.521263,275.274494 Z M355.652518,278.136494 C355.166518,278.136494 354.842518,278.082494 354.392518,277.758494 C354.014518,277.488494 353.456518,276.930494 353.204518,276.570494 C352.880518,276.120494 352.826518,275.796494 352.826518,275.310494 L352.826518,269.982494 C352.826518,269.496494 352.880518,269.172494 353.204518,268.722494 C353.474518,268.344494 354.032518,267.786494 354.392518,267.534494 C354.842518,267.210494 355.166518,267.156494 355.652518,267.156494 L358.352518,267.156494 C358.838518,267.156494 359.162518,267.210494 359.612518,267.534494 C359.990518,267.804494 360.548518,268.362494 360.800518,268.722494 C361.124518,269.172494 361.178518,269.496494 361.178518,269.982494 L361.178518,275.310494 C361.178518,275.796494 361.124518,276.120494 360.800518,276.570494 C360.530518,276.948494 359.972518,277.506494 359.612518,277.758494 C359.162518,278.082494 358.838518,278.136494 358.352518,278.136494 L355.652518,278.136494 Z M355.022518,275.364494 C355.022518,275.382494 355.130518,275.526494 355.328518,275.724494 C355.526518,275.922494 355.670518,276.030494 355.688518,276.030494 L358.316518,276.030494 C358.334518,276.030494 358.478518,275.922494 358.676518,275.724494 C358.874518,275.526494 358.982518,275.382494 358.982518,275.364494 L358.982518,269.928494 C358.982518,269.910494 358.874518,269.766494 358.676518,269.568494 C358.478518,269.370494 358.334518,269.262494 358.316518,269.262494 L355.688518,269.262494 C355.670518,269.262494 355.526518,269.370494 355.328518,269.568494 C355.130518,269.766494 355.022518,269.910494 355.022518,269.928494 L355.022518,275.364494 Z M369.407773,278.046494 L367.481773,273.924494 L365.663773,273.924494 L365.663773,278.046494 L363.467773,278.046494 L363.467773,267.246494 L368.561773,267.246494 C369.047773,267.246494 369.371773,267.300494 369.821773,267.624494 C370.199773,267.894494 370.757773,268.452494 371.009773,268.812494 C371.333773,269.262494 371.387773,269.586494 371.387773,270.072494 L371.387773,271.098494 C371.387773,271.584494 371.333773,271.908494 371.009773,272.358494 C370.739773,272.736494 370.181773,273.294494 369.821773,273.546494 C369.767773,273.582494 369.731773,273.618494 369.677773,273.636494 L371.837773,278.046494 L369.407773,278.046494 Z M365.663773,269.352494 L365.663773,271.818494 L368.525773,271.818494 C368.543773,271.818494 368.687773,271.710494 368.885773,271.512494 C369.083773,271.314494 369.191773,271.170494 369.191773,271.152494 L369.191773,270.018494 C369.191773,270.000494 369.083773,269.856494 368.885773,269.658494 C368.687773,269.460494 368.543773,269.352494 368.525773,269.352494 L365.663773,269.352494 Z M380.373028,278.046494 L379.689028,275.976494 L375.837028,275.976494 L375.153028,278.046494 L372.813028,278.046494 L376.557028,267.246494 L378.987028,267.246494 L382.713028,278.046494 L380.373028,278.046494 Z M376.539028,273.870494 L378.987028,273.870494 L377.763028,270.144494 L376.539028,273.870494 Z M390.456284,267.246494 L390.456284,269.352494 L387.558284,269.352494 L387.558284,278.046494 L385.344284,278.046494 L385.344284,269.352494 L382.428284,269.352494 L382.428284,267.246494 L390.456284,267.246494 Z M399.369539,269.352494 L394.473539,269.352494 L394.473539,271.566494 L399.207539,271.566494 L399.207539,273.672494 L394.473539,273.672494 L394.473539,275.940494 L399.369539,275.940494 L399.369539,278.046494 L392.277539,278.046494 L392.277539,267.246494 L399.369539,267.246494 L399.369539,269.352494 Z" id="COLLABORATE" fill="#000000"></path>
                            <path d="M186.780839,80.8671218 C186.294839,80.8671218 185.970839,80.8131218 185.520839,80.4891218 C185.142839,80.2191218 184.584839,79.6611218 184.332839,79.3011218 C184.008839,78.8511218 183.954839,78.5271218 183.954839,78.0411218 L183.954839,72.7131218 C183.954839,72.2271218 184.008839,71.9031218 184.332839,71.4531218 C184.602839,71.0751218 185.160839,70.5171218 185.520839,70.2651218 C185.970839,69.9411218 186.294839,69.8871218 186.780839,69.8871218 L189.156839,69.8871218 C190.272839,69.8871218 191.118839,70.8051218 191.532839,71.3991218 C191.820839,71.8131218 192.000839,72.1731218 192.144839,72.5691218 L190.092839,73.1091218 C189.840839,72.6591218 189.552839,72.2451218 189.174839,71.9931218 L186.816839,71.9931218 C186.798839,71.9931218 186.654839,72.1011218 186.456839,72.2991218 C186.258839,72.4971218 186.150839,72.6411218 186.150839,72.6591218 L186.150839,78.0951218 C186.150839,78.1131218 186.258839,78.2571218 186.456839,78.4551218 C186.654839,78.6531218 186.798839,78.7611218 186.816839,78.7611218 L189.174839,78.7611218 C189.552839,78.5091218 189.840839,78.0951218 190.092839,77.6451218 L192.144839,78.1851218 C192.000839,78.5811218 191.820839,78.9591218 191.532839,79.3551218 C191.100839,79.9491218 190.272839,80.8671218 189.156839,80.8671218 L186.780839,80.8671218 Z M200.001839,80.7771218 L198.075839,76.6551218 L196.257839,76.6551218 L196.257839,80.7771218 L194.061839,80.7771218 L194.061839,69.9771218 L199.155839,69.9771218 C199.641839,69.9771218 199.965839,70.0311218 200.415839,70.3551218 C200.793839,70.6251218 201.351839,71.1831218 201.603839,71.5431218 C201.927839,71.9931218 201.981839,72.3171218 201.981839,72.8031218 L201.981839,73.8291218 C201.981839,74.3151218 201.927839,74.6391218 201.603839,75.0891218 C201.333839,75.4671218 200.775839,76.0251218 200.415839,76.2771218 C200.361839,76.3131218 200.325839,76.3491218 200.271839,76.3671218 L202.431839,80.7771218 L200.001839,80.7771218 Z M196.257839,72.0831218 L196.257839,74.5491218 L199.119839,74.5491218 C199.137839,74.5491218 199.281839,74.4411218 199.479839,74.2431218 C199.677839,74.0451218 199.785839,73.9011218 199.785839,73.8831218 L199.785839,72.7491218 C199.785839,72.7311218 199.677839,72.5871218 199.479839,72.3891218 C199.281839,72.1911218 199.137839,72.0831218 199.119839,72.0831218 L196.257839,72.0831218 Z M210.972839,80.7771218 L210.288839,78.7071218 L206.436839,78.7071218 L205.752839,80.7771218 L203.412839,80.7771218 L207.156839,69.9771218 L209.586839,69.9771218 L213.312839,80.7771218 L210.972839,80.7771218 Z M207.138839,76.6011218 L209.586839,76.6011218 L208.362839,72.8751218 L207.138839,76.6011218 Z M221.925839,72.0831218 L217.029839,72.0831218 L217.029839,74.2971218 L221.673839,74.2971218 L221.673839,76.4031218 L217.029839,76.4031218 L217.029839,80.7771218 L214.833839,80.7771218 L214.833839,69.9771218 L221.925839,69.9771218 L221.925839,72.0831218 Z M231.564839,69.9771218 L231.564839,72.0831218 L228.666839,72.0831218 L228.666839,80.7771218 L226.452839,80.7771218 L226.452839,72.0831218 L223.536839,72.0831218 L223.536839,69.9771218 L231.564839,69.9771218 Z" id="CRAFT" fill="#000000"></path>
                            <path d="M41.3574545,275.922494 L46.1454545,275.922494 L46.1454545,278.046494 L39.1614545,278.046494 L39.1614545,267.246494 L41.3574545,267.246494 L41.3574545,275.922494 Z M54.8247098,269.352494 L49.9287098,269.352494 L49.9287098,271.566494 L54.6627098,271.566494 L54.6627098,273.672494 L49.9287098,273.672494 L49.9287098,275.940494 L54.8247098,275.940494 L54.8247098,278.046494 L47.7327098,278.046494 L47.7327098,267.246494 L54.8247098,267.246494 L54.8247098,269.352494 Z M63.8999651,278.046494 L63.2159651,275.976494 L59.3639651,275.976494 L58.6799651,278.046494 L56.3399651,278.046494 L60.0839651,267.246494 L62.5139651,267.246494 L66.2399651,278.046494 L63.8999651,278.046494 Z M60.0659651,273.870494 L62.5139651,273.870494 L61.2899651,270.144494 L60.0659651,273.870494 Z M73.6952204,278.046494 L71.7692204,273.924494 L69.9512204,273.924494 L69.9512204,278.046494 L67.7552204,278.046494 L67.7552204,267.246494 L72.8492204,267.246494 C73.3352204,267.246494 73.6592204,267.300494 74.1092204,267.624494 C74.4872204,267.894494 75.0452204,268.452494 75.2972204,268.812494 C75.6212204,269.262494 75.6752204,269.586494 75.6752204,270.072494 L75.6752204,271.098494 C75.6752204,271.584494 75.6212204,271.908494 75.2972204,272.358494 C75.0272204,272.736494 74.4692204,273.294494 74.1092204,273.546494 C74.0552204,273.582494 74.0192204,273.618494 73.9652204,273.636494 L76.1252204,278.046494 L73.6952204,278.046494 Z M69.9512204,269.352494 L69.9512204,271.818494 L72.8132204,271.818494 C72.8312204,271.818494 72.9752204,271.710494 73.1732204,271.512494 C73.3712204,271.314494 73.4792204,271.170494 73.4792204,271.152494 L73.4792204,270.018494 C73.4792204,270.000494 73.3712204,269.856494 73.1732204,269.658494 C72.9752204,269.460494 72.8312204,269.352494 72.8132204,269.352494 L69.9512204,269.352494 Z M83.6524757,267.246494 L85.8484757,267.246494 L85.8484757,278.046494 L83.6344757,278.046494 L80.1424757,271.620494 L80.1424757,278.046494 L77.9464757,278.046494 L77.9464757,267.246494 L80.1964757,267.246494 L83.6524757,273.744494 L83.6524757,267.246494 Z" id="LEARN" fill="#000000"></path>
                            <path d="M192.676086,312.13 C191.965415,312.13 191.347922,312.017334 190.823586,311.792 C190.29925,311.566666 189.900587,311.269835 189.627586,310.9015 C189.354584,310.533165 189.209419,310.136669 189.192086,309.712 C189.192086,309.642666 189.218085,309.582 189.270086,309.53 C189.322086,309.478 189.387085,309.452 189.465086,309.452 L190.102086,309.452 C190.258086,309.452 190.366419,309.538666 190.427086,309.712 C190.505086,310.076002 190.728251,310.390165 191.096586,310.6545 C191.464921,310.918835 191.991416,311.051 192.676086,311.051 C193.412756,311.051 193.963084,310.921001 194.327086,310.661 C194.691088,310.400999 194.873086,310.041336 194.873086,309.582 C194.873086,309.287332 194.784253,309.044668 194.606586,308.854 C194.428918,308.663332 194.164587,308.496501 193.813586,308.3535 C193.462584,308.210499 192.936089,308.035001 192.234086,307.827 C191.566749,307.636332 191.035921,307.432668 190.641586,307.216 C190.24725,306.999332 189.95042,306.732835 189.751086,306.4165 C189.551751,306.100165 189.452086,305.699336 189.452086,305.214 C189.452086,304.745998 189.577751,304.327835 189.829086,303.9595 C190.08042,303.591165 190.444417,303.300834 190.921086,303.0885 C191.397755,302.876166 191.961082,302.77 192.611086,302.77 C193.287089,302.77 193.865583,302.889165 194.346586,303.1275 C194.827588,303.365835 195.193751,303.664832 195.445086,304.0245 C195.69642,304.384168 195.830752,304.745998 195.848086,305.11 C195.848086,305.188 195.822086,305.253 195.770086,305.305 C195.718085,305.357 195.653086,305.383 195.575086,305.383 L194.925086,305.383 C194.855752,305.383 194.790753,305.361334 194.730086,305.318 C194.669419,305.274666 194.626086,305.209667 194.600086,305.123 C194.548085,304.750331 194.340088,304.442668 193.976086,304.2 C193.612084,303.957332 193.157088,303.836 192.611086,303.836 C192.021749,303.836 191.553754,303.950832 191.207086,304.1805 C190.860417,304.410168 190.687086,304.750331 190.687086,305.201 C190.687086,305.504335 190.767252,305.751332 190.927586,305.942 C191.08792,306.132668 191.334917,306.301666 191.668586,306.449 C192.002254,306.596334 192.489749,306.765332 193.131086,306.956 C193.867756,307.164001 194.44625,307.371999 194.866586,307.58 C195.286921,307.788001 195.601085,308.045832 195.809086,308.3535 C196.017087,308.661168 196.121086,309.057664 196.121086,309.543 C196.121086,310.357671 195.811255,310.992498 195.191586,311.4475 C194.571916,311.902502 193.733424,312.13 192.676086,312.13 Z M200.526836,312 C199.183496,312 198.511836,311.241674 198.511836,309.725 L198.511836,306.241 L197.484836,306.241 C197.398169,306.241 197.328836,306.215 197.276836,306.163 C197.224835,306.111 197.198836,306.041667 197.198836,305.955 L197.198836,305.539 C197.198836,305.452333 197.224835,305.380834 197.276836,305.3245 C197.328836,305.268166 197.398169,305.24 197.484836,305.24 L198.511836,305.24 L198.511836,303.069 C198.511836,302.982333 198.537835,302.910834 198.589836,302.8545 C198.641836,302.798166 198.711169,302.77 198.797836,302.77 L199.369836,302.77 C199.456503,302.77 199.528002,302.798166 199.584336,302.8545 C199.640669,302.910834 199.668836,302.982333 199.668836,303.069 L199.668836,305.24 L201.280836,305.24 C201.367503,305.24 201.439002,305.268166 201.495336,305.3245 C201.551669,305.380834 201.579836,305.452333 201.579836,305.539 L201.579836,305.955 C201.579836,306.041667 201.551669,306.111 201.495336,306.163 C201.439002,306.215 201.367503,306.241 201.280836,306.241 L199.668836,306.241 L199.668836,309.634 C199.668836,310.076002 199.740335,310.409666 199.883336,310.635 C200.026336,310.860334 200.271167,310.973 200.617836,310.973 L201.410836,310.973 C201.497503,310.973 201.566835,311.001166 201.618836,311.0575 C201.670836,311.113834 201.696836,311.185333 201.696836,311.272 L201.696836,311.701 C201.696836,311.787667 201.670836,311.859166 201.618836,311.9155 C201.566835,311.971834 201.497503,312 201.410836,312 L200.526836,312 Z M203.528586,312 C203.441919,312 203.370419,311.971834 203.314086,311.9155 C203.257752,311.859166 203.229586,311.787667 203.229586,311.701 L203.229586,305.552 C203.229586,305.465333 203.257752,305.391667 203.314086,305.331 C203.370419,305.270333 203.441919,305.24 203.528586,305.24 L204.074586,305.24 C204.169919,305.24 204.245752,305.268166 204.302086,305.3245 C204.358419,305.380834 204.386586,305.456666 204.386586,305.552 L204.386586,306.124 C204.741921,305.534664 205.344248,305.24 206.193586,305.24 L206.700586,305.24 C206.795919,305.24 206.869585,305.266 206.921586,305.318 C206.973586,305.37 206.999586,305.443666 206.999586,305.539 L206.999586,306.02 C206.999586,306.106667 206.973586,306.178166 206.921586,306.2345 C206.869585,306.290834 206.795919,306.319 206.700586,306.319 L205.959586,306.319 C205.482917,306.319 205.108087,306.457665 204.835086,306.735 C204.562084,307.012335 204.425586,307.389331 204.425586,307.866 L204.425586,311.701 C204.425586,311.787667 204.395253,311.859166 204.334586,311.9155 C204.273919,311.971834 204.200253,312 204.113586,312 L203.528586,312 Z M210.989336,312.13 C210.035998,312.13 209.301505,311.861336 208.785836,311.324 C208.270166,310.786664 207.995003,310.071671 207.960336,309.179 L207.947336,308.62 L207.960336,308.061 C207.995003,307.168329 208.2745,306.453336 208.798836,305.916 C209.323172,305.378664 210.053331,305.11 210.989336,305.11 C211.92534,305.11 212.6555,305.378664 213.179836,305.916 C213.704172,306.453336 213.983669,307.168329 214.018336,308.061 C214.035669,308.251668 214.044336,308.437999 214.044336,308.62 C214.044336,308.802001 214.035669,308.988332 214.018336,309.179 C213.983669,310.071671 213.708505,310.786664 213.192836,311.324 C212.677166,311.861336 211.942674,312.13 210.989336,312.13 Z M210.989336,311.155 C211.544005,311.155 211.983834,310.979502 212.308836,310.6285 C212.633837,310.277498 212.809336,309.77267 212.835336,309.114 C212.844002,309.027333 212.848336,308.862668 212.848336,308.62 C212.848336,308.377332 212.844002,308.212667 212.835336,308.126 C212.809336,307.46733 212.633837,306.962502 212.308836,306.6115 C211.983834,306.260498 211.544005,306.085 210.989336,306.085 C210.434666,306.085 209.994837,306.260498 209.669836,306.6115 C209.344834,306.962502 209.169336,307.46733 209.143336,308.126 L209.130336,308.62 L209.143336,309.114 C209.169336,309.77267 209.344834,310.277498 209.669836,310.6285 C209.994837,310.979502 210.434666,311.155 210.989336,311.155 Z M216.240086,312 C216.153419,312 216.081919,311.971834 216.025586,311.9155 C215.969252,311.859166 215.941086,311.787667 215.941086,311.701 L215.941086,305.539 C215.941086,305.452333 215.969252,305.380834 216.025586,305.3245 C216.081919,305.268166 216.153419,305.24 216.240086,305.24 L216.799086,305.24 C216.894419,305.24 216.968085,305.266 217.020086,305.318 C217.072086,305.37 217.098086,305.443666 217.098086,305.539 L217.098086,306.111 C217.358087,305.790332 217.659251,305.543334 218.001586,305.37 C218.343921,305.196666 218.77075,305.11 219.282086,305.11 C220.11409,305.11 220.75975,305.376497 221.219086,305.9095 C221.678421,306.442503 221.908086,307.146662 221.908086,308.022 L221.908086,311.701 C221.908086,311.787667 221.879919,311.859166 221.823586,311.9155 C221.767252,311.971834 221.695753,312 221.609086,312 L221.011086,312 C220.924419,312 220.852919,311.971834 220.796586,311.9155 C220.740252,311.859166 220.712086,311.787667 220.712086,311.701 L220.712086,308.1 C220.712086,307.475997 220.560421,306.990668 220.257086,306.644 C219.953751,306.297332 219.520422,306.124 218.957086,306.124 C218.402416,306.124 217.960421,306.299498 217.631086,306.6505 C217.301751,307.001502 217.137086,307.484664 217.137086,308.1 L217.137086,311.701 C217.137086,311.787667 217.108919,311.859166 217.052586,311.9155 C216.996252,311.971834 216.924753,312 216.838086,312 L216.240086,312 Z M226.794836,314.86 C226.075499,314.86 225.499171,314.738668 225.065836,314.496 C224.6325,314.253332 224.327003,313.976002 224.149336,313.664 C223.971668,313.351998 223.882836,313.083334 223.882836,312.858 C223.882836,312.78 223.913169,312.712834 223.973836,312.6565 C224.034503,312.600166 224.103835,312.572 224.181836,312.572 L224.753836,312.572 C224.831836,312.572 224.896835,312.5915 224.948836,312.6305 C225.000836,312.6695 225.044169,312.740999 225.078836,312.845 C225.321504,313.538337 225.871831,313.885 226.729836,313.885 C227.379839,313.885 227.860834,313.746335 228.172836,313.469 C228.484837,313.191665 228.640836,312.702004 228.640836,312 L228.640836,311.103 C228.138166,311.744337 227.436173,312.065 226.534836,312.065 C225.616164,312.065 224.929338,311.770336 224.474336,311.181 C224.019333,310.591664 223.778836,309.846338 223.752836,308.945 L223.739836,308.581 L223.752836,308.23 C223.778836,307.337329 224.019333,306.59417 224.474336,306.0005 C224.929338,305.40683 225.616164,305.11 226.534836,305.11 C227.44484,305.11 228.1555,305.443663 228.666836,306.111 L228.666836,305.552 C228.666836,305.465333 228.695002,305.391667 228.751336,305.331 C228.807669,305.270333 228.879169,305.24 228.965836,305.24 L229.524836,305.24 C229.611503,305.24 229.683002,305.270333 229.739336,305.331 C229.795669,305.391667 229.823836,305.465333 229.823836,305.552 L229.823836,311.857 C229.823836,313.85901 228.814179,314.86 226.794836,314.86 Z M226.768836,311.051 C227.375505,311.051 227.832667,310.853835 228.140336,310.4595 C228.448004,310.065165 228.614836,309.590669 228.640836,309.036 C228.649502,308.958 228.653836,308.806334 228.653836,308.581 C228.653836,308.364332 228.649502,308.217 228.640836,308.139 C228.614836,307.584331 228.448004,307.109835 228.140336,306.7155 C227.832667,306.321165 227.375505,306.124 226.768836,306.124 C226.144833,306.124 225.692004,306.321165 225.410336,306.7155 C225.128668,307.109835 224.974836,307.618997 224.948836,308.243 L224.935836,308.581 L224.948836,308.932 C224.974836,309.556003 225.128668,310.065165 225.410336,310.4595 C225.692004,310.853835 226.144833,311.051 226.768836,311.051 Z M193.227961,327 C193.141294,327 193.069794,326.971834 193.013461,326.9155 C192.957127,326.859166 192.928961,326.787667 192.928961,326.701 L192.928961,319.018 L190.419961,319.018 C190.333294,319.018 190.261794,318.989834 190.205461,318.9335 C190.149127,318.877166 190.120961,318.805667 190.120961,318.719 L190.120961,318.212 C190.120961,318.116666 190.149127,318.040834 190.205461,317.9845 C190.261794,317.928166 190.333294,317.9 190.419961,317.9 L196.659961,317.9 C196.755294,317.9 196.82896,317.928166 196.880961,317.9845 C196.932961,318.040834 196.958961,318.116666 196.958961,318.212 L196.958961,318.719 C196.958961,318.805667 196.930794,318.877166 196.874461,318.9335 C196.818127,318.989834 196.746628,319.018 196.659961,319.018 L194.163961,319.018 L194.163961,326.701 C194.163961,326.787667 194.133628,326.859166 194.072961,326.9155 C194.012294,326.971834 193.938628,327 193.851961,327 L193.227961,327 Z M199.960711,327.13 C199.076706,327.13 198.37038,326.854836 197.841711,326.3045 C197.313041,325.754164 197.022711,325.002338 196.970711,324.049 L196.957711,323.607 L196.970711,323.178 C197.022711,322.241995 197.313041,321.496669 197.841711,320.942 C198.37038,320.387331 199.076706,320.11 199.960711,320.11 C200.914049,320.11 201.652875,320.41333 202.177211,321.02 C202.701547,321.62667 202.963711,322.449995 202.963711,323.49 L202.963711,323.724 C202.963711,323.810667 202.935544,323.882166 202.879211,323.9385 C202.822877,323.994834 202.751378,324.023 202.664711,324.023 L198.153711,324.023 L198.153711,324.14 C198.179711,324.703336 198.353042,325.184331 198.673711,325.583 C198.994379,325.981669 199.419041,326.181 199.947711,326.181 C200.355046,326.181 200.686543,326.100834 200.942211,325.9405 C201.197879,325.780166 201.39071,325.613334 201.520711,325.44 C201.598711,325.335999 201.659377,325.273167 201.702711,325.2515 C201.746044,325.229833 201.81971,325.219 201.923711,325.219 L202.495711,325.219 C202.573711,325.219 202.640877,325.240666 202.697211,325.284 C202.753544,325.327334 202.781711,325.383666 202.781711,325.453 C202.781711,325.643668 202.664712,325.873332 202.430711,326.142 C202.19671,326.410668 201.865213,326.642499 201.436211,326.8375 C201.007209,327.032501 200.51538,327.13 199.960711,327.13 Z M201.780711,323.139 L201.780711,323.1 C201.780711,322.49333 201.616046,321.999335 201.286711,321.618 C200.957376,321.236665 200.51538,321.046 199.960711,321.046 C199.397375,321.046 198.955379,321.236665 198.634711,321.618 C198.314042,321.999335 198.153711,322.49333 198.153711,323.1 L198.153711,323.139 L201.780711,323.139 Z M206.680461,327.13 C206.255792,327.13 205.863629,327.043334 205.503961,326.87 C205.144292,326.696666 204.858295,326.460501 204.645961,326.1615 C204.433626,325.862499 204.327461,325.531002 204.327461,325.167 C204.327461,324.594997 204.561458,324.127002 205.029461,323.763 C205.497463,323.398998 206.134457,323.156334 206.940461,323.035 L208.890461,322.762 L208.890461,322.385 C208.890461,321.492329 208.374799,321.046 207.343461,321.046 C206.944792,321.046 206.624129,321.126166 206.381461,321.2865 C206.138793,321.446834 205.961128,321.635332 205.848461,321.852 C205.813794,321.938667 205.776961,321.997167 205.737961,322.0275 C205.69896,322.057833 205.644794,322.073 205.575461,322.073 L205.068461,322.073 C204.99046,322.073 204.923294,322.044834 204.866961,321.9885 C204.810627,321.932166 204.782461,321.865 204.782461,321.787 C204.782461,321.587666 204.875626,321.355835 205.061961,321.0915 C205.248295,320.827165 205.536459,320.597501 205.926461,320.4025 C206.316463,320.207499 206.793125,320.11 207.356461,320.11 C208.327132,320.11 209.022625,320.335331 209.442961,320.786 C209.863296,321.236669 210.073461,321.799997 210.073461,322.476 L210.073461,326.701 C210.073461,326.787667 210.045294,326.859166 209.988961,326.9155 C209.932627,326.971834 209.861128,327 209.774461,327 L209.202461,327 C209.115794,327 209.046461,326.971834 208.994461,326.9155 C208.94246,326.859166 208.916461,326.787667 208.916461,326.701 L208.916461,326.129 C208.725793,326.415001 208.448462,326.653332 208.084461,326.844 C207.720459,327.034668 207.252464,327.13 206.680461,327.13 Z M206.940461,326.181 C207.512464,326.181 207.980459,325.994669 208.344461,325.622 C208.708462,325.249331 208.890461,324.70767 208.890461,323.997 L208.890461,323.633 L207.369461,323.854 C206.745458,323.940667 206.273129,324.087999 205.952461,324.296 C205.631792,324.504001 205.471461,324.763998 205.471461,325.076 C205.471461,325.431335 205.616626,325.704332 205.906961,325.895 C206.197295,326.085668 206.541792,326.181 206.940461,326.181 Z M212.516211,327 C212.429544,327 212.358044,326.971834 212.301711,326.9155 C212.245377,326.859166 212.217211,326.787667 212.217211,326.701 L212.217211,320.539 C212.217211,320.452333 212.245377,320.380834 212.301711,320.3245 C212.358044,320.268166 212.429544,320.24 212.516211,320.24 L213.062211,320.24 C213.148878,320.24 213.21821,320.268166 213.270211,320.3245 C213.322211,320.380834 213.348211,320.452333 213.348211,320.539 L213.348211,320.981 C213.816213,320.40033 214.448873,320.11 215.246211,320.11 C216.199549,320.11 216.875542,320.508663 217.274211,321.306 C217.482212,320.941998 217.779042,320.651668 218.164711,320.435 C218.550379,320.218332 218.981542,320.11 219.458211,320.11 C220.168881,320.11 220.749542,320.352664 221.200211,320.838 C221.65088,321.323336 221.876211,322.025329 221.876211,322.944 L221.876211,326.701 C221.876211,326.787667 221.848044,326.859166 221.791711,326.9155 C221.735377,326.971834 221.663878,327 221.577211,327 L221.018211,327 C220.931544,327 220.860044,326.971834 220.803711,326.9155 C220.747377,326.859166 220.719211,326.787667 220.719211,326.701 L220.719211,323.061 C220.719211,322.367663 220.576212,321.871501 220.290211,321.5725 C220.004209,321.273499 219.627213,321.124 219.159211,321.124 C218.743209,321.124 218.385712,321.277832 218.086711,321.5855 C217.787709,321.893168 217.638211,322.384997 217.638211,323.061 L217.638211,326.701 C217.638211,326.787667 217.610044,326.859166 217.553711,326.9155 C217.497377,326.971834 217.425878,327 217.339211,327 L216.767211,327 C216.680544,327 216.609044,326.971834 216.552711,326.9155 C216.496377,326.859166 216.468211,326.787667 216.468211,326.701 L216.468211,323.061 C216.468211,322.37633 216.318712,321.882335 216.019711,321.579 C215.720709,321.275665 215.350213,321.124 214.908211,321.124 C214.492209,321.124 214.134712,321.275665 213.835711,321.579 C213.536709,321.882335 213.387211,322.371997 213.387211,323.048 L213.387211,326.701 C213.387211,326.787667 213.359044,326.859166 213.302711,326.9155 C213.246377,326.971834 213.174878,327 213.088211,327 L212.516211,327 Z M226.333961,327.13 C225.735958,327.13 225.231129,327.032501 224.819461,326.8375 C224.407792,326.642499 224.102295,326.419335 223.902961,326.168 C223.703626,325.916665 223.603961,325.708667 223.603961,325.544 C223.603961,325.457333 223.634294,325.390167 223.694961,325.3425 C223.755628,325.294833 223.820627,325.271 223.889961,325.271 L224.435961,325.271 C224.487961,325.271 224.529127,325.279667 224.559461,325.297 C224.589794,325.314333 224.63096,325.353333 224.682961,325.414 C224.882295,325.656668 225.105459,325.847333 225.352461,325.986 C225.599462,326.124667 225.930959,326.194 226.346961,326.194 C226.814963,326.194 227.189793,326.107334 227.471461,325.934 C227.753129,325.760666 227.893961,325.509335 227.893961,325.18 C227.893961,324.963332 227.833295,324.790001 227.711961,324.66 C227.590627,324.529999 227.389129,324.413001 227.107461,324.309 C226.825793,324.204999 226.40763,324.092334 225.852961,323.971 C225.098957,323.806333 224.565962,323.568002 224.253961,323.256 C223.941959,322.943998 223.785961,322.541002 223.785961,322.047 C223.785961,321.726332 223.881293,321.416501 224.071961,321.1175 C224.262628,320.818499 224.546459,320.575834 224.923461,320.3895 C225.300463,320.203166 225.748958,320.11 226.268961,320.11 C226.814963,320.11 227.280792,320.200999 227.666461,320.383 C228.052129,320.565001 228.34246,320.777332 228.537461,321.02 C228.732462,321.262668 228.829961,321.466333 228.829961,321.631 C228.829961,321.709 228.801794,321.774 228.745461,321.826 C228.689127,321.878 228.621961,321.904 228.543961,321.904 L228.049961,321.904 C227.928627,321.904 227.841961,321.856334 227.789961,321.761 C227.642627,321.596333 227.519128,321.4685 227.419461,321.3775 C227.319793,321.2865 227.174628,321.2085 226.983961,321.1435 C226.793293,321.0785 226.554962,321.046 226.268961,321.046 C225.844292,321.046 225.519295,321.134832 225.293961,321.3125 C225.068626,321.490168 224.955961,321.726332 224.955961,322.021 C224.955961,322.203001 225.003627,322.356833 225.098961,322.4825 C225.194294,322.608167 225.376293,322.725166 225.644961,322.8335 C225.913629,322.941834 226.312291,323.052333 226.840961,323.165 C227.664298,323.338334 228.247126,323.585332 228.589461,323.906 C228.931796,324.226668 229.102961,324.638331 229.102961,325.141 C229.102961,325.513669 228.996795,325.851665 228.784461,326.155 C228.572126,326.458335 228.255796,326.696666 227.835461,326.87 C227.415125,327.043334 226.91463,327.13 226.333961,327.13 Z" id="Strong-Teams" fill="#000000"></path>
                            <path d="M277.905236,158.13 C277.194566,158.13 276.577072,158.017334 276.052736,157.792 C275.5284,157.566666 275.129737,157.269835 274.856736,156.9015 C274.583735,156.533165 274.438569,156.136669 274.421236,155.712 C274.421236,155.642666 274.447236,155.582 274.499236,155.53 C274.551236,155.478 274.616236,155.452 274.694236,155.452 L275.331236,155.452 C275.487237,155.452 275.595569,155.538666 275.656236,155.712 C275.734236,156.076002 275.957401,156.390165 276.325736,156.6545 C276.694071,156.918835 277.220566,157.051 277.905236,157.051 C278.641906,157.051 279.192234,156.921001 279.556236,156.661 C279.920238,156.400999 280.102236,156.041336 280.102236,155.582 C280.102236,155.287332 280.013404,155.044668 279.835736,154.854 C279.658068,154.663332 279.393738,154.496501 279.042736,154.3535 C278.691734,154.210499 278.16524,154.035001 277.463236,153.827 C276.795899,153.636332 276.265071,153.432668 275.870736,153.216 C275.476401,152.999332 275.17957,152.732835 274.980236,152.4165 C274.780902,152.100165 274.681236,151.699336 274.681236,151.214 C274.681236,150.745998 274.806901,150.327835 275.058236,149.9595 C275.309571,149.591165 275.673567,149.300834 276.150236,149.0885 C276.626905,148.876166 277.190233,148.77 277.840236,148.77 C278.516239,148.77 279.094734,148.889165 279.575736,149.1275 C280.056738,149.365835 280.422901,149.664832 280.674236,150.0245 C280.925571,150.384168 281.059903,150.745998 281.077236,151.11 C281.077236,151.188 281.051236,151.253 280.999236,151.305 C280.947236,151.357 280.882236,151.383 280.804236,151.383 L280.154236,151.383 C280.084902,151.383 280.019903,151.361334 279.959236,151.318 C279.898569,151.274666 279.855236,151.209667 279.829236,151.123 C279.777236,150.750331 279.569238,150.442668 279.205236,150.2 C278.841234,149.957332 278.386239,149.836 277.840236,149.836 C277.2509,149.836 276.782904,149.950832 276.436236,150.1805 C276.089568,150.410168 275.916236,150.750331 275.916236,151.201 C275.916236,151.504335 275.996402,151.751332 276.156736,151.942 C276.31707,152.132668 276.564068,152.301666 276.897736,152.449 C277.231404,152.596334 277.718899,152.765332 278.360236,152.956 C279.096906,153.164001 279.675401,153.371999 280.095736,153.58 C280.516071,153.788001 280.830235,154.045832 281.038236,154.3535 C281.246237,154.661168 281.350236,155.057664 281.350236,155.543 C281.350236,156.357671 281.040406,156.992498 280.420736,157.4475 C279.801066,157.902502 278.962575,158.13 277.905236,158.13 Z M285.755986,158 C284.412646,158 283.740986,157.241674 283.740986,155.725 L283.740986,152.241 L282.713986,152.241 C282.627319,152.241 282.557986,152.215 282.505986,152.163 C282.453986,152.111 282.427986,152.041667 282.427986,151.955 L282.427986,151.539 C282.427986,151.452333 282.453986,151.380834 282.505986,151.3245 C282.557986,151.268166 282.627319,151.24 282.713986,151.24 L283.740986,151.24 L283.740986,149.069 C283.740986,148.982333 283.766986,148.910834 283.818986,148.8545 C283.870986,148.798166 283.940319,148.77 284.026986,148.77 L284.598986,148.77 C284.685653,148.77 284.757152,148.798166 284.813486,148.8545 C284.86982,148.910834 284.897986,148.982333 284.897986,149.069 L284.897986,151.24 L286.509986,151.24 C286.596653,151.24 286.668152,151.268166 286.724486,151.3245 C286.78082,151.380834 286.808986,151.452333 286.808986,151.539 L286.808986,151.955 C286.808986,152.041667 286.78082,152.111 286.724486,152.163 C286.668152,152.215 286.596653,152.241 286.509986,152.241 L284.897986,152.241 L284.897986,155.634 C284.897986,156.076002 284.969485,156.409666 285.112486,156.635 C285.255487,156.860334 285.500318,156.973 285.846986,156.973 L286.639986,156.973 C286.726653,156.973 286.795986,157.001166 286.847986,157.0575 C286.899986,157.113834 286.925986,157.185333 286.925986,157.272 L286.925986,157.701 C286.925986,157.787667 286.899986,157.859166 286.847986,157.9155 C286.795986,157.971834 286.726653,158 286.639986,158 L285.755986,158 Z M290.330736,158.13 C289.906067,158.13 289.513904,158.043334 289.154236,157.87 C288.794568,157.696666 288.50857,157.460501 288.296236,157.1615 C288.083902,156.862499 287.977736,156.531002 287.977736,156.167 C287.977736,155.594997 288.211734,155.127002 288.679736,154.763 C289.147738,154.398998 289.784732,154.156334 290.590736,154.035 L292.540736,153.762 L292.540736,153.385 C292.540736,152.492329 292.025075,152.046 290.993736,152.046 C290.595067,152.046 290.274404,152.126166 290.031736,152.2865 C289.789068,152.446834 289.611403,152.635332 289.498736,152.852 C289.464069,152.938667 289.427236,152.997167 289.388236,153.0275 C289.349236,153.057833 289.29507,153.073 289.225736,153.073 L288.718736,153.073 C288.640736,153.073 288.57357,153.044834 288.517236,152.9885 C288.460902,152.932166 288.432736,152.865 288.432736,152.787 C288.432736,152.587666 288.525902,152.355835 288.712236,152.0915 C288.89857,151.827165 289.186734,151.597501 289.576736,151.4025 C289.966738,151.207499 290.4434,151.11 291.006736,151.11 C291.977408,151.11 292.672901,151.335331 293.093236,151.786 C293.513571,152.236669 293.723736,152.799997 293.723736,153.476 L293.723736,157.701 C293.723736,157.787667 293.69557,157.859166 293.639236,157.9155 C293.582902,157.971834 293.511403,158 293.424736,158 L292.852736,158 C292.766069,158 292.696736,157.971834 292.644736,157.9155 C292.592736,157.859166 292.566736,157.787667 292.566736,157.701 L292.566736,157.129 C292.376068,157.415001 292.098738,157.653332 291.734736,157.844 C291.370734,158.034668 290.902739,158.13 290.330736,158.13 Z M290.590736,157.181 C291.162739,157.181 291.630734,156.994669 291.994736,156.622 C292.358738,156.249331 292.540736,155.70767 292.540736,154.997 L292.540736,154.633 L291.019736,154.854 C290.395733,154.940667 289.923404,155.087999 289.602736,155.296 C289.282068,155.504001 289.121736,155.763998 289.121736,156.076 C289.121736,156.431335 289.266901,156.704332 289.557236,156.895 C289.847571,157.085668 290.192067,157.181 290.590736,157.181 Z M299.169486,158.13 C298.233481,158.13 297.518488,157.80067 297.024486,157.142 L297.024486,157.701 C297.024486,157.787667 296.99632,157.859166 296.939986,157.9155 C296.883652,157.971834 296.812153,158 296.725486,158 L296.179486,158 C296.092819,158 296.02132,157.971834 295.964986,157.9155 C295.908652,157.859166 295.880486,157.787667 295.880486,157.701 L295.880486,149.069 C295.880486,148.973666 295.908652,148.9 295.964986,148.848 C296.02132,148.796 296.092819,148.77 296.179486,148.77 L296.764486,148.77 C296.851153,148.77 296.922652,148.798166 296.978986,148.8545 C297.03532,148.910834 297.063486,148.982333 297.063486,149.069 L297.063486,152.072 C297.548822,151.430663 298.250815,151.11 299.169486,151.11 C300.079491,151.11 300.761984,151.40683 301.216986,152.0005 C301.671988,152.59417 301.912486,153.337329 301.938486,154.23 C301.947153,154.325334 301.951486,154.455333 301.951486,154.62 C301.951486,154.784667 301.947153,154.914666 301.938486,155.01 C301.912486,155.902671 301.671988,156.64583 301.216986,157.2395 C300.761984,157.83317 300.079491,158.13 299.169486,158.13 Z M298.922486,157.116 C299.546489,157.116 300.001485,156.921002 300.287486,156.531 C300.573487,156.140998 300.729486,155.62967 300.755486,154.997 C300.764153,154.910333 300.768486,154.784667 300.768486,154.62 C300.768486,152.955992 300.153159,152.124 298.922486,152.124 C298.33315,152.124 297.880321,152.316831 297.563986,152.7025 C297.247651,153.088169 297.080819,153.545331 297.063486,154.074 C297.054819,154.169334 297.050486,154.338332 297.050486,154.581 C297.050486,154.815001 297.054819,154.979666 297.063486,155.075 C297.080819,155.629669 297.243318,156.108498 297.550986,156.5115 C297.858654,156.914502 298.315816,157.116 298.922486,157.116 Z M304.160236,158 C304.073569,158 304.00207,157.971834 303.945736,157.9155 C303.889402,157.859166 303.861236,157.787667 303.861236,157.701 L303.861236,149.069 C303.861236,148.973666 303.889402,148.9 303.945736,148.848 C304.00207,148.796 304.073569,148.77 304.160236,148.77 L304.732236,148.77 C304.818903,148.77 304.890402,148.798166 304.946736,148.8545 C305.00307,148.910834 305.031236,148.982333 305.031236,149.069 L305.031236,157.701 C305.031236,157.787667 305.00307,157.859166 304.946736,157.9155 C304.890402,157.971834 304.818903,158 304.732236,158 L304.160236,158 Z M309.917986,158.13 C309.033982,158.13 308.327655,157.854836 307.798986,157.3045 C307.270317,156.754164 306.979986,156.002338 306.927986,155.049 L306.914986,154.607 L306.927986,154.178 C306.979986,153.241995 307.270317,152.496669 307.798986,151.942 C308.327655,151.387331 309.033982,151.11 309.917986,151.11 C310.871324,151.11 311.61015,151.41333 312.134486,152.02 C312.658822,152.62667 312.920986,153.449995 312.920986,154.49 L312.920986,154.724 C312.920986,154.810667 312.89282,154.882166 312.836486,154.9385 C312.780152,154.994834 312.708653,155.023 312.621986,155.023 L308.110986,155.023 L308.110986,155.14 C308.136986,155.703336 308.310318,156.184331 308.630986,156.583 C308.951654,156.981669 309.376317,157.181 309.904986,157.181 C310.312321,157.181 310.643818,157.100834 310.899486,156.9405 C311.155154,156.780166 311.347985,156.613334 311.477986,156.44 C311.555986,156.335999 311.616652,156.273167 311.659986,156.2515 C311.70332,156.229833 311.776985,156.219 311.880986,156.219 L312.452986,156.219 C312.530986,156.219 312.598152,156.240666 312.654486,156.284 C312.71082,156.327334 312.738986,156.383666 312.738986,156.453 C312.738986,156.643668 312.621987,156.873332 312.387986,157.142 C312.153985,157.410668 311.822488,157.642499 311.393486,157.8375 C310.964484,158.032501 310.472655,158.13 309.917986,158.13 Z M311.737986,154.139 L311.737986,154.1 C311.737986,153.49333 311.573321,152.999335 311.243986,152.618 C310.914651,152.236665 310.472655,152.046 309.917986,152.046 C309.35465,152.046 308.912654,152.236665 308.591986,152.618 C308.271318,152.999335 308.110986,153.49333 308.110986,154.1 L308.110986,154.139 L311.737986,154.139 Z M270.950861,173.13 C270.240191,173.13 269.622697,173.017334 269.098361,172.792 C268.574025,172.566666 268.175362,172.269835 267.902361,171.9015 C267.62936,171.533165 267.484194,171.136669 267.466861,170.712 C267.466861,170.642666 267.492861,170.582 267.544861,170.53 C267.596861,170.478 267.661861,170.452 267.739861,170.452 L268.376861,170.452 C268.532862,170.452 268.641194,170.538666 268.701861,170.712 C268.779861,171.076002 269.003026,171.390165 269.371361,171.6545 C269.739696,171.918835 270.266191,172.051 270.950861,172.051 C271.687531,172.051 272.237859,171.921001 272.601861,171.661 C272.965863,171.400999 273.147861,171.041336 273.147861,170.582 C273.147861,170.287332 273.059029,170.044668 272.881361,169.854 C272.703693,169.663332 272.439363,169.496501 272.088361,169.3535 C271.737359,169.210499 271.210865,169.035001 270.508861,168.827 C269.841524,168.636332 269.310696,168.432668 268.916361,168.216 C268.522026,167.999332 268.225195,167.732835 268.025861,167.4165 C267.826527,167.100165 267.726861,166.699336 267.726861,166.214 C267.726861,165.745998 267.852526,165.327835 268.103861,164.9595 C268.355196,164.591165 268.719192,164.300834 269.195861,164.0885 C269.67253,163.876166 270.235858,163.77 270.885861,163.77 C271.561864,163.77 272.140359,163.889165 272.621361,164.1275 C273.102363,164.365835 273.468526,164.664832 273.719861,165.0245 C273.971196,165.384168 274.105528,165.745998 274.122861,166.11 C274.122861,166.188 274.096861,166.253 274.044861,166.305 C273.992861,166.357 273.927861,166.383 273.849861,166.383 L273.199861,166.383 C273.130527,166.383 273.065528,166.361334 273.004861,166.318 C272.944194,166.274666 272.900861,166.209667 272.874861,166.123 C272.822861,165.750331 272.614863,165.442668 272.250861,165.2 C271.886859,164.957332 271.431864,164.836 270.885861,164.836 C270.296525,164.836 269.828529,164.950832 269.481861,165.1805 C269.135193,165.410168 268.961861,165.750331 268.961861,166.201 C268.961861,166.504335 269.042027,166.751332 269.202361,166.942 C269.362695,167.132668 269.609693,167.301666 269.943361,167.449 C270.277029,167.596334 270.764524,167.765332 271.405861,167.956 C272.142531,168.164001 272.721026,168.371999 273.141361,168.58 C273.561696,168.788001 273.87586,169.045832 274.083861,169.3535 C274.291862,169.661168 274.395861,170.057664 274.395861,170.543 C274.395861,171.357671 274.086031,171.992498 273.466361,172.4475 C272.846691,172.902502 272.0082,173.13 270.950861,173.13 Z M277.371611,175.47 C277.293611,175.47 277.228611,175.444 277.176611,175.392 C277.124611,175.34 277.098611,175.279334 277.098611,175.21 C277.098611,175.184 277.120277,175.106001 277.163611,174.976 L278.177611,172.597 L275.694611,166.734 C275.642611,166.629999 275.616611,166.556334 275.616611,166.513 C275.625278,166.435 275.655611,166.37 275.707611,166.318 C275.759611,166.266 275.820277,166.24 275.889611,166.24 L276.487611,166.24 C276.626278,166.24 276.730277,166.309333 276.799611,166.448 L278.801611,171.232 L280.855611,166.448 C280.924945,166.309333 281.028944,166.24 281.167611,166.24 L281.752611,166.24 C281.821945,166.24 281.882611,166.266 281.934611,166.318 C281.986611,166.37 282.012611,166.430666 282.012611,166.5 C282.012611,166.560667 281.990945,166.638666 281.947611,166.734 L278.268611,175.262 C278.225277,175.331334 278.179778,175.383333 278.132111,175.418 C278.084444,175.452667 278.021611,175.47 277.943611,175.47 L277.371611,175.47 Z M285.690361,173.13 C285.092358,173.13 284.58753,173.032501 284.175861,172.8375 C283.764192,172.642499 283.458695,172.419335 283.259361,172.168 C283.060027,171.916665 282.960361,171.708667 282.960361,171.544 C282.960361,171.457333 282.990694,171.390167 283.051361,171.3425 C283.112028,171.294833 283.177027,171.271 283.246361,171.271 L283.792361,171.271 C283.844361,171.271 283.885528,171.279667 283.915861,171.297 C283.946195,171.314333 283.987361,171.353333 284.039361,171.414 C284.238695,171.656668 284.46186,171.847333 284.708861,171.986 C284.955862,172.124667 285.287359,172.194 285.703361,172.194 C286.171363,172.194 286.546193,172.107334 286.827861,171.934 C287.109529,171.760666 287.250361,171.509335 287.250361,171.18 C287.250361,170.963332 287.189695,170.790001 287.068361,170.66 C286.947027,170.529999 286.745529,170.413001 286.463861,170.309 C286.182193,170.204999 285.76403,170.092334 285.209361,169.971 C284.455357,169.806333 283.922363,169.568002 283.610361,169.256 C283.298359,168.943998 283.142361,168.541002 283.142361,168.047 C283.142361,167.726332 283.237693,167.416501 283.428361,167.1175 C283.619029,166.818499 283.902859,166.575834 284.279861,166.3895 C284.656863,166.203166 285.105358,166.11 285.625361,166.11 C286.171364,166.11 286.637192,166.200999 287.022861,166.383 C287.40853,166.565001 287.69886,166.777332 287.893861,167.02 C288.088862,167.262668 288.186361,167.466333 288.186361,167.631 C288.186361,167.709 288.158195,167.774 288.101861,167.826 C288.045527,167.878 287.978361,167.904 287.900361,167.904 L287.406361,167.904 C287.285027,167.904 287.198361,167.856334 287.146361,167.761 C286.999027,167.596333 286.875528,167.4685 286.775861,167.3775 C286.676194,167.2865 286.531029,167.2085 286.340361,167.1435 C286.149693,167.0785 285.911362,167.046 285.625361,167.046 C285.200692,167.046 284.875695,167.134832 284.650361,167.3125 C284.425027,167.490168 284.312361,167.726332 284.312361,168.021 C284.312361,168.203001 284.360027,168.356833 284.455361,168.4825 C284.550695,168.608167 284.732693,168.725166 285.001361,168.8335 C285.270029,168.941834 285.668692,169.052333 286.197361,169.165 C287.020698,169.338334 287.603526,169.585332 287.945861,169.906 C288.288196,170.226668 288.459361,170.638331 288.459361,171.141 C288.459361,171.513669 288.353195,171.851665 288.140861,172.155 C287.928527,172.458335 287.612196,172.696666 287.191861,172.87 C286.771526,173.043334 286.271031,173.13 285.690361,173.13 Z M292.826111,173 C291.482771,173 290.811111,172.241674 290.811111,170.725 L290.811111,167.241 L289.784111,167.241 C289.697444,167.241 289.628111,167.215 289.576111,167.163 C289.524111,167.111 289.498111,167.041667 289.498111,166.955 L289.498111,166.539 C289.498111,166.452333 289.524111,166.380834 289.576111,166.3245 C289.628111,166.268166 289.697444,166.24 289.784111,166.24 L290.811111,166.24 L290.811111,164.069 C290.811111,163.982333 290.837111,163.910834 290.889111,163.8545 C290.941111,163.798166 291.010444,163.77 291.097111,163.77 L291.669111,163.77 C291.755778,163.77 291.827277,163.798166 291.883611,163.8545 C291.939945,163.910834 291.968111,163.982333 291.968111,164.069 L291.968111,166.24 L293.580111,166.24 C293.666778,166.24 293.738277,166.268166 293.794611,166.3245 C293.850945,166.380834 293.879111,166.452333 293.879111,166.539 L293.879111,166.955 C293.879111,167.041667 293.850945,167.111 293.794611,167.163 C293.738277,167.215 293.666778,167.241 293.580111,167.241 L291.968111,167.241 L291.968111,170.634 C291.968111,171.076002 292.03961,171.409666 292.182611,171.635 C292.325612,171.860334 292.570443,171.973 292.917111,171.973 L293.710111,171.973 C293.796778,171.973 293.866111,172.001166 293.918111,172.0575 C293.970111,172.113834 293.996111,172.185333 293.996111,172.272 L293.996111,172.701 C293.996111,172.787667 293.970111,172.859166 293.918111,172.9155 C293.866111,172.971834 293.796778,173 293.710111,173 L292.826111,173 Z M298.206861,173.13 C297.322857,173.13 296.61653,172.854836 296.087861,172.3045 C295.559192,171.754164 295.268861,171.002338 295.216861,170.049 L295.203861,169.607 L295.216861,169.178 C295.268861,168.241995 295.559192,167.496669 296.087861,166.942 C296.61653,166.387331 297.322857,166.11 298.206861,166.11 C299.160199,166.11 299.899025,166.41333 300.423361,167.02 C300.947697,167.62667 301.209861,168.449995 301.209861,169.49 L301.209861,169.724 C301.209861,169.810667 301.181695,169.882166 301.125361,169.9385 C301.069027,169.994834 300.997528,170.023 300.910861,170.023 L296.399861,170.023 L296.399861,170.14 C296.425861,170.703336 296.599193,171.184331 296.919861,171.583 C297.240529,171.981669 297.665192,172.181 298.193861,172.181 C298.601196,172.181 298.932693,172.100834 299.188361,171.9405 C299.444029,171.780166 299.63686,171.613334 299.766861,171.44 C299.844861,171.335999 299.905527,171.273167 299.948861,171.2515 C299.992195,171.229833 300.06586,171.219 300.169861,171.219 L300.741861,171.219 C300.819861,171.219 300.887027,171.240666 300.943361,171.284 C300.999695,171.327334 301.027861,171.383666 301.027861,171.453 C301.027861,171.643668 300.910862,171.873332 300.676861,172.142 C300.44286,172.410668 300.111363,172.642499 299.682361,172.8375 C299.253359,173.032501 298.76153,173.13 298.206861,173.13 Z M300.026861,169.139 L300.026861,169.1 C300.026861,168.49333 299.862196,167.999335 299.532861,167.618 C299.203526,167.236665 298.76153,167.046 298.206861,167.046 C297.643525,167.046 297.201529,167.236665 296.880861,167.618 C296.560193,167.999335 296.399861,168.49333 296.399861,169.1 L296.399861,169.139 L300.026861,169.139 Z M303.353611,173 C303.266944,173 303.195445,172.971834 303.139111,172.9155 C303.082777,172.859166 303.054611,172.787667 303.054611,172.701 L303.054611,166.539 C303.054611,166.452333 303.082777,166.380834 303.139111,166.3245 C303.195445,166.268166 303.266944,166.24 303.353611,166.24 L303.899611,166.24 C303.986278,166.24 304.055611,166.268166 304.107611,166.3245 C304.159611,166.380834 304.185611,166.452333 304.185611,166.539 L304.185611,166.981 C304.653613,166.40033 305.286274,166.11 306.083611,166.11 C307.036949,166.11 307.712942,166.508663 308.111611,167.306 C308.319612,166.941998 308.616442,166.651668 309.002111,166.435 C309.38778,166.218332 309.818942,166.11 310.295611,166.11 C311.006281,166.11 311.586942,166.352664 312.037611,166.838 C312.48828,167.323336 312.713611,168.025329 312.713611,168.944 L312.713611,172.701 C312.713611,172.787667 312.685445,172.859166 312.629111,172.9155 C312.572777,172.971834 312.501278,173 312.414611,173 L311.855611,173 C311.768944,173 311.697445,172.971834 311.641111,172.9155 C311.584777,172.859166 311.556611,172.787667 311.556611,172.701 L311.556611,169.061 C311.556611,168.367663 311.413612,167.871501 311.127611,167.5725 C310.84161,167.273499 310.464613,167.124 309.996611,167.124 C309.580609,167.124 309.223113,167.277832 308.924111,167.5855 C308.62511,167.893168 308.475611,168.384997 308.475611,169.061 L308.475611,172.701 C308.475611,172.787667 308.447445,172.859166 308.391111,172.9155 C308.334777,172.971834 308.263278,173 308.176611,173 L307.604611,173 C307.517944,173 307.446445,172.971834 307.390111,172.9155 C307.333777,172.859166 307.305611,172.787667 307.305611,172.701 L307.305611,169.061 C307.305611,168.37633 307.156113,167.882335 306.857111,167.579 C306.55811,167.275665 306.187613,167.124 305.745611,167.124 C305.329609,167.124 304.972113,167.275665 304.673111,167.579 C304.37411,167.882335 304.224611,168.371997 304.224611,169.048 L304.224611,172.701 C304.224611,172.787667 304.196445,172.859166 304.140111,172.9155 C304.083777,172.971834 304.012278,173 303.925611,173 L303.353611,173 Z M317.171361,173.13 C316.573358,173.13 316.06853,173.032501 315.656861,172.8375 C315.245192,172.642499 314.939695,172.419335 314.740361,172.168 C314.541027,171.916665 314.441361,171.708667 314.441361,171.544 C314.441361,171.457333 314.471694,171.390167 314.532361,171.3425 C314.593028,171.294833 314.658027,171.271 314.727361,171.271 L315.273361,171.271 C315.325361,171.271 315.366528,171.279667 315.396861,171.297 C315.427194,171.314333 315.468361,171.353333 315.520361,171.414 C315.719695,171.656668 315.94286,171.847333 316.189861,171.986 C316.436862,172.124667 316.768359,172.194 317.184361,172.194 C317.652363,172.194 318.027193,172.107334 318.308861,171.934 C318.590529,171.760666 318.731361,171.509335 318.731361,171.18 C318.731361,170.963332 318.670695,170.790001 318.549361,170.66 C318.428027,170.529999 318.226529,170.413001 317.944861,170.309 C317.663193,170.204999 317.24503,170.092334 316.690361,169.971 C315.936357,169.806333 315.403363,169.568002 315.091361,169.256 C314.779359,168.943998 314.623361,168.541002 314.623361,168.047 C314.623361,167.726332 314.718693,167.416501 314.909361,167.1175 C315.100029,166.818499 315.383859,166.575834 315.760861,166.3895 C316.137863,166.203166 316.586358,166.11 317.106361,166.11 C317.652364,166.11 318.118192,166.200999 318.503861,166.383 C318.88953,166.565001 319.17986,166.777332 319.374861,167.02 C319.569862,167.262668 319.667361,167.466333 319.667361,167.631 C319.667361,167.709 319.639195,167.774 319.582861,167.826 C319.526527,167.878 319.459361,167.904 319.381361,167.904 L318.887361,167.904 C318.766027,167.904 318.679361,167.856334 318.627361,167.761 C318.480027,167.596333 318.356528,167.4685 318.256861,167.3775 C318.157194,167.2865 318.012029,167.2085 317.821361,167.1435 C317.630693,167.0785 317.392362,167.046 317.106361,167.046 C316.681692,167.046 316.356695,167.134832 316.131361,167.3125 C315.906027,167.490168 315.793361,167.726332 315.793361,168.021 C315.793361,168.203001 315.841027,168.356833 315.936361,168.4825 C316.031695,168.608167 316.213693,168.725166 316.482361,168.8335 C316.751029,168.941834 317.149692,169.052333 317.678361,169.165 C318.501698,169.338334 319.084526,169.585332 319.426861,169.906 C319.769196,170.226668 319.940361,170.638331 319.940361,171.141 C319.940361,171.513669 319.834195,171.851665 319.621861,172.155 C319.409527,172.458335 319.093196,172.696666 318.672861,172.87 C318.252526,173.043334 317.752031,173.13 317.171361,173.13 Z" id="Stable-Systems" fill="#000000"></path>
                            <path d="M106.834559,157.12 C106.114556,157.12 105.498562,157.012001 104.986559,156.796 C104.474557,156.579999 104.086561,156.296002 103.822559,155.944 C103.558558,155.591998 103.41856,155.208002 103.402559,154.792 C103.402559,154.728 103.426559,154.67 103.474559,154.618 C103.52256,154.566 103.582559,154.54 103.654559,154.54 L104.746559,154.54 C104.83456,154.54 104.906559,154.56 104.962559,154.6 C105.01856,154.64 105.070559,154.696 105.118559,154.768 C105.19856,155.040001 105.380558,155.267999 105.664559,155.452 C105.948561,155.636001 106.338557,155.728 106.834559,155.728 C107.394562,155.728 107.816558,155.634001 108.100559,155.446 C108.384561,155.257999 108.526559,155.000002 108.526559,154.672 C108.526559,154.455999 108.45456,154.276001 108.310559,154.132 C108.166559,153.987999 107.948561,153.862001 107.656559,153.754 C107.364558,153.645999 106.930562,153.516001 106.354559,153.364 C105.410555,153.139999 104.718562,152.844002 104.278559,152.476 C103.838557,152.107998 103.618559,151.580003 103.618559,150.892 C103.618559,150.427998 103.746558,150.014002 104.002559,149.65 C104.258561,149.285998 104.624557,149.000001 105.100559,148.792 C105.576562,148.583999 106.130556,148.48 106.762559,148.48 C107.426563,148.48 108.000557,148.595999 108.484559,148.828 C108.968562,149.060001 109.336558,149.349998 109.588559,149.698 C109.840561,150.046002 109.974559,150.391998 109.990559,150.736 C109.990559,150.8 109.96656,150.858 109.918559,150.91 C109.870559,150.962 109.81056,150.988 109.738559,150.988 L108.598559,150.988 C108.422559,150.988 108.30256,150.916001 108.238559,150.772 C108.198559,150.515999 108.042561,150.302001 107.770559,150.13 C107.498558,149.957999 107.162561,149.872 106.762559,149.872 C106.322557,149.872 105.976561,149.955999 105.724559,150.124 C105.472558,150.292001 105.346559,150.535998 105.346559,150.856 C105.346559,151.072001 105.410559,151.251999 105.538559,151.396 C105.66656,151.540001 105.866558,151.665999 106.138559,151.774 C106.410561,151.882001 106.806557,152.003999 107.326559,152.14 C108.038563,152.300001 108.604557,152.479999 109.024559,152.68 C109.444562,152.880001 109.754558,153.131998 109.954559,153.436 C110.15456,153.740002 110.254559,154.127998 110.254559,154.6 C110.254559,155.120003 110.112561,155.569998 109.828559,155.95 C109.544558,156.330002 109.144562,156.619999 108.628559,156.82 C108.112557,157.020001 107.514563,157.12 106.834559,157.12 Z M112.281684,157 C112.201684,157 112.133685,156.972 112.077684,156.916 C112.021684,156.86 111.993684,156.792 111.993684,156.712 L111.993684,148.768 C111.993684,148.68 112.021684,148.61 112.077684,148.558 C112.133685,148.506 112.201684,148.48 112.281684,148.48 L113.277684,148.48 C113.357685,148.48 113.425684,148.508 113.481684,148.564 C113.537685,148.62 113.565684,148.688 113.565684,148.768 L113.565684,152.872 L115.557684,150.964 C115.581685,150.948 115.619684,150.918 115.671684,150.874 C115.723685,150.83 115.773684,150.8 115.821684,150.784 C115.869685,150.768 115.929684,150.76 116.001684,150.76 L117.141684,150.76 C117.221685,150.76 117.285684,150.784 117.333684,150.832 C117.381685,150.88 117.405684,150.944 117.405684,151.024 C117.405684,151.096 117.365685,151.168 117.285684,151.24 L114.837684,153.556 L117.585684,156.532 C117.657685,156.604 117.693684,156.672 117.693684,156.736 C117.693684,156.816 117.669685,156.88 117.621684,156.928 C117.573684,156.976 117.513685,157 117.441684,157 L116.277684,157 C116.165684,157 116.083685,156.986 116.031684,156.958 C115.979684,156.93 115.913685,156.876 115.833684,156.796 L113.565684,154.384 L113.565684,156.712 C113.565684,156.792 113.537685,156.86 113.481684,156.916 C113.425684,156.972 113.357685,157 113.277684,157 L112.281684,157 Z M119.348809,149.74 C119.268809,149.74 119.20081,149.712 119.144809,149.656 C119.088809,149.6 119.060809,149.532 119.060809,149.452 L119.060809,148.576 C119.060809,148.488 119.088809,148.416 119.144809,148.36 C119.20081,148.304 119.268809,148.276 119.348809,148.276 L120.452809,148.276 C120.54081,148.276 120.612809,148.304 120.668809,148.36 C120.72481,148.416 120.752809,148.488 120.752809,148.576 L120.752809,149.452 C120.752809,149.532 120.72281,149.6 120.662809,149.656 C120.602809,149.712 120.53281,149.74 120.452809,149.74 L119.348809,149.74 Z M119.396809,157 C119.316809,157 119.24881,156.972 119.192809,156.916 C119.136809,156.86 119.108809,156.792 119.108809,156.712 L119.108809,151.048 C119.108809,150.96 119.136809,150.89 119.192809,150.838 C119.24881,150.786 119.316809,150.76 119.396809,150.76 L120.416809,150.76 C120.49681,150.76 120.564809,150.788 120.620809,150.844 C120.67681,150.9 120.704809,150.968 120.704809,151.048 L120.704809,156.712 C120.704809,156.792 120.67681,156.86 120.620809,156.916 C120.564809,156.972 120.49681,157 120.416809,157 L119.396809,157 Z M123.091934,157 C123.011934,157 122.943935,156.972 122.887934,156.916 C122.831934,156.86 122.803934,156.792 122.803934,156.712 L122.803934,148.768 C122.803934,148.68 122.831934,148.61 122.887934,148.558 C122.943935,148.506 123.011934,148.48 123.091934,148.48 L124.099934,148.48 C124.187935,148.48 124.257934,148.506 124.309934,148.558 C124.361935,148.61 124.387934,148.68 124.387934,148.768 L124.387934,156.712 C124.387934,156.792 124.361935,156.86 124.309934,156.916 C124.257934,156.972 124.187935,157 124.099934,157 L123.091934,157 Z M126.787059,157 C126.707059,157 126.63906,156.972 126.583059,156.916 C126.527059,156.86 126.499059,156.792 126.499059,156.712 L126.499059,148.768 C126.499059,148.68 126.527059,148.61 126.583059,148.558 C126.63906,148.506 126.707059,148.48 126.787059,148.48 L127.795059,148.48 C127.88306,148.48 127.953059,148.506 128.005059,148.558 C128.05706,148.61 128.083059,148.68 128.083059,148.768 L128.083059,156.712 C128.083059,156.792 128.05706,156.86 128.005059,156.916 C127.953059,156.972 127.88306,157 127.795059,157 L126.787059,157 Z M131.142184,157 C131.062184,157 130.994185,156.972 130.938184,156.916 C130.882184,156.86 130.854184,156.792 130.854184,156.712 L130.854184,152.044 L129.882184,152.044 C129.802184,152.044 129.734185,152.016 129.678184,151.96 C129.622184,151.904 129.594184,151.836 129.594184,151.756 L129.594184,151.048 C129.594184,150.968 129.622184,150.9 129.678184,150.844 C129.734185,150.788 129.802184,150.76 129.882184,150.76 L130.854184,150.76 L130.854184,150.28 C130.854184,149.551996 131.050182,149.010002 131.442184,148.654 C131.834186,148.297998 132.42618,148.12 133.218184,148.12 L134.046184,148.12 C134.126185,148.12 134.194184,148.148 134.250184,148.204 C134.306185,148.26 134.334184,148.328 134.334184,148.408 L134.334184,149.116 C134.334184,149.196 134.306185,149.264 134.250184,149.32 C134.194184,149.376 134.126185,149.404 134.046184,149.404 L133.278184,149.404 C132.966183,149.404 132.746185,149.479999 132.618184,149.632 C132.490184,149.784001 132.426184,150.019998 132.426184,150.34 L132.426184,150.76 L133.926184,150.76 C134.006185,150.76 134.074184,150.788 134.130184,150.844 C134.186185,150.9 134.214184,150.968 134.214184,151.048 L134.214184,151.756 C134.214184,151.836 134.186185,151.904 134.130184,151.96 C134.074184,152.016 134.006185,152.044 133.926184,152.044 L132.426184,152.044 L132.426184,156.712 C132.426184,156.792 132.400185,156.86 132.348184,156.916 C132.296184,156.972 132.226185,157 132.138184,157 L131.142184,157 Z M137.981309,157.12 C137.245306,157.12 136.665312,156.880002 136.241309,156.4 C135.817307,155.919998 135.605309,155.260004 135.605309,154.42 L135.605309,151.048 C135.605309,150.96 135.633309,150.89 135.689309,150.838 C135.74531,150.786 135.813309,150.76 135.893309,150.76 L136.973309,150.76 C137.05331,150.76 137.121309,150.788 137.177309,150.844 C137.23331,150.9 137.261309,150.968 137.261309,151.048 L137.261309,154.348 C137.261309,155.332005 137.689305,155.824 138.545309,155.824 C138.961312,155.824 139.291308,155.692001 139.535309,155.428 C139.779311,155.163999 139.901309,154.804002 139.901309,154.348 L139.901309,151.048 C139.901309,150.96 139.929309,150.89 139.985309,150.838 C140.04131,150.786 140.109309,150.76 140.189309,150.76 L141.257309,150.76 C141.34531,150.76 141.415309,150.786 141.467309,150.838 C141.51931,150.89 141.545309,150.96 141.545309,151.048 L141.545309,156.712 C141.545309,156.792 141.51931,156.86 141.467309,156.916 C141.415309,156.972 141.34531,157 141.257309,157 L140.261309,157 C140.181309,157 140.11331,156.972 140.057309,156.916 C140.001309,156.86 139.973309,156.792 139.973309,156.712 L139.973309,156.22 C139.533307,156.820003 138.869314,157.12 137.981309,157.12 Z M143.932434,157 C143.852434,157 143.784435,156.972 143.728434,156.916 C143.672434,156.86 143.644434,156.792 143.644434,156.712 L143.644434,148.768 C143.644434,148.68 143.672434,148.61 143.728434,148.558 C143.784435,148.506 143.852434,148.48 143.932434,148.48 L144.940434,148.48 C145.028435,148.48 145.098434,148.506 145.150434,148.558 C145.202435,148.61 145.228434,148.68 145.228434,148.768 L145.228434,156.712 C145.228434,156.792 145.202435,156.86 145.150434,156.916 C145.098434,156.972 145.028435,157 144.940434,157 L143.932434,157 Z M91.7038719,171 C91.6238715,171 91.5558722,170.972 91.4998719,170.916 C91.4438717,170.86 91.4158719,170.792 91.4158719,170.712 L91.4158719,162.888 C91.4158719,162.8 91.4438717,162.73 91.4998719,162.678 C91.5558722,162.626 91.6238715,162.6 91.7038719,162.6 L92.8558719,162.6 C92.9438724,162.6 93.0138717,162.626 93.0658719,162.678 C93.1178722,162.73 93.1438719,162.8 93.1438719,162.888 L93.1438719,170.712 C93.1438719,170.792 93.1178722,170.86 93.0658719,170.916 C93.0138717,170.972 92.9438724,171 92.8558719,171 L91.7038719,171 Z M95.6629969,171 C95.5829965,171 95.5149972,170.972 95.4589969,170.916 C95.4029967,170.86 95.3749969,170.792 95.3749969,170.712 L95.3749969,165.048 C95.3749969,164.96 95.4029967,164.89 95.4589969,164.838 C95.5149972,164.786 95.5829965,164.76 95.6629969,164.76 L96.6589969,164.76 C96.7469974,164.76 96.8169967,164.786 96.8689969,164.838 C96.9209972,164.89 96.9469969,164.96 96.9469969,165.048 L96.9469969,165.54 C97.4349994,164.939997 98.1029927,164.64 98.9509969,164.64 C99.6870006,164.64 100.270995,164.879998 100.702997,165.36 C101.134999,165.840002 101.350997,166.499996 101.350997,167.34 L101.350997,170.712 C101.350997,170.792 101.324997,170.86 101.272997,170.916 C101.220997,170.972 101.150997,171 101.062997,171 L99.9829969,171 C99.9029965,171 99.8349972,170.972 99.7789969,170.916 C99.7229967,170.86 99.6949969,170.792 99.6949969,170.712 L99.6949969,167.412 C99.6949969,166.947998 99.5809981,166.586001 99.3529969,166.326 C99.1249958,166.065999 98.7989991,165.936 98.3749969,165.936 C97.9669949,165.936 97.6389982,166.067999 97.3909969,166.332 C97.1429957,166.596001 97.0189969,166.955998 97.0189969,167.412 L97.0189969,170.712 C97.0189969,170.792 96.9929972,170.86 96.9409969,170.916 C96.8889967,170.972 96.8189974,171 96.7309969,171 L95.6629969,171 Z M105.694122,171.12 C104.886118,171.12 104.266124,170.862003 103.834122,170.346 C103.40212,169.829997 103.166122,169.140004 103.126122,168.276 L103.114122,167.88 L103.126122,167.484 C103.158122,166.635996 103.39212,165.950003 103.828122,165.426 C104.264124,164.901997 104.886118,164.64 105.694122,164.64 C106.462126,164.64 107.07412,164.903997 107.530122,165.432 L107.530122,162.768 C107.530122,162.68 107.558122,162.61 107.614122,162.558 C107.670122,162.506 107.738122,162.48 107.818122,162.48 L108.862122,162.48 C108.950122,162.48 109.020122,162.506 109.072122,162.558 C109.124122,162.61 109.150122,162.68 109.150122,162.768 L109.150122,170.712 C109.150122,170.792 109.124122,170.86 109.072122,170.916 C109.020122,170.972 108.950122,171 108.862122,171 L107.890122,171 C107.810122,171 107.742122,170.972 107.686122,170.916 C107.630122,170.86 107.602122,170.792 107.602122,170.712 L107.602122,170.268 C107.16212,170.836003 106.526126,171.12 105.694122,171.12 Z M106.150122,169.824 C106.606124,169.824 106.944121,169.678001 107.164122,169.386 C107.384123,169.093999 107.506122,168.732002 107.530122,168.3 C107.538122,168.204 107.542122,168.052001 107.542122,167.844 C107.542122,167.627999 107.538122,167.472 107.530122,167.376 C107.514122,166.975998 107.390123,166.636001 107.158122,166.356 C106.926121,166.075999 106.590124,165.936 106.150122,165.936 C105.294118,165.936 104.838122,166.463995 104.782122,167.52 L104.770122,167.88 L104.782122,168.24 C104.838122,169.296005 105.294118,169.824 106.150122,169.824 Z M111.489247,163.74 C111.409247,163.74 111.341247,163.712 111.285247,163.656 C111.229247,163.6 111.201247,163.532 111.201247,163.452 L111.201247,162.576 C111.201247,162.488 111.229247,162.416 111.285247,162.36 C111.341247,162.304 111.409247,162.276 111.489247,162.276 L112.593247,162.276 C112.681247,162.276 112.753247,162.304 112.809247,162.36 C112.865247,162.416 112.893247,162.488 112.893247,162.576 L112.893247,163.452 C112.893247,163.532 112.863247,163.6 112.803247,163.656 C112.743247,163.712 112.673247,163.74 112.593247,163.74 L111.489247,163.74 Z M111.537247,171 C111.457247,171 111.389247,170.972 111.333247,170.916 C111.277247,170.86 111.249247,170.792 111.249247,170.712 L111.249247,165.048 C111.249247,164.96 111.277247,164.89 111.333247,164.838 C111.389247,164.786 111.457247,164.76 111.537247,164.76 L112.557247,164.76 C112.637247,164.76 112.705247,164.788 112.761247,164.844 C112.817247,164.9 112.845247,164.968 112.845247,165.048 L112.845247,170.712 C112.845247,170.792 112.817247,170.86 112.761247,170.916 C112.705247,170.972 112.637247,171 112.557247,171 L111.537247,171 Z M117.140372,171 C117.020371,171 116.928372,170.974 116.864372,170.922 C116.800372,170.87 116.748372,170.796 116.708372,170.7 L114.452372,165.132 C114.444372,165.108 114.440372,165.072 114.440372,165.024 C114.440372,164.952 114.466372,164.89 114.518372,164.838 C114.570372,164.786 114.628372,164.76 114.692372,164.76 L115.688372,164.76 C115.848373,164.76 115.956372,164.835999 116.012372,164.988 L117.596372,169.176 L119.180372,164.988 C119.196372,164.932 119.230372,164.88 119.282372,164.832 C119.334372,164.784 119.404372,164.76 119.492372,164.76 L120.488372,164.76 C120.560372,164.76 120.620372,164.786 120.668372,164.838 C120.716372,164.89 120.740372,164.952 120.740372,165.024 C120.740372,165.072 120.736372,165.108 120.728372,165.132 L118.484372,170.7 C118.396372,170.900001 118.252373,171 118.052372,171 L117.140372,171 Z M122.575497,163.74 C122.495497,163.74 122.427497,163.712 122.371497,163.656 C122.315497,163.6 122.287497,163.532 122.287497,163.452 L122.287497,162.576 C122.287497,162.488 122.315497,162.416 122.371497,162.36 C122.427497,162.304 122.495497,162.276 122.575497,162.276 L123.679497,162.276 C123.767497,162.276 123.839497,162.304 123.895497,162.36 C123.951497,162.416 123.979497,162.488 123.979497,162.576 L123.979497,163.452 C123.979497,163.532 123.949497,163.6 123.889497,163.656 C123.829497,163.712 123.759497,163.74 123.679497,163.74 L122.575497,163.74 Z M122.623497,171 C122.543497,171 122.475497,170.972 122.419497,170.916 C122.363497,170.86 122.335497,170.792 122.335497,170.712 L122.335497,165.048 C122.335497,164.96 122.363497,164.89 122.419497,164.838 C122.475497,164.786 122.543497,164.76 122.623497,164.76 L123.643497,164.76 C123.723497,164.76 123.791497,164.788 123.847497,164.844 C123.903497,164.9 123.931497,164.968 123.931497,165.048 L123.931497,170.712 C123.931497,170.792 123.903497,170.86 123.847497,170.916 C123.791497,170.972 123.723497,171 123.643497,171 L122.623497,171 Z M128.334622,171.12 C127.526618,171.12 126.906624,170.862003 126.474622,170.346 C126.04262,169.829997 125.806622,169.140004 125.766622,168.276 L125.754622,167.88 L125.766622,167.484 C125.798622,166.635996 126.03262,165.950003 126.468622,165.426 C126.904624,164.901997 127.526618,164.64 128.334622,164.64 C129.102626,164.64 129.71462,164.903997 130.170622,165.432 L130.170622,162.768 C130.170622,162.68 130.198622,162.61 130.254622,162.558 C130.310622,162.506 130.378622,162.48 130.458622,162.48 L131.502622,162.48 C131.590622,162.48 131.660622,162.506 131.712622,162.558 C131.764622,162.61 131.790622,162.68 131.790622,162.768 L131.790622,170.712 C131.790622,170.792 131.764622,170.86 131.712622,170.916 C131.660622,170.972 131.590622,171 131.502622,171 L130.530622,171 C130.450622,171 130.382622,170.972 130.326622,170.916 C130.270622,170.86 130.242622,170.792 130.242622,170.712 L130.242622,170.268 C129.80262,170.836003 129.166626,171.12 128.334622,171.12 Z M128.790622,169.824 C129.246624,169.824 129.584621,169.678001 129.804622,169.386 C130.024623,169.093999 130.146622,168.732002 130.170622,168.3 C130.178622,168.204 130.182622,168.052001 130.182622,167.844 C130.182622,167.627999 130.178622,167.472 130.170622,167.376 C130.154622,166.975998 130.030623,166.636001 129.798622,166.356 C129.566621,166.075999 129.230624,165.936 128.790622,165.936 C127.934618,165.936 127.478622,166.463995 127.422622,167.52 L127.410622,167.88 L127.422622,168.24 C127.478622,169.296005 127.934618,169.824 128.790622,169.824 Z M136.205747,171.12 C135.469743,171.12 134.889749,170.880002 134.465747,170.4 C134.041745,169.919998 133.829747,169.260004 133.829747,168.42 L133.829747,165.048 C133.829747,164.96 133.857747,164.89 133.913747,164.838 C133.969747,164.786 134.037747,164.76 134.117747,164.76 L135.197747,164.76 C135.277747,164.76 135.345747,164.788 135.401747,164.844 C135.457747,164.9 135.485747,164.968 135.485747,165.048 L135.485747,168.348 C135.485747,169.332005 135.913743,169.824 136.769747,169.824 C137.185749,169.824 137.515746,169.692001 137.759747,169.428 C138.003748,169.163999 138.125747,168.804002 138.125747,168.348 L138.125747,165.048 C138.125747,164.96 138.153747,164.89 138.209747,164.838 C138.265747,164.786 138.333747,164.76 138.413747,164.76 L139.481747,164.76 C139.569747,164.76 139.639747,164.786 139.691747,164.838 C139.743747,164.89 139.769747,164.96 139.769747,165.048 L139.769747,170.712 C139.769747,170.792 139.743747,170.86 139.691747,170.916 C139.639747,170.972 139.569747,171 139.481747,171 L138.485747,171 C138.405747,171 138.337747,170.972 138.281747,170.916 C138.225747,170.86 138.197747,170.792 138.197747,170.712 L138.197747,170.22 C137.757745,170.820003 137.093751,171.12 136.205747,171.12 Z M143.668872,171.12 C143.26087,171.12 142.886874,171.038001 142.546872,170.874 C142.20687,170.709999 141.938873,170.488001 141.742872,170.208 C141.546871,169.927999 141.448872,169.620002 141.448872,169.284 C141.448872,168.739997 141.66887,168.300002 142.108872,167.964 C142.548874,167.627998 143.152868,167.400001 143.920872,167.28 L145.564872,167.04 L145.564872,166.788 C145.564872,166.443998 145.476873,166.184001 145.300872,166.008 C145.124871,165.831999 144.844874,165.744 144.460872,165.744 C144.196871,165.744 143.984873,165.792 143.824872,165.888 C143.664871,165.984 143.534872,166.081999 143.434872,166.182 L143.236872,166.38 C143.204872,166.476 143.144872,166.524 143.056872,166.524 L142.120872,166.524 C142.048872,166.524 141.986872,166.5 141.934872,166.452 C141.882872,166.404 141.856872,166.34 141.856872,166.26 C141.864872,166.059999 141.962871,165.834001 142.150872,165.582 C142.338873,165.329999 142.62887,165.110001 143.020872,164.922 C143.412874,164.733999 143.896869,164.64 144.472872,164.64 C145.416877,164.64 146.10487,164.851998 146.536872,165.276 C146.968874,165.700002 147.184872,166.255997 147.184872,166.944 L147.184872,170.712 C147.184872,170.792 147.158872,170.86 147.106872,170.916 C147.054872,170.972 146.984872,171 146.896872,171 L145.900872,171 C145.820872,171 145.752872,170.972 145.696872,170.916 C145.640872,170.86 145.612872,170.792 145.612872,170.712 L145.612872,170.244 C145.436871,170.500001 145.188874,170.709999 144.868872,170.874 C144.54887,171.038001 144.148874,171.12 143.668872,171.12 Z M144.076872,169.968 C144.516874,169.968 144.876871,169.824001 145.156872,169.536 C145.436873,169.247999 145.576872,168.832003 145.576872,168.288 L145.576872,168.048 L144.376872,168.24 C143.456867,168.384001 142.996872,168.691998 142.996872,169.164 C142.996872,169.420001 143.102871,169.617999 143.314872,169.758 C143.526873,169.898001 143.78087,169.968 144.076872,169.968 Z M149.523997,171 C149.443997,171 149.375997,170.972 149.319997,170.916 C149.263997,170.86 149.235997,170.792 149.235997,170.712 L149.235997,162.768 C149.235997,162.68 149.263997,162.61 149.319997,162.558 C149.375997,162.506 149.443997,162.48 149.523997,162.48 L150.531997,162.48 C150.619997,162.48 150.689997,162.506 150.741997,162.558 C150.793997,162.61 150.819997,162.68 150.819997,162.768 L150.819997,170.712 C150.819997,170.792 150.793997,170.86 150.741997,170.916 C150.689997,170.972 150.619997,171 150.531997,171 L149.523997,171 Z M155.295122,171.12 C154.687119,171.12 154.179124,171.028001 153.771122,170.844 C153.36312,170.659999 153.061123,170.446001 152.865122,170.202 C152.669121,169.957999 152.571122,169.748001 152.571122,169.572 C152.571122,169.492 152.597122,169.428 152.649122,169.38 C152.701122,169.332 152.763122,169.308 152.835122,169.308 L153.819122,169.308 C153.883122,169.308 153.939122,169.34 153.987122,169.404 C154.027122,169.436 154.117121,169.511999 154.257122,169.632 C154.397123,169.752001 154.557121,169.846 154.737122,169.914 C154.917123,169.982 155.115121,170.016 155.331122,170.016 C155.651124,170.016 155.911121,169.954001 156.111122,169.83 C156.311123,169.705999 156.411122,169.528001 156.411122,169.296 C156.411122,169.135999 156.365122,169.006 156.273122,168.906 C156.181121,168.805999 156.017123,168.714 155.781122,168.63 C155.545121,168.546 155.191124,168.452001 154.719122,168.348 C154.039119,168.203999 153.537124,167.984001 153.213122,167.688 C152.88912,167.391999 152.727122,167.000002 152.727122,166.512 C152.727122,166.191998 152.823121,165.890001 153.015122,165.606 C153.207123,165.321999 153.49312,165.090001 153.873122,164.91 C154.253124,164.729999 154.707119,164.64 155.235122,164.64 C155.779125,164.64 156.24712,164.725999 156.639122,164.898 C157.031124,165.070001 157.329121,165.275999 157.533122,165.516 C157.737123,165.756001 157.839122,165.967999 157.839122,166.152 C157.839122,166.224 157.813122,166.286 157.761122,166.338 C157.709122,166.39 157.647122,166.416 157.575122,166.416 L156.675122,166.416 C156.587122,166.416 156.519122,166.384 156.471122,166.32 C156.415122,166.28 156.325123,166.206001 156.201122,166.098 C156.077121,165.989999 155.939123,165.904 155.787122,165.84 C155.635121,165.776 155.451123,165.744 155.235122,165.744 C154.93912,165.744 154.711123,165.807999 154.551122,165.936 C154.391121,166.064001 154.311122,166.231999 154.311122,166.44 C154.311122,166.584001 154.349122,166.704 154.425122,166.8 C154.501122,166.896 154.655121,166.986 154.887122,167.07 C155.119123,167.154 155.46712,167.24 155.931122,167.328 C157.371129,167.608001 158.091122,168.235995 158.091122,169.212 C158.091122,169.780003 157.845124,170.239998 157.353122,170.592 C156.861119,170.944002 156.175126,171.12 155.295122,171.12 Z" id="Skillful-Individuals" fill="#000000"></path>
                        </g>
                        <path d="M187.959122,197.124428 L189.886722,197.124428 L189.886722,206.604428 L187.959122,206.604428 L187.959122,202.780828 L184.799122,202.780828 L184.799122,206.604428 L182.871522,206.604428 L182.871522,197.124428 L184.799122,197.124428 L184.799122,200.932228 L187.959122,200.932228 L187.959122,197.124428 Z M194.443322,206.683428 C194.016722,206.683428 193.732322,206.636028 193.337322,206.351628 C193.005522,206.114628 192.515722,205.624828 192.294522,205.308828 C192.010122,204.913828 191.962722,204.629428 191.962722,204.202828 L191.962722,199.526028 C191.962722,199.099428 192.010122,198.815028 192.294522,198.420028 C192.531522,198.088228 193.021322,197.598428 193.337322,197.377228 C193.732322,197.092828 194.016722,197.045428 194.443322,197.045428 L196.813322,197.045428 C197.239922,197.045428 197.524322,197.092828 197.919322,197.377228 C198.251122,197.614228 198.740922,198.104028 198.962122,198.420028 C199.246522,198.815028 199.293922,199.099428 199.293922,199.526028 L199.293922,204.202828 C199.293922,204.629428 199.246522,204.913828 198.962122,205.308828 C198.725122,205.640628 198.235322,206.130428 197.919322,206.351628 C197.524322,206.636028 197.239922,206.683428 196.813322,206.683428 L194.443322,206.683428 Z M193.890322,204.250228 C193.890322,204.266028 193.985122,204.392428 194.158922,204.566228 C194.332722,204.740028 194.459122,204.834828 194.474922,204.834828 L196.781722,204.834828 C196.797522,204.834828 196.923922,204.740028 197.097722,204.566228 C197.271522,204.392428 197.366322,204.266028 197.366322,204.250228 L197.366322,199.478628 C197.366322,199.462828 197.271522,199.336428 197.097722,199.162628 C196.923922,198.988828 196.797522,198.894028 196.781722,198.894028 L194.474922,198.894028 C194.459122,198.894028 194.332722,198.988828 194.158922,199.162628 C193.985122,199.336428 193.890322,199.462828 193.890322,199.478628 L193.890322,204.250228 Z M210.123122,197.124428 L212.145522,197.124428 L209.965122,206.604428 L207.737322,206.604428 L206.394322,200.600428 L205.003922,206.604428 L202.776122,206.604428 L200.595722,197.124428 L202.618122,197.124428 L203.961122,203.412828 L205.398922,197.124428 L207.358122,197.124428 L208.795922,203.397028 L210.123122,197.124428 Z M226.456922,197.124428 L228.479322,197.124428 L226.298922,206.604428 L224.071122,206.604428 L222.728122,200.600428 L221.337722,206.604428 L219.109922,206.604428 L216.929522,197.124428 L218.951922,197.124428 L220.294922,203.412828 L221.732722,197.124428 L223.691922,197.124428 L225.129722,203.397028 L226.456922,197.124428 Z M236.180122,198.973028 L231.882522,198.973028 L231.882522,200.916428 L236.037922,200.916428 L236.037922,202.765028 L231.882522,202.765028 L231.882522,204.755828 L236.180122,204.755828 L236.180122,206.604428 L229.954922,206.604428 L229.954922,197.124428 L236.180122,197.124428 L236.180122,198.973028 Z M197.932022,215.605028 L197.932022,216.553028 C197.932022,217.169228 197.505422,217.580028 197.221022,217.880228 C197.521222,218.196228 197.932022,218.575428 197.932022,219.207428 L197.932022,220.123828 C197.932022,220.550428 197.884622,220.834828 197.600222,221.229828 C197.363222,221.561628 196.873422,222.051428 196.557422,222.272628 C196.162422,222.557028 195.878022,222.604428 195.451422,222.604428 L190.995822,222.604428 L190.995822,213.124428 L195.451422,213.124428 C195.878022,213.124428 196.162422,213.171828 196.557422,213.456228 C196.889222,213.693228 197.379022,214.183028 197.600222,214.499028 C197.884622,214.894028 197.932022,215.178428 197.932022,215.605028 Z M196.004422,216.379228 L196.004422,215.557628 C196.004422,215.541828 195.909622,215.415428 195.735822,215.241628 C195.562022,215.067828 195.435622,214.973028 195.419822,214.973028 L192.923422,214.973028 L192.923422,216.963828 L195.419822,216.963828 C195.435622,216.963828 195.562022,216.869028 195.735822,216.695228 C195.909622,216.521428 196.004422,216.395028 196.004422,216.379228 Z M196.004422,220.171228 L196.004422,219.318028 C196.004422,219.302228 195.909622,219.175828 195.735822,219.002028 C195.562022,218.828228 195.435622,218.733428 195.419822,218.733428 L192.923422,218.733428 L192.923422,220.755828 L195.419822,220.755828 C195.435622,220.755828 195.562022,220.661028 195.735822,220.487228 C195.909622,220.313428 196.004422,220.187028 196.004422,220.171228 Z M202.393822,222.683428 C201.967222,222.683428 201.682822,222.636028 201.287822,222.351628 C200.956022,222.114628 200.466222,221.624828 200.245022,221.308828 C199.960622,220.913828 199.913222,220.629428 199.913222,220.202828 L199.913222,213.124428 L201.840822,213.124428 L201.840822,220.250228 C201.840822,220.266028 201.935622,220.392428 202.109422,220.566228 C202.283222,220.740028 202.409622,220.834828 202.425422,220.834828 L204.574222,220.834828 C204.590022,220.834828 204.716422,220.740028 204.890222,220.566228 C205.064022,220.392428 205.158822,220.266028 205.158822,220.250228 L205.158822,213.124428 L207.086422,213.124428 L207.086422,220.202828 C207.086422,220.629428 207.039022,220.913828 206.754622,221.308828 C206.517622,221.640628 206.027822,222.130428 205.711822,222.351628 C205.316822,222.636028 205.032422,222.683428 204.605822,222.683428 L202.393822,222.683428 Z M209.225622,222.604428 L209.225622,213.124428 L211.169022,213.124428 L211.169022,222.604428 L209.225622,222.604428 Z M215.235822,220.740028 L219.438622,220.740028 L219.438622,222.604428 L213.308222,222.604428 L213.308222,213.124428 L215.235822,213.124428 L215.235822,220.740028 Z M227.787222,214.499028 C228.071622,214.894028 228.119022,215.178428 228.119022,215.605028 L228.119022,220.123828 C228.119022,220.550428 228.071622,220.834828 227.787222,221.229828 C227.550222,221.561628 227.060422,222.051428 226.744422,222.272628 C226.349422,222.557028 226.065022,222.604428 225.638422,222.604428 L220.898422,222.604428 L220.898422,213.124428 L225.638422,213.124428 C226.065022,213.124428 226.349422,213.171828 226.744422,213.456228 C227.076222,213.693228 227.566022,214.183028 227.787222,214.499028 Z M226.191422,220.171228 L226.191422,215.557628 C226.191422,215.541828 226.096622,215.415428 225.922822,215.241628 C225.749022,215.067828 225.622622,214.973028 225.606822,214.973028 L222.826022,214.973028 L222.826022,220.755828 L225.606822,220.755828 C225.622622,220.755828 225.749022,220.661028 225.922822,220.487228 C226.096622,220.313428 226.191422,220.187028 226.191422,220.171228 Z M176.276722,238.683428 C175.297122,238.683428 174.570322,237.877628 174.191122,237.356228 C173.938322,237.008628 173.780322,236.676828 173.653922,236.329228 L175.455122,235.855228 C175.676322,236.250228 175.929122,236.613628 176.260922,236.834828 L178.646722,236.834828 C178.662522,236.834828 178.788922,236.740028 178.962722,236.566228 C179.136522,236.392428 179.231322,236.266028 179.231322,236.250228 L179.231322,235.349628 C179.231322,235.302228 179.215522,235.270628 179.183922,235.254828 L175.186522,234.180428 C174.301722,233.943428 173.875122,233.121828 173.875122,232.347628 L173.875122,231.526028 C173.875122,231.099428 173.922522,230.815028 174.206922,230.420028 C174.443922,230.088228 174.933722,229.598428 175.249722,229.377228 C175.644722,229.092828 175.929122,229.045428 176.355722,229.045428 L178.567722,229.045428 C179.547322,229.045428 180.289922,229.851228 180.653322,230.372628 C180.906122,230.736028 181.064122,231.052028 181.190522,231.399628 L179.389322,231.873628 C179.168122,231.478628 178.915322,231.115228 178.583522,230.894028 L176.387322,230.894028 C176.371522,230.894028 176.245122,230.988828 176.071322,231.162628 C175.897522,231.336428 175.802722,231.462828 175.802722,231.478628 L175.802722,232.284428 C175.802722,232.347628 175.850122,232.379228 175.850122,232.379228 L179.863322,233.469428 C180.732322,233.706428 181.174722,234.528028 181.174722,235.302228 L181.174722,236.202828 C181.174722,236.629428 181.127322,236.913828 180.842922,237.308828 C180.605922,237.640628 180.116122,238.130428 179.800122,238.351628 C179.405122,238.636028 179.120722,238.683428 178.694122,238.683428 L176.276722,238.683428 Z M185.446922,238.683428 C185.020322,238.683428 184.735922,238.636028 184.340922,238.351628 C184.009122,238.114628 183.519322,237.624828 183.298122,237.308828 C183.013722,236.913828 182.966322,236.629428 182.966322,236.202828 L182.966322,231.526028 C182.966322,231.099428 183.013722,230.815028 183.298122,230.420028 C183.535122,230.088228 184.024922,229.598428 184.340922,229.377228 C184.735922,229.092828 185.020322,229.045428 185.446922,229.045428 L187.816922,229.045428 C188.243522,229.045428 188.527922,229.092828 188.922922,229.377228 C189.254722,229.614228 189.744522,230.104028 189.965722,230.420028 C190.250122,230.815028 190.297522,231.099428 190.297522,231.526028 L190.297522,236.202828 C190.297522,236.629428 190.250122,236.913828 189.965722,237.308828 C189.728722,237.640628 189.238922,238.130428 188.922922,238.351628 C188.527922,238.636028 188.243522,238.683428 187.816922,238.683428 L185.446922,238.683428 Z M184.893922,236.250228 C184.893922,236.266028 184.988722,236.392428 185.162522,236.566228 C185.336322,236.740028 185.462722,236.834828 185.478522,236.834828 L187.785322,236.834828 C187.801122,236.834828 187.927522,236.740028 188.101322,236.566228 C188.275122,236.392428 188.369922,236.266028 188.369922,236.250228 L188.369922,231.478628 C188.369922,231.462828 188.275122,231.336428 188.101322,231.162628 C187.927522,230.988828 187.801122,230.894028 187.785322,230.894028 L185.478522,230.894028 C185.462722,230.894028 185.336322,230.988828 185.162522,231.162628 C184.988722,231.336428 184.893922,231.462828 184.893922,231.478628 L184.893922,236.250228 Z M198.598722,230.973028 L194.301122,230.973028 L194.301122,232.916428 L198.377522,232.916428 L198.377522,234.765028 L194.301122,234.765028 L194.301122,238.604428 L192.373522,238.604428 L192.373522,229.124428 L198.598722,229.124428 L198.598722,230.973028 Z M207.121122,229.124428 L207.121122,230.973028 L204.577322,230.973028 L204.577322,238.604428 L202.633922,238.604428 L202.633922,230.973028 L200.074322,230.973028 L200.074322,229.124428 L207.121122,229.124428 Z M217.650122,229.124428 L219.672522,229.124428 L217.492122,238.604428 L215.264322,238.604428 L213.921322,232.600428 L212.530922,238.604428 L210.303122,238.604428 L208.122722,229.124428 L210.145122,229.124428 L211.488122,235.412828 L212.925922,229.124428 L214.885122,229.124428 L216.322922,235.397028 L217.650122,229.124428 Z M226.409522,238.604428 L225.809122,236.787428 L222.427922,236.787428 L221.827522,238.604428 L219.773522,238.604428 L223.059922,229.124428 L225.192922,229.124428 L228.463522,238.604428 L226.409522,238.604428 Z M223.044122,234.938828 L225.192922,234.938828 L224.118522,231.668228 L223.044122,234.938828 Z M235.074122,238.604428 L233.383522,234.986228 L231.787722,234.986228 L231.787722,238.604428 L229.860122,238.604428 L229.860122,229.124428 L234.331522,229.124428 C234.758122,229.124428 235.042522,229.171828 235.437522,229.456228 C235.769322,229.693228 236.259122,230.183028 236.480322,230.499028 C236.764722,230.894028 236.812122,231.178428 236.812122,231.605028 L236.812122,232.505628 C236.812122,232.932228 236.764722,233.216628 236.480322,233.611628 C236.243322,233.943428 235.753522,234.433228 235.437522,234.654428 C235.390122,234.686028 235.358522,234.717628 235.311122,234.733428 L237.207122,238.604428 L235.074122,238.604428 Z M231.787722,230.973028 L231.787722,233.137628 L234.299922,233.137628 C234.315722,233.137628 234.442122,233.042828 234.615922,232.869028 C234.789722,232.695228 234.884522,232.568828 234.884522,232.553028 L234.884522,231.557628 C234.884522,231.541828 234.789722,231.415428 234.615922,231.241628 C234.442122,231.067828 234.315722,230.973028 234.299922,230.973028 L231.787722,230.973028 Z M245.097522,230.973028 L240.799922,230.973028 L240.799922,232.916428 L244.955322,232.916428 L244.955322,234.765028 L240.799922,234.765028 L240.799922,236.755828 L245.097522,236.755828 L245.097522,238.604428 L238.872322,238.604428 L238.872322,229.124428 L245.097522,229.124428 L245.097522,230.973028 Z" id="HOW-WE-BUILD-SOFTWAR" fill="#000000"></path>
                    </g>
                </g>
            </g>
        </g>
    </g>
</svg>