<?xml version="1.0" encoding="UTF-8"?>
<svg width="329px" height="230px" viewBox="0 0 329 230" version="1.1" xmlns="http://www.w3.org/2000/svg" xmlns:xlink="http://www.w3.org/1999/xlink">
    <!-- Generator: Sketch 52.5 (67469) - http://www.bohemiancoding.com/sketch -->
    <title>team-structure</title>
    <desc>Created with Sketch.</desc>
    <g id="Other-Assets" stroke="none" stroke-width="1" fill="none" fill-rule="evenodd">
        <g id="team-structure" transform="translate(0.000000, -3.000000)">
            <path d="M266.294088,156.1 L266.855073,156.1 C260.846533,169.109559 252.239649,180.672856 241.7,190.124315 L241.7,189.586966 C251.990896,180.248253 260.400834,168.874023 266.294088,156.1 Z M274.699925,97.45 C272.586109,83.0042782 267.499676,69.5239527 260.081603,57.65 L260.949609,57.65 C268.285003,69.5441981 273.300793,83.0211208 275.36621,97.45 L274.699925,97.45 Z M103.25,190.615187 L103.25,190.922141 C92.2998841,181.326581 83.3736156,169.477958 77.1949291,156.100005 L77.5059119,156.1 C83.6172217,169.346672 92.4348953,181.088044 103.25,190.615187 Z M69.100075,97.45 L68.6837898,97.45 C70.7492073,83.0211208 75.764997,69.5441981 83.100391,57.65 L83.7183969,57.65 C76.3003238,69.5239527 71.2138911,83.0042782 69.100075,97.45 Z M119.55,22.856349 L119.55,22.1015001 C134.967834,13.1199194 152.895587,7.975 172.025,7.975 C191.11307,7.975 209.004668,13.0977046 224.4,22.0433198 L224.400032,22.9442016 C208.99408,13.9058025 191.052201,8.7238 171.9,8.7238 C152.809938,8.7238 134.922356,13.8722314 119.55,22.856349 Z" id="Combined-Shape" stroke="#979797" stroke-width="2.25"></path>
            <g id="Group" transform="translate(222.400000, 1.000000)" fill="#0E77D2" fill-opacity="0.5" stroke="#0E77D2" stroke-width="1.1390625">
                <g id="Group-16" transform="translate(0.700000, 2.700000)">
                    <ellipse id="Oval" cx="21.3696" cy="10.621372" rx="10.2016687" ry="10.0518407"></ellipse>
                    <path d="M1.01356809,46.0054688 L42.1864319,46.0054688 C42.4807353,44.6158754 42.6304688,43.1912841 42.6304688,41.7471037 C42.6304688,30.3000341 33.2165791,21.0170922 21.6,21.0170922 C9.98342089,21.0170922 0.56953125,30.3000341 0.56953125,41.7471037 C0.56953125,43.1912841 0.719264715,44.6158754 1.01356829,46.0054688 L1.01356809,46.0054688 Z" id="Combined-Shape"></path>
                </g>
            </g>
            <g id="Group" transform="translate(70.950000, 0.000000)" fill="#0E77D2" fill-opacity="0.5" stroke="#0E77D2" stroke-width="1.1390625">
                <g id="Group-16" transform="translate(7.700000, 3.700000)">
                    <ellipse id="Oval" cx="21.3696" cy="10.621372" rx="10.2016687" ry="10.0518407"></ellipse>
                    <path d="M1.01356809,46.0054688 L42.1864319,46.0054688 C42.4807353,44.6158754 42.6304688,43.1912841 42.6304688,41.7471037 C42.6304688,30.3000341 33.2165791,21.0170922 21.6,21.0170922 C9.98342089,21.0170922 0.56953125,30.3000341 0.56953125,41.7471037 C0.56953125,43.1912841 0.719264715,44.6158754 1.01356829,46.0054688 L1.01356809,46.0054688 Z" id="Combined-Shape"></path>
                </g>
            </g>
            <g id="Group" transform="translate(253.250000, 97.450000)" fill="#0E77D2" fill-opacity="0.5" stroke="#0E77D2" stroke-width="1.1390625">
                <g id="Group-16" transform="translate(2.700000, 5.700000)">
                    <ellipse id="Oval" cx="21.3696" cy="10.621372" rx="10.2016687" ry="10.0518407"></ellipse>
                    <path d="M1.01356809,46.0054688 L42.1864319,46.0054688 C42.4807353,44.6158754 42.6304688,43.1912841 42.6304688,41.7471037 C42.6304688,30.3000341 33.2165791,21.0170922 21.6,21.0170922 C9.98342089,21.0170922 0.56953125,30.3000341 0.56953125,41.7471037 C0.56953125,43.1912841 0.719264715,44.6158754 1.01356829,46.0054688 L1.01356809,46.0054688 Z" id="Combined-Shape"></path>
                </g>
            </g>
            <g id="Group" transform="translate(42.200000, 97.450000)" fill="#0E77D2" fill-opacity="0.5" stroke="#0E77D2" stroke-width="1.1390625">
                <g id="Group-16" transform="translate(2.700000, 5.700000)">
                    <ellipse id="Oval" cx="21.3696" cy="10.621372" rx="10.2016687" ry="10.0518407"></ellipse>
                    <path d="M1.01356809,46.0054688 L42.1864319,46.0054688 C42.4807353,44.6158754 42.6304688,43.1912841 42.6304688,41.7471037 C42.6304688,30.3000341 33.2165791,21.0170922 21.6,21.0170922 C9.98342089,21.0170922 0.56953125,30.3000341 0.56953125,41.7471037 C0.56953125,43.1912841 0.719264715,44.6158754 1.01356829,46.0054688 L1.01356809,46.0054688 Z" id="Combined-Shape"></path>
                </g>
            </g>
            <g id="Group-2" transform="translate(102.250000, 167.050000)" fill="#0E77D2" fill-opacity="0.5" stroke="#0E77D2" stroke-width="1.1390625">
                <g id="Group-13" transform="translate(0.700000, 2.250000)">
                    <g id="Group-16" transform="translate(31.950000, 0.000000)">
                        <ellipse id="Oval" cx="21.3696" cy="10.621372" rx="10.2016687" ry="10.0518407"></ellipse>
                        <path d="M1.01356809,46.0054688 L42.1864319,46.0054688 C42.4807353,44.6158754 42.6304688,43.1912841 42.6304688,41.7471037 C42.6304688,30.3000341 33.2165791,21.0170922 21.6,21.0170922 C9.98342089,21.0170922 0.56953125,30.3000341 0.56953125,41.7471037 C0.56953125,43.1912841 0.719264715,44.6158754 1.01356829,46.0054688 L1.01356809,46.0054688 Z" id="Combined-Shape"></path>
                    </g>
                    <g id="Group-16" transform="translate(63.900000, 0.000000)">
                        <ellipse id="Oval" cx="21.3696" cy="10.621372" rx="10.2016687" ry="10.0518407"></ellipse>
                        <path d="M1.01356809,46.0054688 L42.1864319,46.0054688 C42.4807353,44.6158754 42.6304688,43.1912841 42.6304688,41.7471037 C42.6304688,30.3000341 33.2165791,21.0170922 21.6,21.0170922 C9.98342089,21.0170922 0.56953125,30.3000341 0.56953125,41.7471037 C0.56953125,43.1912841 0.719264715,44.6158754 1.01356829,46.0054688 L1.01356809,46.0054688 Z" id="Combined-Shape"></path>
                    </g>
                    <g id="Group-16">
                        <ellipse id="Oval" cx="21.3696" cy="10.621372" rx="10.2016687" ry="10.0518407"></ellipse>
                        <path d="M1.01356809,46.0054688 L42.1864319,46.0054688 C42.4807353,44.6158754 42.6304688,43.1912841 42.6304688,41.7471037 C42.6304688,30.3000341 33.2165791,21.0170922 21.6,21.0170922 C9.98342089,21.0170922 0.56953125,30.3000341 0.56953125,41.7471037 C0.56953125,43.1912841 0.719264715,44.6158754 1.01356829,46.0054688 L1.01356809,46.0054688 Z" id="Combined-Shape"></path>
                    </g>
                    <g id="Group-16" transform="translate(95.850000, 0.000000)">
                        <ellipse id="Oval" cx="21.3696" cy="10.621372" rx="10.2016687" ry="10.0518407"></ellipse>
                        <path d="M1.01356809,46.0054688 L42.1864319,46.0054688 C42.4807353,44.6158754 42.6304688,43.1912841 42.6304688,41.7471037 C42.6304688,30.3000341 33.2165791,21.0170922 21.6,21.0170922 C9.98342089,21.0170922 0.56953125,30.3000341 0.56953125,41.7471037 C0.56953125,43.1912841 0.719264715,44.6158754 1.01356829,46.0054688 L1.01356809,46.0054688 Z" id="Combined-Shape"></path>
                    </g>
                </g>
            </g>
            <path d="M45.1842875,25.657 C45.2814875,25.8028 45.3219875,25.9648 45.3219875,26.1349 L45.3219875,26.9044 C45.3219875,27.0745 45.2814875,27.2365 45.1842875,27.3823 C45.1113875,27.4876 44.8845875,27.7144 44.7792875,27.7873 C44.6334875,27.8845 44.4714875,27.925 44.3013875,27.925 L42.6732875,27.925 L42.6732875,29.95 L42.0090875,29.95 L42.0090875,25.1143 L44.3013875,25.1143 C44.4714875,25.1143 44.6334875,25.1548 44.7792875,25.252 C44.8845875,25.3249 45.1113875,25.5517 45.1842875,25.657 Z M44.6577875,26.8558 L44.6577875,26.1835 C44.6577875,26.0863 44.6172875,26.0215 44.5038875,25.9081 C44.3904875,25.7866 44.3256875,25.7542 44.2284875,25.7542 L42.6732875,25.7542 L42.6732875,27.2851 L44.2284875,27.2851 C44.3256875,27.2851 44.3904875,27.2446 44.5038875,27.1312 C44.6253875,27.0178 44.6577875,26.953 44.6577875,26.8558 Z M49.4050625,29.95 L48.4411625,27.925 L47.3152625,27.925 L47.3152625,29.95 L46.6510625,29.95 L46.6510625,25.1143 L48.9433625,25.1143 C49.1134625,25.1143 49.2754625,25.1548 49.4212625,25.252 C49.5265625,25.3249 49.7533625,25.5517 49.8262625,25.657 C49.9234625,25.8028 49.9639625,25.9648 49.9639625,26.1349 L49.9639625,26.9044 C49.9639625,27.0745 49.9234625,27.2365 49.8262625,27.3823 C49.7533625,27.4876 49.5265625,27.7144 49.4212625,27.7873 C49.3321625,27.844 49.2430625,27.8845 49.1539625,27.9007 L50.1502625,29.95 L49.4050625,29.95 Z M47.3152625,25.7542 L47.3152625,27.2851 L48.8704625,27.2851 C48.9676625,27.2851 49.0324625,27.2446 49.1458625,27.1312 C49.2673625,27.0178 49.2997625,26.953 49.2997625,26.8558 L49.2997625,26.1835 C49.2997625,26.0863 49.2592625,26.0215 49.1458625,25.9081 C49.0324625,25.7866 48.9676625,25.7542 48.8704625,25.7542 L47.3152625,25.7542 Z M52.6052375,29.9905 C52.3784375,29.9905 52.2164375,29.9338 52.0625375,29.7961 C51.9572375,29.707 51.7790375,29.5369 51.7061375,29.4559 C51.5198375,29.2453 51.4550375,29.0995 51.4550375,28.8403 L51.4550375,26.224 C51.4550375,25.9972 51.5117375,25.8352 51.6494375,25.6813 C51.7385375,25.576 51.9086375,25.3978 51.9896375,25.3249 C52.2002375,25.1386 52.3460375,25.0738 52.6052375,25.0738 L53.8607375,25.0738 C54.0875375,25.0738 54.2495375,25.1305 54.4034375,25.2682 C54.5087375,25.3573 54.6869375,25.5274 54.7598375,25.6084 C54.9461375,25.819 55.0109375,25.9648 55.0109375,26.224 L55.0109375,28.8403 C55.0109375,29.0671 54.9542375,29.2291 54.8165375,29.383 C54.7274375,29.4883 54.5573375,29.6665 54.4763375,29.7394 C54.2657375,29.9257 54.1199375,29.9905 53.8607375,29.9905 L52.6052375,29.9905 Z M52.1192375,28.8646 C52.1192375,28.9294 52.1759375,29.0104 52.3217375,29.1562 C52.4675375,29.2939 52.5485375,29.3587 52.6133375,29.3587 L53.8526375,29.3587 C53.9174375,29.3587 53.9984375,29.302 54.1442375,29.1562 C54.2819375,29.0104 54.3467375,28.9294 54.3467375,28.8646 L54.3467375,26.2078 C54.3467375,26.143 54.2900375,26.062 54.1442375,25.9162 C53.9984375,25.7785 53.9174375,25.7137 53.8526375,25.7137 L52.6133375,25.7137 C52.5485375,25.7137 52.4675375,25.7704 52.3217375,25.9162 C52.1840375,26.062 52.1192375,26.143 52.1192375,26.2078 L52.1192375,28.8646 Z M59.7501125,25.6489 C59.9364125,25.8595 60.0012125,26.0053 60.0012125,26.2645 L60.0012125,28.7998 C60.0012125,29.0266 59.9445125,29.1886 59.8068125,29.3425 C59.7177125,29.4478 59.5476125,29.626 59.4666125,29.6989 C59.2560125,29.8852 59.1102125,29.95 58.8510125,29.95 L56.5425125,29.95 L56.5425125,25.1143 L58.8510125,25.1143 C59.0778125,25.1143 59.2398125,25.171 59.3937125,25.3087 C59.4990125,25.3978 59.6772125,25.5679 59.7501125,25.6489 Z M59.3370125,28.8241 L59.3370125,26.2483 C59.3370125,26.1835 59.2803125,26.1025 59.1345125,25.9567 C58.9887125,25.819 58.9077125,25.7542 58.8429125,25.7542 L57.2067125,25.7542 L57.2067125,29.3182 L58.8429125,29.3182 C58.9077125,29.3182 58.9887125,29.2615 59.1345125,29.1157 C59.2722125,28.9699 59.3370125,28.8889 59.3370125,28.8241 Z M62.6910875,29.9905 C62.4642875,29.9905 62.3022875,29.9338 62.1483875,29.7961 C62.0430875,29.707 61.8648875,29.5369 61.7919875,29.4559 C61.6056875,29.2453 61.5408875,29.0995 61.5408875,28.8403 L61.5408875,25.1143 L62.2050875,25.1143 L62.2050875,28.8646 C62.2050875,28.9294 62.2617875,29.0104 62.4075875,29.1562 C62.5533875,29.2939 62.6343875,29.3587 62.6991875,29.3587 L63.7278875,29.3587 C63.7926875,29.3587 63.8736875,29.302 64.0194875,29.1562 C64.1571875,29.0104 64.2219875,28.9294 64.2219875,28.8646 L64.2219875,25.1143 L64.8861875,25.1143 L64.8861875,28.8403 C64.8861875,29.0671 64.8294875,29.2291 64.6917875,29.383 C64.6026875,29.4883 64.4325875,29.6665 64.3515875,29.7394 C64.1409875,29.9257 63.9951875,29.9905 63.7359875,29.9905 L62.6910875,29.9905 Z M67.5679625,29.9905 C67.3411625,29.9905 67.1791625,29.9338 67.0252625,29.7961 C66.9199625,29.707 66.7417625,29.5369 66.6688625,29.4559 C66.4825625,29.2453 66.4177625,29.0995 66.4177625,28.8403 L66.4177625,26.224 C66.4177625,25.9972 66.4744625,25.8352 66.6121625,25.6813 C66.7012625,25.576 66.8713625,25.3978 66.9523625,25.3249 C67.1629625,25.1386 67.3087625,25.0738 67.5679625,25.0738 L68.7019625,25.0738 C69.0583625,25.0738 69.3175625,25.3087 69.5362625,25.5679 C69.6415625,25.6894 69.7711625,25.8838 69.8278625,26.0053 L69.1717625,26.1835 C69.0340625,25.9567 68.7991625,25.7137 68.6857625,25.7137 L67.5760625,25.7137 C67.5112625,25.7137 67.4302625,25.7704 67.2844625,25.9162 C67.1467625,26.062 67.0819625,26.143 67.0819625,26.2078 L67.0819625,28.8646 C67.0819625,28.9294 67.1386625,29.0104 67.2844625,29.1562 C67.4302625,29.2939 67.5112625,29.3587 67.5760625,29.3587 L68.6857625,29.3587 C68.7991625,29.3587 69.0340625,29.1076 69.1717625,28.8889 L69.8278625,29.059 C69.7711625,29.1805 69.6415625,29.3749 69.5362625,29.4964 C69.3175625,29.7637 69.0583625,29.9905 68.7019625,29.9905 L67.5679625,29.9905 Z M74.2106375,25.1143 L74.2106375,25.7542 L72.8660375,25.7542 L72.8660375,29.95 L72.2018375,29.95 L72.2018375,25.7542 L70.8572375,25.7542 L70.8572375,25.1143 L74.2106375,25.1143 Z M44.8845875,33.1143 L45.7269875,33.1143 L45.7269875,37.95 L45.0627875,37.95 L45.0627875,34.1835 L43.9287875,36.6783 L43.3860875,36.6783 L42.2520875,34.1754 L42.2520875,37.95 L41.5878875,37.95 L41.5878875,33.1143 L42.4302875,33.1143 L43.6614875,35.8035 L44.8845875,33.1143 Z M50.2312625,37.95 L49.8829625,36.8808 L47.8579625,36.8808 L47.5015625,37.95 L46.7968625,37.95 L48.4411625,33.1143 L49.2916625,33.1143 L50.9359625,37.95 L50.2312625,37.95 Z M48.0604625,36.249 L49.6723625,36.249 L48.8704625,33.8109 L48.0604625,36.249 Z M54.6464375,33.1143 L55.3106375,33.1143 L55.3106375,37.95 L54.5249375,37.95 L52.6700375,34.2402 L52.6700375,37.95 L52.0058375,37.95 L52.0058375,33.1143 L52.7996375,33.1143 L54.6464375,36.8565 L54.6464375,33.1143 Z M59.8149125,37.95 L59.4666125,36.8808 L57.4416125,36.8808 L57.0852125,37.95 L56.3805125,37.95 L58.0248125,33.1143 L58.8753125,33.1143 L60.5196125,37.95 L59.8149125,37.95 Z M57.6441125,36.249 L59.2560125,36.249 L58.4541125,33.8109 L57.6441125,36.249 Z M65.0238875,36.9375 L65.1534875,37.95 L64.5135875,37.9743 L64.4649875,37.6584 C64.2705875,37.8447 64.0680875,37.9824 63.8736875,37.9824 L62.6586875,37.9824 C62.4318875,37.9824 62.2698875,37.9257 62.1159875,37.788 C62.0106875,37.6989 61.8324875,37.5288 61.7595875,37.4478 C61.5732875,37.2372 61.5084875,37.0914 61.5084875,36.8322 L61.5084875,34.224 C61.5084875,33.9972 61.5651875,33.8352 61.7028875,33.6813 C61.7919875,33.576 61.9620875,33.3978 62.0430875,33.3249 C62.2536875,33.1386 62.3994875,33.0738 62.6586875,33.0738 L63.8736875,33.0738 C64.2300875,33.0738 64.4892875,33.3087 64.7079875,33.5679 C64.8132875,33.6894 64.9428875,33.8838 64.9995875,34.0053 L64.3434875,34.1835 C64.2057875,33.9567 63.9708875,33.7137 63.8574875,33.7137 L62.6667875,33.7137 C62.6019875,33.7137 62.5209875,33.7704 62.3751875,33.9162 C62.2374875,34.062 62.1726875,34.143 62.1726875,34.2078 L62.1726875,36.8565 C62.1726875,36.9213 62.2293875,37.0023 62.3751875,37.1481 C62.5209875,37.2858 62.6019875,37.3506 62.6667875,37.3506 L63.8655875,37.3506 C63.9303875,37.3506 64.0113875,37.2939 64.1571875,37.1481 C64.2948875,37.0023 64.3596875,36.9213 64.3596875,36.8565 L64.3596875,35.8845 L63.2661875,35.8845 L63.2661875,35.2446 L65.0238875,35.2446 L65.0238875,36.9375 Z M69.5362625,33.7542 L67.2844625,33.7542 L67.2844625,35.2203 L69.3823625,35.2203 L69.3823625,35.8521 L67.2844625,35.8521 L67.2844625,37.3182 L69.5362625,37.3182 L69.5362625,37.95 L66.6202625,37.95 L66.6202625,33.1143 L69.5362625,33.1143 L69.5362625,33.7542 Z M73.8218375,37.95 L72.8579375,35.925 L71.7320375,35.925 L71.7320375,37.95 L71.0678375,37.95 L71.0678375,33.1143 L73.3601375,33.1143 C73.5302375,33.1143 73.6922375,33.1548 73.8380375,33.252 C73.9433375,33.3249 74.1701375,33.5517 74.2430375,33.657 C74.3402375,33.8028 74.3807375,33.9648 74.3807375,34.1349 L74.3807375,34.9044 C74.3807375,35.0745 74.3402375,35.2365 74.2430375,35.3823 C74.1701375,35.4876 73.9433375,35.7144 73.8380375,35.7873 C73.7489375,35.844 73.6598375,35.8845 73.5707375,35.9007 L74.5670375,37.95 L73.8218375,37.95 Z M71.7320375,33.7542 L71.7320375,35.2851 L73.2872375,35.2851 C73.3844375,35.2851 73.4492375,35.2446 73.5626375,35.1312 C73.6841375,35.0178 73.7165375,34.953 73.7165375,34.8558 L73.7165375,34.1835 C73.7165375,34.0863 73.6760375,34.0215 73.5626375,33.9081 C73.4492375,33.7866 73.3844375,33.7542 73.2872375,33.7542 L71.7320375,33.7542 Z" id="PRODUCT-MANAGER" fill="#000000" fill-rule="nonzero"></path>
            <path d="M309.243613,129.4 L308.895313,128.3308 L306.870313,128.3308 L306.513913,129.4 L305.809213,129.4 L307.453513,124.5643 L308.304013,124.5643 L309.948313,129.4 L309.243613,129.4 Z M307.072813,127.699 L308.684713,127.699 L307.882813,125.2609 L307.072813,127.699 Z M314.452588,128.3875 L314.582188,129.4 L313.942288,129.4243 L313.893688,129.1084 C313.699288,129.2947 313.496788,129.4324 313.302388,129.4324 L312.087388,129.4324 C311.860588,129.4324 311.698588,129.3757 311.544688,129.238 C311.439388,129.1489 311.261188,128.9788 311.188288,128.8978 C311.001988,128.6872 310.937188,128.5414 310.937188,128.2822 L310.937188,125.674 C310.937188,125.4472 310.993888,125.2852 311.131588,125.1313 C311.220688,125.026 311.390788,124.8478 311.471788,124.7749 C311.682388,124.5886 311.828188,124.5238 312.087388,124.5238 L313.302388,124.5238 C313.658788,124.5238 313.917988,124.7587 314.136688,125.0179 C314.241988,125.1394 314.371588,125.3338 314.428288,125.4553 L313.772188,125.6335 C313.634488,125.4067 313.399588,125.1637 313.286188,125.1637 L312.095488,125.1637 C312.030688,125.1637 311.949688,125.2204 311.803888,125.3662 C311.666188,125.512 311.601388,125.593 311.601388,125.6578 L311.601388,128.3065 C311.601388,128.3713 311.658088,128.4523 311.803888,128.5981 C311.949688,128.7358 312.030688,128.8006 312.095488,128.8006 L313.294288,128.8006 C313.359088,128.8006 313.440088,128.7439 313.585888,128.5981 C313.723588,128.4523 313.788388,128.3713 313.788388,128.3065 L313.788388,127.3345 L312.694888,127.3345 L312.694888,126.6946 L314.452588,126.6946 L314.452588,128.3875 Z M316.048963,129.4 L316.048963,124.5643 L316.713163,124.5643 L316.713163,129.4 L316.048963,129.4 Z M318.949438,128.7682 L321.152638,128.7682 L321.152638,129.4 L318.285238,129.4 L318.285238,124.5643 L318.949438,124.5643 L318.949438,128.7682 Z M325.357213,125.2042 L323.105413,125.2042 L323.105413,126.6703 L325.203313,126.6703 L325.203313,127.3021 L323.105413,127.3021 L323.105413,128.7682 L325.357213,128.7682 L325.357213,129.4 L322.441213,129.4 L322.441213,124.5643 L325.357213,124.5643 L325.357213,125.2042 Z M306.031625,132.5643 L306.031625,133.2042 L304.687025,133.2042 L304.687025,137.4 L304.022825,137.4 L304.022825,133.2042 L302.678225,133.2042 L302.678225,132.5643 L306.031625,132.5643 Z M310.2281,133.2042 L307.9763,133.2042 L307.9763,134.6703 L310.0742,134.6703 L310.0742,135.3021 L307.9763,135.3021 L307.9763,136.7682 L310.2281,136.7682 L310.2281,137.4 L307.3121,137.4 L307.3121,132.5643 L310.2281,132.5643 L310.2281,133.2042 Z M312.707375,137.4405 C312.350975,137.4405 312.099875,137.2137 311.873075,136.9464 C311.767775,136.8249 311.638175,136.6305 311.581475,136.509 L312.237575,136.3389 C312.383375,136.5576 312.610175,136.8087 312.731675,136.8087 L314.100575,136.8087 C314.165375,136.8087 314.246375,136.752 314.392175,136.6062 C314.529875,136.4604 314.594675,136.3794 314.594675,136.3146 L314.594675,135.8043 C314.594675,135.6828 314.537975,135.5856 314.416475,135.5532 L312.261875,134.9457 C311.897375,134.8485 311.686775,134.4921 311.686775,134.1276 L311.686775,133.674 C311.686775,133.4472 311.743475,133.2852 311.881175,133.1313 C311.970275,133.026 312.140375,132.8478 312.221375,132.7749 C312.431975,132.5886 312.577775,132.5238 312.836975,132.5238 L314.043875,132.5238 C314.400275,132.5238 314.659475,132.7587 314.878175,133.0179 C314.983475,133.1394 315.113075,133.3338 315.169775,133.4553 L314.513675,133.6335 C314.375975,133.4067 314.141075,133.1637 314.027675,133.1637 L312.845075,133.1637 C312.780275,133.1637 312.699275,133.2204 312.553475,133.3662 C312.415775,133.512 312.350975,133.593 312.350975,133.6578 L312.350975,134.0871 C312.350975,134.2086 312.407675,134.3058 312.512975,134.3382 L314.683775,134.9538 C315.056375,135.0591 315.258875,135.4155 315.258875,135.7638 L315.258875,136.2903 C315.258875,136.5171 315.202175,136.6791 315.064475,136.833 C314.975375,136.9383 314.805275,137.1165 314.724275,137.1894 C314.513675,137.3757 314.367875,137.4405 314.108675,137.4405 L312.707375,137.4405 Z M319.64975,132.5643 L319.64975,133.2042 L318.30515,133.2042 L318.30515,137.4 L317.64095,137.4 L317.64095,133.2042 L316.29635,133.2042 L316.29635,132.5643 L319.64975,132.5643 Z M323.846225,133.2042 L321.594425,133.2042 L321.594425,134.6703 L323.692325,134.6703 L323.692325,135.3021 L321.594425,135.3021 L321.594425,136.7682 L323.846225,136.7682 L323.846225,137.4 L320.930225,137.4 L320.930225,132.5643 L323.846225,132.5643 L323.846225,133.2042 Z M328.1318,137.4 L327.1679,135.375 L326.042,135.375 L326.042,137.4 L325.3778,137.4 L325.3778,132.5643 L327.6701,132.5643 C327.8402,132.5643 328.0022,132.6048 328.148,132.702 C328.2533,132.7749 328.4801,133.0017 328.553,133.107 C328.6502,133.2528 328.6907,133.4148 328.6907,133.5849 L328.6907,134.3544 C328.6907,134.5245 328.6502,134.6865 328.553,134.8323 C328.4801,134.9376 328.2533,135.1644 328.148,135.2373 C328.0589,135.294 327.9698,135.3345 327.8807,135.3507 L328.877,137.4 L328.1318,137.4 Z M326.042,133.2042 L326.042,134.7351 L327.5972,134.7351 C327.6944,134.7351 327.7592,134.6946 327.8726,134.5812 C327.9941,134.4678 328.0265,134.403 328.0265,134.3058 L328.0265,133.6335 C328.0265,133.5363 327.986,133.4715 327.8726,133.3581 C327.7592,133.2366 327.6944,133.2042 327.5972,133.2042 L326.042,133.2042 Z" id="AGILE-TESTER" fill="#000000" fill-rule="nonzero"></path>
            <path d="M274.459288,25.657 C274.556488,25.8028 274.596988,25.9648 274.596988,26.1349 L274.596988,26.9044 C274.596988,27.0745 274.556488,27.2365 274.459288,27.3823 C274.386388,27.4876 274.159588,27.7144 274.054288,27.7873 C273.908488,27.8845 273.746488,27.925 273.576388,27.925 L271.948288,27.925 L271.948288,29.95 L271.284088,29.95 L271.284088,25.1143 L273.576388,25.1143 C273.746488,25.1143 273.908488,25.1548 274.054288,25.252 C274.159588,25.3249 274.386388,25.5517 274.459288,25.657 Z M273.932788,26.8558 L273.932788,26.1835 C273.932788,26.0863 273.892288,26.0215 273.778888,25.9081 C273.665488,25.7866 273.600688,25.7542 273.503488,25.7542 L271.948288,25.7542 L271.948288,27.2851 L273.503488,27.2851 C273.600688,27.2851 273.665488,27.2446 273.778888,27.1312 C273.900388,27.0178 273.932788,26.953 273.932788,26.8558 Z M278.680063,29.95 L277.716163,27.925 L276.590263,27.925 L276.590263,29.95 L275.926063,29.95 L275.926063,25.1143 L278.218363,25.1143 C278.388463,25.1143 278.550463,25.1548 278.696263,25.252 C278.801563,25.3249 279.028363,25.5517 279.101263,25.657 C279.198463,25.8028 279.238963,25.9648 279.238963,26.1349 L279.238963,26.9044 C279.238963,27.0745 279.198463,27.2365 279.101263,27.3823 C279.028363,27.4876 278.801563,27.7144 278.696263,27.7873 C278.607163,27.844 278.518063,27.8845 278.428963,27.9007 L279.425263,29.95 L278.680063,29.95 Z M276.590263,25.7542 L276.590263,27.2851 L278.145463,27.2851 C278.242663,27.2851 278.307463,27.2446 278.420863,27.1312 C278.542363,27.0178 278.574763,26.953 278.574763,26.8558 L278.574763,26.1835 C278.574763,26.0863 278.534263,26.0215 278.420863,25.9081 C278.307463,25.7866 278.242663,25.7542 278.145463,25.7542 L276.590263,25.7542 Z M281.880238,29.9905 C281.653438,29.9905 281.491438,29.9338 281.337538,29.7961 C281.232238,29.707 281.054038,29.5369 280.981138,29.4559 C280.794838,29.2453 280.730038,29.0995 280.730038,28.8403 L280.730038,26.224 C280.730038,25.9972 280.786738,25.8352 280.924438,25.6813 C281.013538,25.576 281.183638,25.3978 281.264638,25.3249 C281.475238,25.1386 281.621038,25.0738 281.880238,25.0738 L283.135738,25.0738 C283.362538,25.0738 283.524538,25.1305 283.678438,25.2682 C283.783738,25.3573 283.961938,25.5274 284.034838,25.6084 C284.221138,25.819 284.285938,25.9648 284.285938,26.224 L284.285938,28.8403 C284.285938,29.0671 284.229238,29.2291 284.091538,29.383 C284.002438,29.4883 283.832338,29.6665 283.751338,29.7394 C283.540738,29.9257 283.394938,29.9905 283.135738,29.9905 L281.880238,29.9905 Z M281.394238,28.8646 C281.394238,28.9294 281.450938,29.0104 281.596738,29.1562 C281.742538,29.2939 281.823538,29.3587 281.888338,29.3587 L283.127638,29.3587 C283.192438,29.3587 283.273438,29.302 283.419238,29.1562 C283.556938,29.0104 283.621738,28.9294 283.621738,28.8646 L283.621738,26.2078 C283.621738,26.143 283.565038,26.062 283.419238,25.9162 C283.273438,25.7785 283.192438,25.7137 283.127638,25.7137 L281.888338,25.7137 C281.823538,25.7137 281.742538,25.7704 281.596738,25.9162 C281.459038,26.062 281.394238,26.143 281.394238,26.2078 L281.394238,28.8646 Z M289.025113,25.6489 C289.211413,25.8595 289.276213,26.0053 289.276213,26.2645 L289.276213,28.7998 C289.276213,29.0266 289.219513,29.1886 289.081813,29.3425 C288.992713,29.4478 288.822613,29.626 288.741613,29.6989 C288.531013,29.8852 288.385213,29.95 288.126013,29.95 L285.817513,29.95 L285.817513,25.1143 L288.126013,25.1143 C288.352813,25.1143 288.514813,25.171 288.668713,25.3087 C288.774013,25.3978 288.952213,25.5679 289.025113,25.6489 Z M288.612013,28.8241 L288.612013,26.2483 C288.612013,26.1835 288.555313,26.1025 288.409513,25.9567 C288.263713,25.819 288.182713,25.7542 288.117913,25.7542 L286.481713,25.7542 L286.481713,29.3182 L288.117913,29.3182 C288.182713,29.3182 288.263713,29.2615 288.409513,29.1157 C288.547213,28.9699 288.612013,28.8889 288.612013,28.8241 Z M291.966088,29.9905 C291.739288,29.9905 291.577288,29.9338 291.423388,29.7961 C291.318088,29.707 291.139888,29.5369 291.066988,29.4559 C290.880688,29.2453 290.815888,29.0995 290.815888,28.8403 L290.815888,25.1143 L291.480088,25.1143 L291.480088,28.8646 C291.480088,28.9294 291.536788,29.0104 291.682588,29.1562 C291.828388,29.2939 291.909388,29.3587 291.974188,29.3587 L293.002888,29.3587 C293.067688,29.3587 293.148688,29.302 293.294488,29.1562 C293.432188,29.0104 293.496988,28.9294 293.496988,28.8646 L293.496988,25.1143 L294.161188,25.1143 L294.161188,28.8403 C294.161188,29.0671 294.104488,29.2291 293.966788,29.383 C293.877688,29.4883 293.707588,29.6665 293.626588,29.7394 C293.415988,29.9257 293.270188,29.9905 293.010988,29.9905 L291.966088,29.9905 Z M296.842963,29.9905 C296.616163,29.9905 296.454163,29.9338 296.300263,29.7961 C296.194963,29.707 296.016763,29.5369 295.943863,29.4559 C295.757563,29.2453 295.692763,29.0995 295.692763,28.8403 L295.692763,26.224 C295.692763,25.9972 295.749463,25.8352 295.887163,25.6813 C295.976263,25.576 296.146363,25.3978 296.227363,25.3249 C296.437963,25.1386 296.583763,25.0738 296.842963,25.0738 L297.976963,25.0738 C298.333363,25.0738 298.592563,25.3087 298.811263,25.5679 C298.916563,25.6894 299.046163,25.8838 299.102863,26.0053 L298.446763,26.1835 C298.309063,25.9567 298.074163,25.7137 297.960763,25.7137 L296.851063,25.7137 C296.786263,25.7137 296.705263,25.7704 296.559463,25.9162 C296.421763,26.062 296.356963,26.143 296.356963,26.2078 L296.356963,28.8646 C296.356963,28.9294 296.413663,29.0104 296.559463,29.1562 C296.705263,29.2939 296.786263,29.3587 296.851063,29.3587 L297.960763,29.3587 C298.074163,29.3587 298.309063,29.1076 298.446763,28.8889 L299.102863,29.059 C299.046163,29.1805 298.916563,29.3749 298.811263,29.4964 C298.592563,29.7637 298.333363,29.9905 297.976963,29.9905 L296.842963,29.9905 Z M303.485638,25.1143 L303.485638,25.7542 L302.141038,25.7542 L302.141038,29.95 L301.476838,29.95 L301.476838,25.7542 L300.132238,25.7542 L300.132238,25.1143 L303.485638,25.1143 Z M273.30065,33.6489 C273.48695,33.8595 273.55175,34.0053 273.55175,34.2645 L273.55175,36.7998 C273.55175,37.0266 273.49505,37.1886 273.35735,37.3425 C273.26825,37.4478 273.09815,37.626 273.01715,37.6989 C272.80655,37.8852 272.66075,37.95 272.40155,37.95 L270.09305,37.95 L270.09305,33.1143 L272.40155,33.1143 C272.62835,33.1143 272.79035,33.171 272.94425,33.3087 C273.04955,33.3978 273.22775,33.5679 273.30065,33.6489 Z M272.88755,36.8241 L272.88755,34.2483 C272.88755,34.1835 272.83085,34.1025 272.68505,33.9567 C272.53925,33.819 272.45825,33.7542 272.39345,33.7542 L270.75725,33.7542 L270.75725,37.3182 L272.39345,37.3182 C272.45825,37.3182 272.53925,37.2615 272.68505,37.1157 C272.82275,36.9699 272.88755,36.8889 272.88755,36.8241 Z M278.007425,33.7542 L275.755625,33.7542 L275.755625,35.2203 L277.853525,35.2203 L277.853525,35.8521 L275.755625,35.8521 L275.755625,37.3182 L278.007425,37.3182 L278.007425,37.95 L275.091425,37.95 L275.091425,33.1143 L278.007425,33.1143 L278.007425,33.7542 Z M280.4867,37.9905 C280.1303,37.9905 279.8792,37.7637 279.6524,37.4964 C279.5471,37.3749 279.4175,37.1805 279.3608,37.059 L280.0169,36.8889 C280.1627,37.1076 280.3895,37.3587 280.511,37.3587 L281.8799,37.3587 C281.9447,37.3587 282.0257,37.302 282.1715,37.1562 C282.3092,37.0104 282.374,36.9294 282.374,36.8646 L282.374,36.3543 C282.374,36.2328 282.3173,36.1356 282.1958,36.1032 L280.0412,35.4957 C279.6767,35.3985 279.4661,35.0421 279.4661,34.6776 L279.4661,34.224 C279.4661,33.9972 279.5228,33.8352 279.6605,33.6813 C279.7496,33.576 279.9197,33.3978 280.0007,33.3249 C280.2113,33.1386 280.3571,33.0738 280.6163,33.0738 L281.8232,33.0738 C282.1796,33.0738 282.4388,33.3087 282.6575,33.5679 C282.7628,33.6894 282.8924,33.8838 282.9491,34.0053 L282.293,34.1835 C282.1553,33.9567 281.9204,33.7137 281.807,33.7137 L280.6244,33.7137 C280.5596,33.7137 280.4786,33.7704 280.3328,33.9162 C280.1951,34.062 280.1303,34.143 280.1303,34.2078 L280.1303,34.6371 C280.1303,34.7586 280.187,34.8558 280.2923,34.8882 L282.4631,35.5038 C282.8357,35.6091 283.0382,35.9655 283.0382,36.3138 L283.0382,36.8403 C283.0382,37.0671 282.9815,37.2291 282.8438,37.383 C282.7547,37.4883 282.5846,37.6665 282.5036,37.7394 C282.293,37.9257 282.1472,37.9905 281.888,37.9905 L280.4867,37.9905 Z M284.480675,37.95 L284.480675,33.1143 L285.144875,33.1143 L285.144875,37.95 L284.480675,37.95 Z M290.19185,36.9375 L290.32145,37.95 L289.68155,37.9743 L289.63295,37.6584 C289.43855,37.8447 289.23605,37.9824 289.04165,37.9824 L287.82665,37.9824 C287.59985,37.9824 287.43785,37.9257 287.28395,37.788 C287.17865,37.6989 287.00045,37.5288 286.92755,37.4478 C286.74125,37.2372 286.67645,37.0914 286.67645,36.8322 L286.67645,34.224 C286.67645,33.9972 286.73315,33.8352 286.87085,33.6813 C286.95995,33.576 287.13005,33.3978 287.21105,33.3249 C287.42165,33.1386 287.56745,33.0738 287.82665,33.0738 L289.04165,33.0738 C289.39805,33.0738 289.65725,33.3087 289.87595,33.5679 C289.98125,33.6894 290.11085,33.8838 290.16755,34.0053 L289.51145,34.1835 C289.37375,33.9567 289.13885,33.7137 289.02545,33.7137 L287.83475,33.7137 C287.76995,33.7137 287.68895,33.7704 287.54315,33.9162 C287.40545,34.062 287.34065,34.143 287.34065,34.2078 L287.34065,36.8565 C287.34065,36.9213 287.39735,37.0023 287.54315,37.1481 C287.68895,37.2858 287.76995,37.3506 287.83475,37.3506 L289.03355,37.3506 C289.09835,37.3506 289.17935,37.2939 289.32515,37.1481 C289.46285,37.0023 289.52765,36.9213 289.52765,36.8565 L289.52765,35.8845 L288.43415,35.8845 L288.43415,35.2446 L290.19185,35.2446 L290.19185,36.9375 Z M294.428825,33.1143 L295.093025,33.1143 L295.093025,37.95 L294.307325,37.95 L292.452425,34.2402 L292.452425,37.95 L291.788225,37.95 L291.788225,33.1143 L292.582025,33.1143 L294.428825,36.8565 L294.428825,33.1143 Z M299.5811,33.7542 L297.3293,33.7542 L297.3293,35.2203 L299.4272,35.2203 L299.4272,35.8521 L297.3293,35.8521 L297.3293,37.3182 L299.5811,37.3182 L299.5811,37.95 L296.6651,37.95 L296.6651,33.1143 L299.5811,33.1143 L299.5811,33.7542 Z M303.866675,37.95 L302.902775,35.925 L301.776875,35.925 L301.776875,37.95 L301.112675,37.95 L301.112675,33.1143 L303.404975,33.1143 C303.575075,33.1143 303.737075,33.1548 303.882875,33.252 C303.988175,33.3249 304.214975,33.5517 304.287875,33.657 C304.385075,33.8028 304.425575,33.9648 304.425575,34.1349 L304.425575,34.9044 C304.425575,35.0745 304.385075,35.2365 304.287875,35.3823 C304.214975,35.4876 303.988175,35.7144 303.882875,35.7873 C303.793775,35.844 303.704675,35.8845 303.615575,35.9007 L304.611875,37.95 L303.866675,37.95 Z M301.776875,33.7542 L301.776875,35.2851 L303.332075,35.2851 C303.429275,35.2851 303.494075,35.2446 303.607475,35.1312 C303.728975,35.0178 303.761375,34.953 303.761375,34.8558 L303.761375,34.1835 C303.761375,34.0863 303.720875,34.0215 303.607475,33.9081 C303.494075,33.7866 303.429275,33.7542 303.332075,33.7542 L301.776875,33.7542 Z" id="PRODUCT-DESIGNER" fill="#000000" fill-rule="nonzero"></path>
            <path d="M151.849925,227.6989 C152.036225,227.9095 152.101025,228.0553 152.101025,228.3145 L152.101025,230.8498 C152.101025,231.0766 152.044325,231.2386 151.906625,231.3925 C151.817525,231.4978 151.647425,231.676 151.566425,231.7489 C151.355825,231.9352 151.210025,232 150.950825,232 L148.642325,232 L148.642325,227.1643 L150.950825,227.1643 C151.177625,227.1643 151.339625,227.221 151.493525,227.3587 C151.598825,227.4478 151.777025,227.6179 151.849925,227.6989 Z M151.436825,230.8741 L151.436825,228.2983 C151.436825,228.2335 151.380125,228.1525 151.234325,228.0067 C151.088525,227.869 151.007525,227.8042 150.942725,227.8042 L149.306525,227.8042 L149.306525,231.3682 L150.942725,231.3682 C151.007525,231.3682 151.088525,231.3115 151.234325,231.1657 C151.372025,231.0199 151.436825,230.9389 151.436825,230.8741 Z M156.5567,227.8042 L154.3049,227.8042 L154.3049,229.2703 L156.4028,229.2703 L156.4028,229.9021 L154.3049,229.9021 L154.3049,231.3682 L156.5567,231.3682 L156.5567,232 L153.6407,232 L153.6407,227.1643 L156.5567,227.1643 L156.5567,227.8042 Z M160.907075,227.1643 L161.603675,227.1643 L160.024175,232 L159.165575,232 L157.594175,227.1643 L158.306975,227.1643 L159.594875,231.2791 L160.907075,227.1643 Z M165.59765,227.8042 L163.34585,227.8042 L163.34585,229.2703 L165.44375,229.2703 L165.44375,229.9021 L163.34585,229.9021 L163.34585,231.3682 L165.59765,231.3682 L165.59765,232 L162.68165,232 L162.68165,227.1643 L165.59765,227.1643 L165.59765,227.8042 Z M167.793425,231.3682 L169.996625,231.3682 L169.996625,232 L167.129225,232 L167.129225,227.1643 L167.793425,227.1643 L167.793425,231.3682 Z M172.3949,232.0405 C172.1681,232.0405 172.0061,231.9838 171.8522,231.8461 C171.7469,231.757 171.5687,231.5869 171.4958,231.5059 C171.3095,231.2953 171.2447,231.1495 171.2447,230.8903 L171.2447,228.274 C171.2447,228.0472 171.3014,227.8852 171.4391,227.7313 C171.5282,227.626 171.6983,227.4478 171.7793,227.3749 C171.9899,227.1886 172.1357,227.1238 172.3949,227.1238 L173.6504,227.1238 C173.8772,227.1238 174.0392,227.1805 174.1931,227.3182 C174.2984,227.4073 174.4766,227.5774 174.5495,227.6584 C174.7358,227.869 174.8006,228.0148 174.8006,228.274 L174.8006,230.8903 C174.8006,231.1171 174.7439,231.2791 174.6062,231.433 C174.5171,231.5383 174.347,231.7165 174.266,231.7894 C174.0554,231.9757 173.9096,232.0405 173.6504,232.0405 L172.3949,232.0405 Z M171.9089,230.9146 C171.9089,230.9794 171.9656,231.0604 172.1114,231.2062 C172.2572,231.3439 172.3382,231.4087 172.403,231.4087 L173.6423,231.4087 C173.7071,231.4087 173.7881,231.352 173.9339,231.2062 C174.0716,231.0604 174.1364,230.9794 174.1364,230.9146 L174.1364,228.2578 C174.1364,228.193 174.0797,228.112 173.9339,227.9662 C173.7881,227.8285 173.7071,227.7637 173.6423,227.7637 L172.403,227.7637 C172.3382,227.7637 172.2572,227.8204 172.1114,227.9662 C171.9737,228.112 171.9089,228.193 171.9089,228.2578 L171.9089,230.9146 Z M179.507375,227.707 C179.604575,227.8528 179.645075,228.0148 179.645075,228.1849 L179.645075,228.9544 C179.645075,229.1245 179.604575,229.2865 179.507375,229.4323 C179.434475,229.5376 179.207675,229.7644 179.102375,229.8373 C178.956575,229.9345 178.794575,229.975 178.624475,229.975 L176.996375,229.975 L176.996375,232 L176.332175,232 L176.332175,227.1643 L178.624475,227.1643 C178.794575,227.1643 178.956575,227.2048 179.102375,227.302 C179.207675,227.3749 179.434475,227.6017 179.507375,227.707 Z M178.980875,228.9058 L178.980875,228.2335 C178.980875,228.1363 178.940375,228.0715 178.826975,227.9581 C178.713575,227.8366 178.648775,227.8042 178.551575,227.8042 L176.996375,227.8042 L176.996375,229.3351 L178.551575,229.3351 C178.648775,229.3351 178.713575,229.2946 178.826975,229.1812 C178.948475,229.0678 178.980875,229.003 178.980875,228.9058 Z M183.89015,227.8042 L181.63835,227.8042 L181.63835,229.2703 L183.73625,229.2703 L183.73625,229.9021 L181.63835,229.9021 L181.63835,231.3682 L183.89015,231.3682 L183.89015,232 L180.97415,232 L180.97415,227.1643 L183.89015,227.1643 L183.89015,227.8042 Z M188.175725,232 L187.211825,229.975 L186.085925,229.975 L186.085925,232 L185.421725,232 L185.421725,227.1643 L187.714025,227.1643 C187.884125,227.1643 188.046125,227.2048 188.191925,227.302 C188.297225,227.3749 188.524025,227.6017 188.596925,227.707 C188.694125,227.8528 188.734625,228.0148 188.734625,228.1849 L188.734625,228.9544 C188.734625,229.1245 188.694125,229.2865 188.596925,229.4323 C188.524025,229.5376 188.297225,229.7644 188.191925,229.8373 C188.102825,229.894 188.013725,229.9345 187.924625,229.9507 L188.920925,232 L188.175725,232 Z M186.085925,227.8042 L186.085925,229.3351 L187.641125,229.3351 C187.738325,229.3351 187.803125,229.2946 187.916525,229.1812 C188.038025,229.0678 188.070425,229.003 188.070425,228.9058 L188.070425,228.2335 C188.070425,228.1363 188.029925,228.0715 187.916525,227.9581 C187.803125,227.8366 187.738325,227.8042 187.641125,227.8042 L186.085925,227.8042 Z M191.2139,232.0405 C190.8575,232.0405 190.6064,231.8137 190.3796,231.5464 C190.2743,231.4249 190.1447,231.2305 190.088,231.109 L190.7441,230.9389 C190.8899,231.1576 191.1167,231.4087 191.2382,231.4087 L192.6071,231.4087 C192.6719,231.4087 192.7529,231.352 192.8987,231.2062 C193.0364,231.0604 193.1012,230.9794 193.1012,230.9146 L193.1012,230.4043 C193.1012,230.2828 193.0445,230.1856 192.923,230.1532 L190.7684,229.5457 C190.4039,229.4485 190.1933,229.0921 190.1933,228.7276 L190.1933,228.274 C190.1933,228.0472 190.25,227.8852 190.3877,227.7313 C190.4768,227.626 190.6469,227.4478 190.7279,227.3749 C190.9385,227.1886 191.0843,227.1238 191.3435,227.1238 L192.5504,227.1238 C192.9068,227.1238 193.166,227.3587 193.3847,227.6179 C193.49,227.7394 193.6196,227.9338 193.6763,228.0553 L193.0202,228.2335 C192.8825,228.0067 192.6476,227.7637 192.5342,227.7637 L191.3516,227.7637 C191.2868,227.7637 191.2058,227.8204 191.06,227.9662 C190.9223,228.112 190.8575,228.193 190.8575,228.2578 L190.8575,228.6871 C190.8575,228.8086 190.9142,228.9058 191.0195,228.9382 L193.1903,229.5538 C193.5629,229.6591 193.7654,230.0155 193.7654,230.3638 L193.7654,230.8903 C193.7654,231.1171 193.7087,231.2791 193.571,231.433 C193.4819,231.5383 193.3118,231.7165 193.2308,231.7894 C193.0202,231.9757 192.8744,232.0405 192.6152,232.0405 L191.2139,232.0405 Z" id="DEVELOPERS" fill="#000000" fill-rule="nonzero"></path>
            <path d="M3.0914,129.4405 C2.735,129.4405 2.4839,129.2137 2.2571,128.9464 C2.1518,128.8249 2.0222,128.6305 1.9655,128.509 L2.6216,128.3389 C2.7674,128.5576 2.9942,128.8087 3.1157,128.8087 L4.4846,128.8087 C4.5494,128.8087 4.6304,128.752 4.7762,128.6062 C4.9139,128.4604 4.9787,128.3794 4.9787,128.3146 L4.9787,127.8043 C4.9787,127.6828 4.922,127.5856 4.8005,127.5532 L2.6459,126.9457 C2.2814,126.8485 2.0708,126.4921 2.0708,126.1276 L2.0708,125.674 C2.0708,125.4472 2.1275,125.2852 2.2652,125.1313 C2.3543,125.026 2.5244,124.8478 2.6054,124.7749 C2.816,124.5886 2.9618,124.5238 3.221,124.5238 L4.4279,124.5238 C4.7843,124.5238 5.0435,124.7587 5.2622,125.0179 C5.3675,125.1394 5.4971,125.3338 5.5538,125.4553 L4.8977,125.6335 C4.76,125.4067 4.5251,125.1637 4.4117,125.1637 L3.2291,125.1637 C3.1643,125.1637 3.0833,125.2204 2.9375,125.3662 C2.7998,125.512 2.735,125.593 2.735,125.6578 L2.735,126.0871 C2.735,126.2086 2.7917,126.3058 2.897,126.3382 L5.0678,126.9538 C5.4404,127.0591 5.6429,127.4155 5.6429,127.7638 L5.6429,128.2903 C5.6429,128.5171 5.5862,128.6791 5.4485,128.833 C5.3594,128.9383 5.1893,129.1165 5.1083,129.1894 C4.8977,129.3757 4.7519,129.4405 4.4927,129.4405 L3.0914,129.4405 Z M8.195075,129.4405 C7.968275,129.4405 7.806275,129.3838 7.652375,129.2461 C7.547075,129.157 7.368875,128.9869 7.295975,128.9059 C7.109675,128.6953 7.044875,128.5495 7.044875,128.2903 L7.044875,125.674 C7.044875,125.4472 7.101575,125.2852 7.239275,125.1313 C7.328375,125.026 7.498475,124.8478 7.579475,124.7749 C7.790075,124.5886 7.935875,124.5238 8.195075,124.5238 L9.450575,124.5238 C9.677375,124.5238 9.839375,124.5805 9.993275,124.7182 C10.098575,124.8073 10.276775,124.9774 10.349675,125.0584 C10.535975,125.269 10.600775,125.4148 10.600775,125.674 L10.600775,128.2903 C10.600775,128.5171 10.544075,128.6791 10.406375,128.833 C10.317275,128.9383 10.147175,129.1165 10.066175,129.1894 C9.855575,129.3757 9.709775,129.4405 9.450575,129.4405 L8.195075,129.4405 Z M7.709075,128.3146 C7.709075,128.3794 7.765775,128.4604 7.911575,128.6062 C8.057375,128.7439 8.138375,128.8087 8.203175,128.8087 L9.442475,128.8087 C9.507275,128.8087 9.588275,128.752 9.734075,128.6062 C9.871775,128.4604 9.936575,128.3794 9.936575,128.3146 L9.936575,125.6578 C9.936575,125.593 9.879875,125.512 9.734075,125.3662 C9.588275,125.2285 9.507275,125.1637 9.442475,125.1637 L8.203175,125.1637 C8.138375,125.1637 8.057375,125.2204 7.911575,125.3662 C7.773875,125.512 7.709075,125.593 7.709075,125.6578 L7.709075,128.3146 Z M15.04025,125.2042 L12.79655,125.2042 L12.79655,126.6703 L14.89445,126.6703 L14.89445,127.3021 L12.79655,127.3021 L12.79655,129.4 L12.13235,129.4 L12.13235,124.5643 L15.04025,124.5643 L15.04025,125.2042 Z M19.471625,124.5643 L19.471625,125.2042 L18.127025,125.2042 L18.127025,129.4 L17.462825,129.4 L17.462825,125.2042 L16.118225,125.2042 L16.118225,124.5643 L19.471625,124.5643 Z M25.1099,124.5643 L25.7984,124.5643 L24.7049,129.4 L23.8868,129.4 L23.0363,125.6902 L22.1858,129.4 L21.3596,129.4 L20.2823,124.5643 L20.9708,124.5643 L21.7808,128.4361 L22.6799,124.5643 L23.3927,124.5643 L24.2837,128.4361 L25.1099,124.5643 Z M29.589875,129.4 L29.241575,128.3308 L27.216575,128.3308 L26.860175,129.4 L26.155475,129.4 L27.799775,124.5643 L28.650275,124.5643 L30.294575,129.4 L29.589875,129.4 Z M27.419075,127.699 L29.030975,127.699 L28.229075,125.2609 L27.419075,127.699 Z M34.11845,129.4 L33.15455,127.375 L32.02865,127.375 L32.02865,129.4 L31.36445,129.4 L31.36445,124.5643 L33.65675,124.5643 C33.82685,124.5643 33.98885,124.6048 34.13465,124.702 C34.23995,124.7749 34.46675,125.0017 34.53965,125.107 C34.63685,125.2528 34.67735,125.4148 34.67735,125.5849 L34.67735,126.3544 C34.67735,126.5245 34.63685,126.6865 34.53965,126.8323 C34.46675,126.9376 34.23995,127.1644 34.13465,127.2373 C34.04555,127.294 33.95645,127.3345 33.86735,127.3507 L34.86365,129.4 L34.11845,129.4 Z M32.02865,125.2042 L32.02865,126.7351 L33.58385,126.7351 C33.68105,126.7351 33.74585,126.6946 33.85925,126.5812 C33.98075,126.4678 34.01315,126.403 34.01315,126.3058 L34.01315,125.6335 C34.01315,125.5363 33.97265,125.4715 33.85925,125.3581 C33.74585,125.2366 33.68105,125.2042 33.58385,125.2042 L32.02865,125.2042 Z M39.124925,125.2042 L36.873125,125.2042 L36.873125,126.6703 L38.971025,126.6703 L38.971025,127.3021 L36.873125,127.3021 L36.873125,128.7682 L39.124925,128.7682 L39.124925,129.4 L36.208925,129.4 L36.208925,124.5643 L39.124925,124.5643 L39.124925,125.2042 Z M3.7957625,133.0989 C3.9820625,133.3095 4.0468625,133.4553 4.0468625,133.7145 L4.0468625,136.2498 C4.0468625,136.4766 3.9901625,136.6386 3.8524625,136.7925 C3.7633625,136.8978 3.5932625,137.076 3.5122625,137.1489 C3.3016625,137.3352 3.1558625,137.4 2.8966625,137.4 L0.5881625,137.4 L0.5881625,132.5643 L2.8966625,132.5643 C3.1234625,132.5643 3.2854625,132.621 3.4393625,132.7587 C3.5446625,132.8478 3.7228625,133.0179 3.7957625,133.0989 Z M3.3826625,136.2741 L3.3826625,133.6983 C3.3826625,133.6335 3.3259625,133.5525 3.1801625,133.4067 C3.0343625,133.269 2.9533625,133.2042 2.8885625,133.2042 L1.2523625,133.2042 L1.2523625,136.7682 L2.8885625,136.7682 C2.9533625,136.7682 3.0343625,136.7115 3.1801625,136.5657 C3.3178625,136.4199 3.3826625,136.3389 3.3826625,136.2741 Z M8.5025375,133.2042 L6.2507375,133.2042 L6.2507375,134.6703 L8.3486375,134.6703 L8.3486375,135.3021 L6.2507375,135.3021 L6.2507375,136.7682 L8.5025375,136.7682 L8.5025375,137.4 L5.5865375,137.4 L5.5865375,132.5643 L8.5025375,132.5643 L8.5025375,133.2042 Z M12.8529125,132.5643 L13.5495125,132.5643 L11.9700125,137.4 L11.1114125,137.4 L9.5400125,132.5643 L10.2528125,132.5643 L11.5407125,136.6791 L12.8529125,132.5643 Z M17.5434875,133.2042 L15.2916875,133.2042 L15.2916875,134.6703 L17.3895875,134.6703 L17.3895875,135.3021 L15.2916875,135.3021 L15.2916875,136.7682 L17.5434875,136.7682 L17.5434875,137.4 L14.6274875,137.4 L14.6274875,132.5643 L17.5434875,132.5643 L17.5434875,133.2042 Z M19.7392625,136.7682 L21.9424625,136.7682 L21.9424625,137.4 L19.0750625,137.4 L19.0750625,132.5643 L19.7392625,132.5643 L19.7392625,136.7682 Z M24.3407375,137.4405 C24.1139375,137.4405 23.9519375,137.3838 23.7980375,137.2461 C23.6927375,137.157 23.5145375,136.9869 23.4416375,136.9059 C23.2553375,136.6953 23.1905375,136.5495 23.1905375,136.2903 L23.1905375,133.674 C23.1905375,133.4472 23.2472375,133.2852 23.3849375,133.1313 C23.4740375,133.026 23.6441375,132.8478 23.7251375,132.7749 C23.9357375,132.5886 24.0815375,132.5238 24.3407375,132.5238 L25.5962375,132.5238 C25.8230375,132.5238 25.9850375,132.5805 26.1389375,132.7182 C26.2442375,132.8073 26.4224375,132.9774 26.4953375,133.0584 C26.6816375,133.269 26.7464375,133.4148 26.7464375,133.674 L26.7464375,136.2903 C26.7464375,136.5171 26.6897375,136.6791 26.5520375,136.833 C26.4629375,136.9383 26.2928375,137.1165 26.2118375,137.1894 C26.0012375,137.3757 25.8554375,137.4405 25.5962375,137.4405 L24.3407375,137.4405 Z M23.8547375,136.3146 C23.8547375,136.3794 23.9114375,136.4604 24.0572375,136.6062 C24.2030375,136.7439 24.2840375,136.8087 24.3488375,136.8087 L25.5881375,136.8087 C25.6529375,136.8087 25.7339375,136.752 25.8797375,136.6062 C26.0174375,136.4604 26.0822375,136.3794 26.0822375,136.3146 L26.0822375,133.6578 C26.0822375,133.593 26.0255375,133.512 25.8797375,133.3662 C25.7339375,133.2285 25.6529375,133.1637 25.5881375,133.1637 L24.3488375,133.1637 C24.2840375,133.1637 24.2030375,133.2204 24.0572375,133.3662 C23.9195375,133.512 23.8547375,133.593 23.8547375,133.6578 L23.8547375,136.3146 Z M31.4532125,133.107 C31.5504125,133.2528 31.5909125,133.4148 31.5909125,133.5849 L31.5909125,134.3544 C31.5909125,134.5245 31.5504125,134.6865 31.4532125,134.8323 C31.3803125,134.9376 31.1535125,135.1644 31.0482125,135.2373 C30.9024125,135.3345 30.7404125,135.375 30.5703125,135.375 L28.9422125,135.375 L28.9422125,137.4 L28.2780125,137.4 L28.2780125,132.5643 L30.5703125,132.5643 C30.7404125,132.5643 30.9024125,132.6048 31.0482125,132.702 C31.1535125,132.7749 31.3803125,133.0017 31.4532125,133.107 Z M30.9267125,134.3058 L30.9267125,133.6335 C30.9267125,133.5363 30.8862125,133.4715 30.7728125,133.3581 C30.6594125,133.2366 30.5946125,133.2042 30.4974125,133.2042 L28.9422125,133.2042 L28.9422125,134.7351 L30.4974125,134.7351 C30.5946125,134.7351 30.6594125,134.6946 30.7728125,134.5812 C30.8943125,134.4678 30.9267125,134.403 30.9267125,134.3058 Z M35.8359875,133.2042 L33.5841875,133.2042 L33.5841875,134.6703 L35.6820875,134.6703 L35.6820875,135.3021 L33.5841875,135.3021 L33.5841875,136.7682 L35.8359875,136.7682 L35.8359875,137.4 L32.9199875,137.4 L32.9199875,132.5643 L35.8359875,132.5643 L35.8359875,133.2042 Z M40.1215625,137.4 L39.1576625,135.375 L38.0317625,135.375 L38.0317625,137.4 L37.3675625,137.4 L37.3675625,132.5643 L39.6598625,132.5643 C39.8299625,132.5643 39.9919625,132.6048 40.1377625,132.702 C40.2430625,132.7749 40.4698625,133.0017 40.5427625,133.107 C40.6399625,133.2528 40.6804625,133.4148 40.6804625,133.5849 L40.6804625,134.3544 C40.6804625,134.5245 40.6399625,134.6865 40.5427625,134.8323 C40.4698625,134.9376 40.2430625,135.1644 40.1377625,135.2373 C40.0486625,135.294 39.9595625,135.3345 39.8704625,135.3507 L40.8667625,137.4 L40.1215625,137.4 Z M38.0317625,133.2042 L38.0317625,134.7351 L39.5869625,134.7351 C39.6841625,134.7351 39.7489625,134.6946 39.8623625,134.5812 C39.9838625,134.4678 40.0162625,134.403 40.0162625,134.3058 L40.0162625,133.6335 C40.0162625,133.5363 39.9757625,133.4715 39.8623625,133.3581 C39.7489625,133.2366 39.6841625,133.2042 39.5869625,133.2042 L38.0317625,133.2042 Z M12.90995,144.7682 L15.11315,144.7682 L15.11315,145.4 L12.24575,145.4 L12.24575,140.5643 L12.90995,140.5643 L12.90995,144.7682 Z M19.317725,141.2042 L17.065925,141.2042 L17.065925,142.6703 L19.163825,142.6703 L19.163825,143.3021 L17.065925,143.3021 L17.065925,144.7682 L19.317725,144.7682 L19.317725,145.4 L16.401725,145.4 L16.401725,140.5643 L19.317725,140.5643 L19.317725,141.2042 Z M23.7815,145.4 L23.4332,144.3308 L21.4082,144.3308 L21.0518,145.4 L20.3471,145.4 L21.9914,140.5643 L22.8419,140.5643 L24.4862,145.4 L23.7815,145.4 Z M21.6107,143.699 L23.2226,143.699 L22.4207,141.2609 L21.6107,143.699 Z M28.763675,141.0989 C28.949975,141.3095 29.014775,141.4553 29.014775,141.7145 L29.014775,144.2498 C29.014775,144.4766 28.958075,144.6386 28.820375,144.7925 C28.731275,144.8978 28.561175,145.076 28.480175,145.1489 C28.269575,145.3352 28.123775,145.4 27.864575,145.4 L25.556075,145.4 L25.556075,140.5643 L27.864575,140.5643 C28.091375,140.5643 28.253375,140.621 28.407275,140.7587 C28.512575,140.8478 28.690775,141.0179 28.763675,141.0989 Z M28.350575,144.2741 L28.350575,141.6983 C28.350575,141.6335 28.293875,141.5525 28.148075,141.4067 C28.002275,141.269 27.921275,141.2042 27.856475,141.2042 L26.220275,141.2042 L26.220275,144.7682 L27.856475,144.7682 C27.921275,144.7682 28.002275,144.7115 28.148075,144.5657 C28.285775,144.4199 28.350575,144.3389 28.350575,144.2741 Z" id="SOFTWARE-DEVELOPER-L" fill="#000000" fill-rule="nonzero"></path>
            <path d="M125.12495,93.8798 L125.12495,94.8698 L123.52115,94.8698 L123.52115,99.8 L122.48165,99.8 L122.48165,94.8698 L120.87785,94.8698 L120.87785,93.8798 L125.12495,93.8798 Z M129.68765,93.8798 L130.72715,93.8798 L130.72715,99.8 L129.68765,99.8 L129.68765,97.3547 L127.52945,97.3547 L127.52945,99.8 L126.48995,99.8 L126.48995,93.8798 L127.52945,93.8798 L127.52945,96.3647 L129.68765,96.3647 L129.68765,93.8798 Z M136.13135,94.8698 L133.44845,94.8698 L133.44845,96.3647 L135.94325,96.3647 L135.94325,97.3547 L133.44845,97.3547 L133.44845,98.81 L136.13135,98.81 L136.13135,99.8 L132.40895,99.8 L132.40895,93.8798 L136.13135,93.8798 L136.13135,94.8698 Z M141.72245,99.8495 C141.23735,99.8495 140.90075,99.5624 140.59385,99.1961 C140.47505,99.0575 140.29685,98.7803 140.24735,98.6516 L141.26705,98.3843 C141.45515,98.6714 141.67295,98.8595 141.76205,98.8595 L143.38565,98.8595 C143.42525,98.8595 143.51435,98.7902 143.65295,98.6516 C143.78165,98.5229 143.86085,98.4239 143.86085,98.3843 L143.86085,97.8002 C143.86085,97.7111 143.79155,97.6418 143.74205,97.6319 L141.16805,96.8993 C140.66315,96.7607 140.39585,96.2855 140.39585,95.8202 L140.39585,95.3252 C140.39585,95.0282 140.45525,94.8302 140.63345,94.6223 C140.75225,94.4837 140.97005,94.256 141.07895,94.157 C141.33635,93.9194 141.54425,93.8303 141.89075,93.8303 L143.33615,93.8303 C143.82125,93.8303 144.15785,94.1174 144.46475,94.4837 C144.58355,94.6223 144.76175,94.8995 144.81125,95.0282 L143.79155,95.2955 C143.60345,95.0084 143.38565,94.8203 143.30645,94.8203 L141.91055,94.8203 C141.87095,94.8203 141.78185,94.8896 141.64325,95.0282 C141.51455,95.1569 141.43535,95.2559 141.43535,95.2955 L141.43535,95.7608 C141.43535,95.8499 141.49475,95.9192 141.54425,95.9291 L144.12815,96.6815 C144.63305,96.83 144.90035,97.3151 144.90035,97.7606 L144.90035,98.3546 C144.90035,98.6516 144.84095,98.8496 144.66275,99.0575 C144.54395,99.1961 144.32615,99.4238 144.21725,99.5228 C143.95985,99.7604 143.75195,99.8495 143.40545,99.8495 L141.72245,99.8495 Z M150.22535,93.8798 L150.22535,94.8698 L148.62155,94.8698 L148.62155,99.8 L147.58205,99.8 L147.58205,94.8698 L145.97825,94.8698 L145.97825,93.8798 L150.22535,93.8798 Z M154.85735,99.8 L153.75845,97.4636 L152.62985,97.4636 L152.62985,99.8 L151.59035,99.8 L151.59035,93.8798 L154.49105,93.8798 C154.69895,93.8798 154.92665,93.9392 155.11475,94.0778 C155.23355,94.1669 155.50085,94.4342 155.58995,94.553 C155.72855,94.7411 155.78795,94.9688 155.78795,95.1767 L155.78795,96.1667 C155.78795,96.3746 155.72855,96.6023 155.58995,96.7904 C155.50085,96.9092 155.23355,97.1765 155.11475,97.2656 C155.03555,97.325 154.94645,97.3745 154.85735,97.4042 L156.02555,99.8 L154.85735,99.8 Z M152.62985,94.8698 L152.62985,96.4736 L154.35245,96.4736 C154.43165,96.4736 154.49105,96.434 154.59995,96.3251 C154.70885,96.2162 154.74845,96.1568 154.74845,96.0776 L154.74845,95.2658 C154.74845,95.1866 154.70885,95.1272 154.59995,95.0183 C154.49105,94.9094 154.43165,94.8698 154.35245,94.8698 L152.62985,94.8698 Z M158.92505,99.8495 C158.62805,99.8495 158.43005,99.7901 158.22215,99.6119 C158.08355,99.4931 157.85585,99.2753 157.75685,99.1664 C157.51925,98.909 157.43015,98.7011 157.43015,98.3546 L157.43015,93.8798 L158.46965,93.8798 L158.46965,98.3843 C158.46965,98.4239 158.53895,98.513 158.67755,98.6516 C158.80625,98.7803 158.90525,98.8595 158.94485,98.8595 L160.15265,98.8595 C160.19225,98.8595 160.28135,98.7902 160.41995,98.6516 C160.54865,98.5229 160.62785,98.4239 160.62785,98.3843 L160.62785,93.8798 L161.66735,93.8798 L161.66735,98.3546 C161.66735,98.6516 161.60795,98.8496 161.42975,99.0575 C161.31095,99.1961 161.09315,99.4238 160.98425,99.5228 C160.72685,99.7604 160.51895,99.8495 160.17245,99.8495 L158.92505,99.8495 Z M164.80445,99.8495 C164.50745,99.8495 164.30945,99.7901 164.10155,99.6119 C163.96295,99.4931 163.73525,99.2753 163.63625,99.1664 C163.39865,98.909 163.30955,98.7011 163.30955,98.3546 L163.30955,95.3252 C163.30955,95.0282 163.36895,94.8302 163.54715,94.6223 C163.66595,94.4837 163.88375,94.256 163.99265,94.157 C164.25005,93.9194 164.45795,93.8303 164.80445,93.8303 L166.15085,93.8303 C166.63595,93.8303 166.97255,94.1174 167.27945,94.4837 C167.39825,94.6223 167.57645,94.8995 167.62595,95.0282 L166.60625,95.2955 C166.41815,95.0084 166.20035,94.8203 166.12115,94.8203 L164.82425,94.8203 C164.78465,94.8203 164.69555,94.8896 164.55695,95.0282 C164.42825,95.1569 164.34905,95.2559 164.34905,95.2955 L164.34905,98.3843 C164.34905,98.4239 164.41835,98.513 164.55695,98.6516 C164.68565,98.7803 164.78465,98.8595 164.82425,98.8595 L166.11125,98.8595 C166.20035,98.8595 166.41815,98.6714 166.60625,98.3843 L167.62595,98.6516 C167.57645,98.7803 167.39825,99.0575 167.27945,99.1961 C166.97255,99.5624 166.63595,99.8495 166.15085,99.8495 L164.80445,99.8495 Z M172.96085,93.8798 L172.96085,94.8698 L171.35705,94.8698 L171.35705,99.8 L170.31755,99.8 L170.31755,94.8698 L168.71375,94.8698 L168.71375,93.8798 L172.96085,93.8798 Z M175.82075,99.8495 C175.52375,99.8495 175.32575,99.7901 175.11785,99.6119 C174.97925,99.4931 174.75155,99.2753 174.65255,99.1664 C174.41495,98.909 174.32585,98.7011 174.32585,98.3546 L174.32585,93.8798 L175.36535,93.8798 L175.36535,98.3843 C175.36535,98.4239 175.43465,98.513 175.57325,98.6516 C175.70195,98.7803 175.80095,98.8595 175.84055,98.8595 L177.04835,98.8595 C177.08795,98.8595 177.17705,98.7902 177.31565,98.6516 C177.44435,98.5229 177.52355,98.4239 177.52355,98.3843 L177.52355,93.8798 L178.56305,93.8798 L178.56305,98.3546 C178.56305,98.6516 178.50365,98.8496 178.32545,99.0575 C178.20665,99.1961 177.98885,99.4238 177.87995,99.5228 C177.62255,99.7604 177.41465,99.8495 177.06815,99.8495 L175.82075,99.8495 Z M183.51185,99.8 L182.41295,97.4636 L181.28435,97.4636 L181.28435,99.8 L180.24485,99.8 L180.24485,93.8798 L183.14555,93.8798 C183.35345,93.8798 183.58115,93.9392 183.76925,94.0778 C183.88805,94.1669 184.15535,94.4342 184.24445,94.553 C184.38305,94.7411 184.44245,94.9688 184.44245,95.1767 L184.44245,96.1667 C184.44245,96.3746 184.38305,96.6023 184.24445,96.7904 C184.15535,96.9092 183.88805,97.1765 183.76925,97.2656 C183.69005,97.325 183.60095,97.3745 183.51185,97.4042 L184.68005,99.8 L183.51185,99.8 Z M181.28435,94.8698 L181.28435,96.4736 L183.00695,96.4736 C183.08615,96.4736 183.14555,96.434 183.25445,96.3251 C183.36335,96.2162 183.40295,96.1568 183.40295,96.0776 L183.40295,95.2658 C183.40295,95.1866 183.36335,95.1272 183.25445,95.0183 C183.14555,94.9094 183.08615,94.8698 183.00695,94.8698 L181.28435,94.8698 Z M189.80705,94.8698 L187.12415,94.8698 L187.12415,96.3647 L189.61895,96.3647 L189.61895,97.3547 L187.12415,97.3547 L187.12415,98.81 L189.80705,98.81 L189.80705,99.8 L186.08465,99.8 L186.08465,93.8798 L189.80705,93.8798 L189.80705,94.8698 Z M195.60605,99.8495 C195.30905,99.8495 195.11105,99.7901 194.90315,99.6119 C194.76455,99.4931 194.53685,99.2753 194.43785,99.1664 C194.20025,98.909 194.11115,98.7011 194.11115,98.3546 L194.11115,95.3252 C194.11115,95.0282 194.17055,94.8302 194.34875,94.6223 C194.46755,94.4837 194.68535,94.256 194.79425,94.157 C195.05165,93.9194 195.25955,93.8303 195.60605,93.8303 L197.11085,93.8303 C197.40785,93.8303 197.60585,93.8897 197.81375,94.0679 C197.95235,94.1867 198.18005,94.4045 198.27905,94.5134 C198.51665,94.7708 198.60575,94.9787 198.60575,95.3252 L198.60575,98.3546 C198.60575,98.6516 198.54635,98.8496 198.36815,99.0575 C198.24935,99.1961 198.03155,99.4238 197.92265,99.5228 C197.66525,99.7604 197.45735,99.8495 197.11085,99.8495 L195.60605,99.8495 Z M195.15065,98.3843 C195.15065,98.4239 195.21995,98.513 195.35855,98.6516 C195.48725,98.7803 195.58625,98.8595 195.62585,98.8595 L197.09105,98.8595 C197.13065,98.8595 197.21975,98.7902 197.35835,98.6516 C197.48705,98.5229 197.56625,98.4239 197.56625,98.3843 L197.56625,95.2955 C197.56625,95.2559 197.49695,95.1668 197.35835,95.0282 C197.22965,94.8995 197.13065,94.8203 197.09105,94.8203 L195.62585,94.8203 C195.58625,94.8203 195.49715,94.8896 195.35855,95.0282 C195.22985,95.1569 195.15065,95.2559 195.15065,95.2955 L195.15065,98.3843 Z M203.96045,94.8698 L201.28745,94.8698 L201.28745,96.3647 L203.78225,96.3647 L203.78225,97.3547 L201.28745,97.3547 L201.28745,99.8 L200.24795,99.8 L200.24795,93.8798 L203.96045,93.8798 L203.96045,94.8698 Z M209.56145,99.8495 C209.26445,99.8495 209.06645,99.7901 208.85855,99.6119 C208.71995,99.4931 208.49225,99.2753 208.39325,99.1664 C208.15565,98.909 208.06655,98.7011 208.06655,98.3546 L208.06655,95.3252 C208.06655,95.0282 208.12595,94.8302 208.30415,94.6223 C208.42295,94.4837 208.64075,94.256 208.74965,94.157 C209.00705,93.9194 209.21495,93.8303 209.56145,93.8303 L211.06625,93.8303 C211.36325,93.8303 211.56125,93.8897 211.76915,94.0679 C211.90775,94.1867 212.13545,94.4045 212.23445,94.5134 C212.47205,94.7708 212.56115,94.9787 212.56115,95.3252 L212.56115,98.3546 C212.56115,98.6516 212.50175,98.8496 212.32355,99.0575 C212.20475,99.1961 211.98695,99.4238 211.87805,99.5228 C211.62065,99.7604 211.41275,99.8495 211.06625,99.8495 L209.56145,99.8495 Z M209.10605,98.3843 C209.10605,98.4239 209.17535,98.513 209.31395,98.6516 C209.44265,98.7803 209.54165,98.8595 209.58125,98.8595 L211.04645,98.8595 C211.08605,98.8595 211.17515,98.7902 211.31375,98.6516 C211.44245,98.5229 211.52165,98.4239 211.52165,98.3843 L211.52165,95.2955 C211.52165,95.2559 211.45235,95.1668 211.31375,95.0282 C211.18505,94.8995 211.08605,94.8203 211.04645,94.8203 L209.58125,94.8203 C209.54165,94.8203 209.45255,94.8896 209.31395,95.0282 C209.18525,95.1569 209.10605,95.2559 209.10605,95.2955 L209.10605,98.3843 Z M215.69825,99.8495 C215.40125,99.8495 215.20325,99.7901 214.99535,99.6119 C214.85675,99.4931 214.62905,99.2753 214.53005,99.1664 C214.29245,98.909 214.20335,98.7011 214.20335,98.3546 L214.20335,93.8798 L215.24285,93.8798 L215.24285,98.3843 C215.24285,98.4239 215.31215,98.513 215.45075,98.6516 C215.57945,98.7803 215.67845,98.8595 215.71805,98.8595 L216.92585,98.8595 C216.96545,98.8595 217.05455,98.7902 217.19315,98.6516 C217.32185,98.5229 217.40105,98.4239 217.40105,98.3843 L217.40105,93.8798 L218.44055,93.8798 L218.44055,98.3546 C218.44055,98.6516 218.38115,98.8496 218.20295,99.0575 C218.08415,99.1961 217.86635,99.4238 217.75745,99.5228 C217.50005,99.7604 217.29215,99.8495 216.94565,99.8495 L215.69825,99.8495 Z M223.38935,99.8 L222.29045,97.4636 L221.16185,97.4636 L221.16185,99.8 L220.12235,99.8 L220.12235,93.8798 L223.02305,93.8798 C223.23095,93.8798 223.45865,93.9392 223.64675,94.0778 C223.76555,94.1669 224.03285,94.4342 224.12195,94.553 C224.26055,94.7411 224.31995,94.9688 224.31995,95.1767 L224.31995,96.1667 C224.31995,96.3746 224.26055,96.6023 224.12195,96.7904 C224.03285,96.9092 223.76555,97.1765 223.64675,97.2656 C223.56755,97.325 223.47845,97.3745 223.38935,97.4042 L224.55755,99.8 L223.38935,99.8 Z M221.16185,94.8698 L221.16185,96.4736 L222.88445,96.4736 C222.96365,96.4736 223.02305,96.434 223.13195,96.3251 C223.24085,96.2162 223.28045,96.1568 223.28045,96.0776 L223.28045,95.2658 C223.28045,95.1866 223.24085,95.1272 223.13195,95.0183 C223.02305,94.9094 222.96365,94.8698 222.88445,94.8698 L221.16185,94.8698 Z M124.79765,103.553 C124.93625,103.7411 124.99565,103.9688 124.99565,104.1767 L124.99565,105.1667 C124.99565,105.3746 124.93625,105.6023 124.79765,105.7904 C124.70855,105.9092 124.44125,106.1765 124.32245,106.2656 C124.13435,106.4042 123.90665,106.4636 123.69875,106.4636 L121.83755,106.4636 L121.83755,108.8 L120.79805,108.8 L120.79805,102.8798 L123.69875,102.8798 C123.90665,102.8798 124.13435,102.9392 124.32245,103.0778 C124.44125,103.1669 124.70855,103.4342 124.79765,103.553 Z M123.95615,105.0776 L123.95615,104.2658 C123.95615,104.1866 123.91655,104.1272 123.80765,104.0183 C123.69875,103.9094 123.63935,103.8698 123.56015,103.8698 L121.83755,103.8698 L121.83755,105.4736 L123.56015,105.4736 C123.63935,105.4736 123.69875,105.434 123.80765,105.3251 C123.91655,105.2162 123.95615,105.1568 123.95615,105.0776 Z M129.63755,108.8 L128.53865,106.4636 L127.41005,106.4636 L127.41005,108.8 L126.37055,108.8 L126.37055,102.8798 L129.27125,102.8798 C129.47915,102.8798 129.70685,102.9392 129.89495,103.0778 C130.01375,103.1669 130.28105,103.4342 130.37015,103.553 C130.50875,103.7411 130.56815,103.9688 130.56815,104.1767 L130.56815,105.1667 C130.56815,105.3746 130.50875,105.6023 130.37015,105.7904 C130.28105,105.9092 130.01375,106.1765 129.89495,106.2656 C129.81575,106.325 129.72665,106.3745 129.63755,106.4042 L130.80575,108.8 L129.63755,108.8 Z M127.41005,103.8698 L127.41005,105.4736 L129.13265,105.4736 C129.21185,105.4736 129.27125,105.434 129.38015,105.3251 C129.48905,105.2162 129.52865,105.1568 129.52865,105.0776 L129.52865,104.2658 C129.52865,104.1866 129.48905,104.1272 129.38015,104.0183 C129.27125,103.9094 129.21185,103.8698 129.13265,103.8698 L127.41005,103.8698 Z M133.66565,108.8495 C133.36865,108.8495 133.17065,108.7901 132.96275,108.6119 C132.82415,108.4931 132.59645,108.2753 132.49745,108.1664 C132.25985,107.909 132.17075,107.7011 132.17075,107.3546 L132.17075,104.3252 C132.17075,104.0282 132.23015,103.8302 132.40835,103.6223 C132.52715,103.4837 132.74495,103.256 132.85385,103.157 C133.11125,102.9194 133.31915,102.8303 133.66565,102.8303 L135.17045,102.8303 C135.46745,102.8303 135.66545,102.8897 135.87335,103.0679 C136.01195,103.1867 136.23965,103.4045 136.33865,103.5134 C136.57625,103.7708 136.66535,103.9787 136.66535,104.3252 L136.66535,107.3546 C136.66535,107.6516 136.60595,107.8496 136.42775,108.0575 C136.30895,108.1961 136.09115,108.4238 135.98225,108.5228 C135.72485,108.7604 135.51695,108.8495 135.17045,108.8495 L133.66565,108.8495 Z M133.21025,107.3843 C133.21025,107.4239 133.27955,107.513 133.41815,107.6516 C133.54685,107.7803 133.64585,107.8595 133.68545,107.8595 L135.15065,107.8595 C135.19025,107.8595 135.27935,107.7902 135.41795,107.6516 C135.54665,107.5229 135.62585,107.4239 135.62585,107.3843 L135.62585,104.2955 C135.62585,104.2559 135.55655,104.1668 135.41795,104.0282 C135.28925,103.8995 135.19025,103.8203 135.15065,103.8203 L133.68545,103.8203 C133.64585,103.8203 133.55675,103.8896 133.41815,104.0282 C133.28945,104.1569 133.21025,104.2559 133.21025,104.2955 L133.21025,107.3843 Z M142.37645,103.5629 C142.61405,103.8203 142.70315,104.0282 142.70315,104.3747 L142.70315,107.3051 C142.70315,107.6021 142.64375,107.8001 142.46555,108.008 C142.34675,108.1466 142.12895,108.3743 142.02005,108.4733 C141.76265,108.7109 141.55475,108.8 141.20825,108.8 L138.30755,108.8 L138.30755,102.8798 L141.20825,102.8798 C141.50525,102.8798 141.70325,102.9392 141.91115,103.1174 C142.04975,103.2362 142.27745,103.454 142.37645,103.5629 Z M141.66365,107.3348 L141.66365,104.345 C141.66365,104.3054 141.59435,104.2163 141.45575,104.0777 C141.32705,103.949 141.22805,103.8698 141.18845,103.8698 L139.34705,103.8698 L139.34705,107.81 L141.18845,107.81 C141.22805,107.81 141.31715,107.7407 141.45575,107.6021 C141.58445,107.4734 141.66365,107.3744 141.66365,107.3348 Z M145.84025,108.8495 C145.54325,108.8495 145.34525,108.7901 145.13735,108.6119 C144.99875,108.4931 144.77105,108.2753 144.67205,108.1664 C144.43445,107.909 144.34535,107.7011 144.34535,107.3546 L144.34535,102.8798 L145.38485,102.8798 L145.38485,107.3843 C145.38485,107.4239 145.45415,107.513 145.59275,107.6516 C145.72145,107.7803 145.82045,107.8595 145.86005,107.8595 L147.06785,107.8595 C147.10745,107.8595 147.19655,107.7902 147.33515,107.6516 C147.46385,107.5229 147.54305,107.4239 147.54305,107.3843 L147.54305,102.8798 L148.58255,102.8798 L148.58255,107.3546 C148.58255,107.6516 148.52315,107.8496 148.34495,108.0575 C148.22615,108.1961 148.00835,108.4238 147.89945,108.5228 C147.64205,108.7604 147.43415,108.8495 147.08765,108.8495 L145.84025,108.8495 Z M151.71965,108.8495 C151.42265,108.8495 151.22465,108.7901 151.01675,108.6119 C150.87815,108.4931 150.65045,108.2753 150.55145,108.1664 C150.31385,107.909 150.22475,107.7011 150.22475,107.3546 L150.22475,104.3252 C150.22475,104.0282 150.28415,103.8302 150.46235,103.6223 C150.58115,103.4837 150.79895,103.256 150.90785,103.157 C151.16525,102.9194 151.37315,102.8303 151.71965,102.8303 L153.06605,102.8303 C153.55115,102.8303 153.88775,103.1174 154.19465,103.4837 C154.31345,103.6223 154.49165,103.8995 154.54115,104.0282 L153.52145,104.2955 C153.33335,104.0084 153.11555,103.8203 153.03635,103.8203 L151.73945,103.8203 C151.69985,103.8203 151.61075,103.8896 151.47215,104.0282 C151.34345,104.1569 151.26425,104.2559 151.26425,104.2955 L151.26425,107.3843 C151.26425,107.4239 151.33355,107.513 151.47215,107.6516 C151.60085,107.7803 151.69985,107.8595 151.73945,107.8595 L153.02645,107.8595 C153.11555,107.8595 153.33335,107.6714 153.52145,107.3843 L154.54115,107.6516 C154.49165,107.7803 154.31345,108.0575 154.19465,108.1961 C153.88775,108.5624 153.55115,108.8495 153.06605,108.8495 L151.71965,108.8495 Z M159.87605,102.8798 L159.87605,103.8698 L158.27225,103.8698 L158.27225,108.8 L157.23275,108.8 L157.23275,103.8698 L155.62895,103.8698 L155.62895,102.8798 L159.87605,102.8798 Z M168.01145,103.5629 C168.24905,103.8203 168.33815,104.0282 168.33815,104.3747 L168.33815,107.3051 C168.33815,107.6021 168.27875,107.8001 168.10055,108.008 C167.98175,108.1466 167.76395,108.3743 167.65505,108.4733 C167.39765,108.7109 167.18975,108.8 166.84325,108.8 L163.94255,108.8 L163.94255,102.8798 L166.84325,102.8798 C167.14025,102.8798 167.33825,102.9392 167.54615,103.1174 C167.68475,103.2362 167.91245,103.454 168.01145,103.5629 Z M167.29865,107.3348 L167.29865,104.345 C167.29865,104.3054 167.22935,104.2163 167.09075,104.0777 C166.96205,103.949 166.86305,103.8698 166.82345,103.8698 L164.98205,103.8698 L164.98205,107.81 L166.82345,107.81 C166.86305,107.81 166.95215,107.7407 167.09075,107.6021 C167.21945,107.4734 167.29865,107.3744 167.29865,107.3348 Z M173.70275,103.8698 L171.01985,103.8698 L171.01985,105.3647 L173.51465,105.3647 L173.51465,106.3547 L171.01985,106.3547 L171.01985,107.81 L173.70275,107.81 L173.70275,108.8 L169.98035,108.8 L169.98035,102.8798 L173.70275,102.8798 L173.70275,103.8698 Z M178.75055,102.8798 L179.83955,102.8798 L177.87935,108.8 L176.66165,108.8 L174.71135,102.8798 L175.83005,102.8798 L177.27545,107.4734 L178.75055,102.8798 Z M184.61015,103.8698 L181.92725,103.8698 L181.92725,105.3647 L184.42205,105.3647 L184.42205,106.3547 L181.92725,106.3547 L181.92725,107.81 L184.61015,107.81 L184.61015,108.8 L180.88775,108.8 L180.88775,102.8798 L184.61015,102.8798 L184.61015,103.8698 Z M187.29185,107.81 L189.91535,107.81 L189.91535,108.8 L186.25235,108.8 L186.25235,102.8798 L187.29185,102.8798 L187.29185,107.81 Z M192.71585,108.8495 C192.41885,108.8495 192.22085,108.7901 192.01295,108.6119 C191.87435,108.4931 191.64665,108.2753 191.54765,108.1664 C191.31005,107.909 191.22095,107.7011 191.22095,107.3546 L191.22095,104.3252 C191.22095,104.0282 191.28035,103.8302 191.45855,103.6223 C191.57735,103.4837 191.79515,103.256 191.90405,103.157 C192.16145,102.9194 192.36935,102.8303 192.71585,102.8303 L194.22065,102.8303 C194.51765,102.8303 194.71565,102.8897 194.92355,103.0679 C195.06215,103.1867 195.28985,103.4045 195.38885,103.5134 C195.62645,103.7708 195.71555,103.9787 195.71555,104.3252 L195.71555,107.3546 C195.71555,107.6516 195.65615,107.8496 195.47795,108.0575 C195.35915,108.1961 195.14135,108.4238 195.03245,108.5228 C194.77505,108.7604 194.56715,108.8495 194.22065,108.8495 L192.71585,108.8495 Z M192.26045,107.3843 C192.26045,107.4239 192.32975,107.513 192.46835,107.6516 C192.59705,107.7803 192.69605,107.8595 192.73565,107.8595 L194.20085,107.8595 C194.24045,107.8595 194.32955,107.7902 194.46815,107.6516 C194.59685,107.5229 194.67605,107.4239 194.67605,107.3843 L194.67605,104.2955 C194.67605,104.2559 194.60675,104.1668 194.46815,104.0282 C194.33945,103.8995 194.24045,103.8203 194.20085,103.8203 L192.73565,103.8203 C192.69605,103.8203 192.60695,103.8896 192.46835,104.0282 C192.33965,104.1569 192.26045,104.2559 192.26045,104.2955 L192.26045,107.3843 Z M201.35735,103.553 C201.49595,103.7411 201.55535,103.9688 201.55535,104.1767 L201.55535,105.1667 C201.55535,105.3746 201.49595,105.6023 201.35735,105.7904 C201.26825,105.9092 201.00095,106.1765 200.88215,106.2656 C200.69405,106.4042 200.46635,106.4636 200.25845,106.4636 L198.39725,106.4636 L198.39725,108.8 L197.35775,108.8 L197.35775,102.8798 L200.25845,102.8798 C200.46635,102.8798 200.69405,102.9392 200.88215,103.0778 C201.00095,103.1669 201.26825,103.4342 201.35735,103.553 Z M200.51585,105.0776 L200.51585,104.2658 C200.51585,104.1866 200.47625,104.1272 200.36735,104.0183 C200.25845,103.9094 200.19905,103.8698 200.11985,103.8698 L198.39725,103.8698 L198.39725,105.4736 L200.11985,105.4736 C200.19905,105.4736 200.25845,105.434 200.36735,105.3251 C200.47625,105.2162 200.51585,105.1568 200.51585,105.0776 Z M206.94965,102.8798 L208.14755,102.8798 L208.14755,108.8 L207.10805,108.8 L207.10805,104.7806 L205.95965,107.2853 L205.11815,107.2853 L203.96975,104.7806 L203.96975,108.8 L202.93025,108.8 L202.93025,102.8798 L204.12815,102.8798 L205.54385,105.929 L206.94965,102.8798 Z M213.55175,103.8698 L210.86885,103.8698 L210.86885,105.3647 L213.36365,105.3647 L213.36365,106.3547 L210.86885,106.3547 L210.86885,107.81 L213.55175,107.81 L213.55175,108.8 L209.82935,108.8 L209.82935,102.8798 L213.55175,102.8798 L213.55175,103.8698 Z M218.34215,102.8798 L219.38165,102.8798 L219.38165,108.8 L218.28275,108.8 L216.23345,104.8697 L216.23345,108.8 L215.19395,108.8 L215.19395,102.8798 L216.31265,102.8798 L218.34215,106.8695 L218.34215,102.8798 Z M224.99375,102.8798 L224.99375,103.8698 L223.38995,103.8698 L223.38995,108.8 L222.35045,108.8 L222.35045,103.8698 L220.74665,103.8698 L220.74665,102.8798 L224.99375,102.8798 Z M162.8993,111.8798 L162.8993,112.8698 L161.2955,112.8698 L161.2955,117.8 L160.256,117.8 L160.256,112.8698 L158.6522,112.8698 L158.6522,111.8798 L162.8993,111.8798 Z M167.9867,112.8698 L165.3038,112.8698 L165.3038,114.3647 L167.7986,114.3647 L167.7986,115.3547 L165.3038,115.3547 L165.3038,116.81 L167.9867,116.81 L167.9867,117.8 L164.2643,117.8 L164.2643,111.8798 L167.9867,111.8798 L167.9867,112.8698 Z M173.1929,117.8 L172.7672,116.5427 L170.5001,116.5427 L170.0744,117.8 L168.9656,117.8 L171.0347,111.8798 L172.2425,111.8798 L174.3017,117.8 L173.1929,117.8 Z M170.8367,115.5527 L172.4405,115.5527 L171.6386,113.1668 L170.8367,115.5527 Z M179.3396,111.8798 L180.5375,111.8798 L180.5375,117.8 L179.498,117.8 L179.498,113.7806 L178.3496,116.2853 L177.5081,116.2853 L176.3597,113.7806 L176.3597,117.8 L175.3202,117.8 L175.3202,111.8798 L176.5181,111.8798 L177.9338,114.929 L179.3396,111.8798 Z M183.4667,117.8495 C182.9816,117.8495 182.645,117.5624 182.3381,117.1961 C182.2193,117.0575 182.0411,116.7803 181.9916,116.6516 L183.0113,116.3843 C183.1994,116.6714 183.4172,116.8595 183.5063,116.8595 L185.1299,116.8595 C185.1695,116.8595 185.2586,116.7902 185.3972,116.6516 C185.5259,116.5229 185.6051,116.4239 185.6051,116.3843 L185.6051,115.8002 C185.6051,115.7111 185.5358,115.6418 185.4863,115.6319 L182.9123,114.8993 C182.4074,114.7607 182.1401,114.2855 182.1401,113.8202 L182.1401,113.3252 C182.1401,113.0282 182.1995,112.8302 182.3777,112.6223 C182.4965,112.4837 182.7143,112.256 182.8232,112.157 C183.0806,111.9194 183.2885,111.8303 183.635,111.8303 L185.0804,111.8303 C185.5655,111.8303 185.9021,112.1174 186.209,112.4837 C186.3278,112.6223 186.506,112.8995 186.5555,113.0282 L185.5358,113.2955 C185.3477,113.0084 185.1299,112.8203 185.0507,112.8203 L183.6548,112.8203 C183.6152,112.8203 183.5261,112.8896 183.3875,113.0282 C183.2588,113.1569 183.1796,113.2559 183.1796,113.2955 L183.1796,113.7608 C183.1796,113.8499 183.239,113.9192 183.2885,113.9291 L185.8724,114.6815 C186.3773,114.83 186.6446,115.3151 186.6446,115.7606 L186.6446,116.3546 C186.6446,116.6516 186.5852,116.8496 186.407,117.0575 C186.2882,117.1961 186.0704,117.4238 185.9615,117.5228 C185.7041,117.7604 185.4962,117.8495 185.1497,117.8495 L183.4667,117.8495 Z" id="THE-STRUCTURE-OF-OUR" fill="#000000" fill-rule="nonzero"></path>
        </g>
    </g>
</svg>