<?xml version="1.0" encoding="utf-8"?>
<!-- Generator: Adobe Illustrator 22.1.0, SVG Export Plug-In . SVG Version: 6.00 Build 0)  -->
<svg version="1.1" id="Layer_1" xmlns="http://www.w3.org/2000/svg" xmlns:xlink="http://www.w3.org/1999/xlink" x="0px" y="0px"
	 viewBox="0 0 582 551" style="enable-background:new 0 0 582 551;" xml:space="preserve">
<style type="text/css">
	.st0{fill:none;stroke:#0E77D2;stroke-width:10;}
	.st1{enable-background:new    ;}
</style>
<title>Group 3</title>
<desc>Created with Sketch.</desc>
<g id="Mockup-V2---Web">
	<g id="Practices-in-Action---Overview" transform="translate(-233.000000, -433.000000)">
		<g id="Group-3" transform="translate(238.000000, 438.000000)">
			<g id="Venn-Diagram">
				<g id="Group">
					<ellipse id="Oval-5" class="st0" cx="191" cy="352.7" rx="191" ry="188.3"/>
					<ellipse id="Oval-5_1_" class="st0" cx="381" cy="351.6" rx="191" ry="188.3"/>
					<ellipse id="Oval-5_2_" class="st0" cx="285.4" cy="188.3" rx="191" ry="188.3"/>
				</g>
				<g class="st1">
					<path d="M404.4,382.5c-0.3-0.3-0.9-0.8-1.1-1.1c-0.6-0.6-0.8-1.1-0.8-2v-7.3c0-0.7,0.1-1.2,0.6-1.7c0.3-0.3,0.8-0.9,1.1-1.1
						c0.6-0.6,1.1-0.8,2-0.8h3.3c1.2,0,2,0.7,2.7,1.6c0.3,0.3,0.7,1,0.8,1.3l-2.5,0.6c-0.5-0.7-1-1.2-1.2-1.2h-3.1
						c-0.1,0-0.3,0.2-0.6,0.5c-0.3,0.3-0.5,0.6-0.5,0.6v7.5c0,0.1,0.2,0.3,0.5,0.6c0.3,0.3,0.6,0.5,0.6,0.5h3.1
						c0.2,0,0.7-0.5,1.2-1.2l2.5,0.6c-0.1,0.3-0.6,1-0.8,1.3c-0.7,0.9-1.6,1.6-2.7,1.6h-3.3C405.4,383.1,404.9,383,404.4,382.5z"/>
					<path d="M417.6,382.5c-0.3-0.3-0.9-0.8-1.1-1.1c-0.6-0.6-0.8-1.1-0.8-2v-7.3c0-0.7,0.1-1.2,0.6-1.7c0.3-0.3,0.8-0.9,1.1-1.1
						c0.6-0.6,1.1-0.8,2-0.8h3.6c0.7,0,1.2,0.1,1.7,0.6c0.3,0.3,0.9,0.8,1.1,1.1c0.6,0.6,0.8,1.1,0.8,2v7.3c0,0.7-0.1,1.2-0.6,1.7
						c-0.3,0.3-0.8,0.9-1.1,1.1c-0.6,0.6-1.1,0.8-2,0.8h-3.6C418.5,383.1,418.1,383,417.6,382.5z M418.7,380.2
						c0.3,0.3,0.6,0.5,0.6,0.5h3.6c0.1,0,0.3-0.2,0.6-0.5c0.3-0.3,0.5-0.6,0.5-0.6v-7.5c0-0.1-0.2-0.3-0.5-0.6
						c-0.3-0.3-0.6-0.5-0.6-0.5h-3.6c-0.1,0-0.3,0.2-0.6,0.5c-0.3,0.3-0.5,0.6-0.5,0.6v7.5C418.2,379.7,418.3,379.9,418.7,380.2z"/>
					<path d="M438.8,380.6v2.4h-8.9v-14.4h2.5v12H438.8z"/>
					<path d="M450.3,380.6v2.4h-8.9v-14.4h2.5v12H450.3z"/>
					<path d="M460.5,380H455l-1,3h-2.7l5-14.4h2.9l5,14.4h-2.7L460.5,380z M459.8,377.6l-1.9-5.8l-1.9,5.8H459.8z"/>
					<path d="M476.3,373.8c0,0.9-0.6,1.5-1.1,2.1c0.6,0.6,1.1,1.1,1.1,2.1v1.9c0,0.5-0.1,1.1-0.5,1.5c-0.2,0.3-0.9,0.9-1.2,1.2
						c-0.5,0.3-1,0.5-1.5,0.5h-7v-14.4h7c0.5,0,1.1,0.1,1.5,0.5c0.3,0.2,0.9,0.9,1.2,1.2c0.3,0.5,0.5,1,0.5,1.5V373.8z M473.7,372
						c0-0.2-0.1-0.3-0.4-0.6c-0.3-0.3-0.4-0.4-0.6-0.4h-4.2v3.6h4.2c0.2,0,0.3-0.1,0.6-0.4c0.3-0.3,0.4-0.4,0.4-0.6V372z M473.7,378
						c0-0.2-0.1-0.3-0.4-0.6c-0.3-0.3-0.4-0.4-0.6-0.4h-4.2v3.6h4.2c0.2,0,0.3-0.1,0.6-0.4c0.3-0.3,0.4-0.4,0.4-0.6V378z"/>
					<path d="M481.3,382.5c-0.3-0.3-0.9-0.8-1.1-1.1c-0.6-0.6-0.8-1.1-0.8-2v-7.3c0-0.7,0.1-1.2,0.6-1.7c0.3-0.3,0.8-0.9,1.1-1.1
						c0.6-0.6,1.1-0.8,2-0.8h3.6c0.7,0,1.2,0.1,1.7,0.6c0.3,0.3,0.9,0.8,1.1,1.1c0.6,0.6,0.8,1.1,0.8,2v7.3c0,0.7-0.1,1.2-0.6,1.7
						c-0.3,0.3-0.8,0.9-1.1,1.1c-0.6,0.6-1.1,0.8-2,0.8H483C482.2,383.1,481.8,383,481.3,382.5z M482.4,380.2
						c0.3,0.3,0.6,0.5,0.6,0.5h3.6c0.1,0,0.3-0.2,0.6-0.5c0.3-0.3,0.5-0.6,0.5-0.6v-7.5c0-0.1-0.2-0.3-0.5-0.6
						c-0.3-0.3-0.6-0.5-0.6-0.5H483c-0.1,0-0.3,0.2-0.6,0.5c-0.3,0.3-0.5,0.6-0.5,0.6v7.5C481.9,379.7,482,379.9,482.4,380.2z"/>
					<path d="M498.8,377.3h-2.7v5.7h-2.5v-14.4h7c0.5,0,1.1,0.1,1.5,0.5c0.3,0.2,0.9,0.9,1.2,1.2c0.3,0.5,0.5,1,0.5,1.5v2.4
						c0,0.5-0.1,1.1-0.5,1.5c-0.2,0.3-0.9,0.9-1.2,1.2c-0.2,0.1-0.4,0.3-0.6,0.3l2.8,5.8h-2.8L498.8,377.3z M496.1,374.9h4.2
						c0.2,0,0.3-0.1,0.6-0.4c0.3-0.3,0.4-0.4,0.4-0.6v-2c0-0.2-0.1-0.3-0.4-0.6c-0.3-0.3-0.4-0.4-0.6-0.4h-4.2V374.9z"/>
					<path d="M514.7,380h-5.5l-1,3h-2.7l5-14.4h2.9l5,14.4h-2.7L514.7,380z M513.9,377.6l-1.9-5.8l-1.9,5.8H513.9z"/>
					<path d="M528.3,371h-3.9v12h-2.5v-12H518v-2.4h10.3V371z"/>
					<path d="M533.5,371v3.6h6v2.4h-6v3.5h6.5v2.4h-9v-14.4h9v2.4H533.5z"/>
				</g>
				<g class="st1">
					<path d="M253.4,112.5c-0.3-0.3-0.9-0.8-1.1-1.1c-0.6-0.6-0.8-1.1-0.8-2v-7.3c0-0.7,0.1-1.2,0.6-1.7c0.3-0.3,0.8-0.9,1.1-1.1
						c0.6-0.6,1.1-0.8,2-0.8h3.3c1.2,0,2,0.7,2.7,1.6c0.3,0.3,0.7,1,0.8,1.3l-2.5,0.6c-0.5-0.7-1-1.2-1.2-1.2h-3.1
						c-0.1,0-0.3,0.2-0.6,0.5c-0.3,0.3-0.5,0.6-0.5,0.6v7.5c0,0.1,0.2,0.3,0.5,0.6c0.3,0.3,0.6,0.5,0.6,0.5h3.1
						c0.2,0,0.7-0.5,1.2-1.2l2.5,0.6c-0.1,0.3-0.6,1-0.8,1.3c-0.7,0.9-1.6,1.6-2.7,1.6h-3.3C254.4,113.1,253.9,113,253.4,112.5z"/>
					<path d="M270,107.3h-2.7v5.7h-2.5V98.6h7c0.5,0,1.1,0.1,1.5,0.5c0.3,0.2,0.9,0.9,1.2,1.2c0.3,0.5,0.5,1,0.5,1.5v2.4
						c0,0.5-0.1,1.1-0.5,1.5c-0.2,0.3-0.9,0.9-1.2,1.2c-0.2,0.1-0.4,0.3-0.6,0.3l2.8,5.8h-2.8L270,107.3z M267.3,104.9h4.2
						c0.2,0,0.3-0.1,0.6-0.4s0.4-0.4,0.4-0.6v-2c0-0.2-0.1-0.3-0.4-0.6c-0.3-0.3-0.4-0.4-0.6-0.4h-4.2V104.9z"/>
					<path d="M285.9,110h-5.5l-1,3h-2.7l5-14.4h2.9l5,14.4h-2.7L285.9,110z M285.1,107.6l-1.9-5.8l-1.9,5.8H285.1z"/>
					<path d="M294,101v3.6h6v2.4h-6v5.9h-2.5V98.6h9v2.4H294z"/>
					<path d="M312.9,101H309v12h-2.5v-12h-3.9v-2.4h10.3V101z"/>
				</g>
				<g class="st1">
					<path d="M62.5,380.6v2.4h-8.9v-14.4h2.5v12H62.5z"/>
					<path d="M67.6,371v3.6h6v2.4h-6v3.5h6.5v2.4h-9v-14.4h9v2.4H67.6z"/>
					<path d="M85.1,380h-5.5l-1,3h-2.7l5-14.4h2.9l5,14.4h-2.7L85.1,380z M84.3,377.6l-1.9-5.8l-1.9,5.8H84.3z"/>
					<path d="M95.9,377.3h-2.7v5.7h-2.5v-14.4h7c0.5,0,1.1,0.1,1.5,0.5c0.3,0.2,0.9,0.9,1.2,1.2c0.3,0.5,0.5,1,0.5,1.5v2.4
						c0,0.5-0.1,1.1-0.5,1.5c-0.2,0.3-0.9,0.9-1.2,1.2c-0.2,0.1-0.4,0.3-0.6,0.3l2.8,5.8h-2.8L95.9,377.3z M93.2,374.9h4.2
						c0.2,0,0.3-0.1,0.6-0.4s0.4-0.4,0.4-0.6v-2c0-0.2-0.1-0.3-0.4-0.6c-0.3-0.3-0.4-0.4-0.6-0.4h-4.2V374.9z"/>
					<path d="M114.4,368.6V383h-2.7l-5-9.5v9.5h-2.5v-14.4h2.7l4.9,9.7v-9.7H114.4z"/>
				</g>
				<g class="st1">
					<path d="M263.3,425.7c-0.6-0.3-1.1-0.6-1.5-1.1c-0.3-0.5-0.5-0.9-0.5-1.5c0-0.1,0-0.2,0.1-0.2c0.1-0.1,0.1-0.1,0.2-0.1h0.8
						c0.2,0,0.3,0.1,0.4,0.3c0.1,0.4,0.4,0.8,0.8,1.2c0.5,0.3,1.1,0.5,1.9,0.5c0.9,0,1.6-0.2,2-0.5c0.4-0.3,0.7-0.8,0.7-1.3
						c0-0.4-0.1-0.7-0.3-0.9s-0.5-0.4-1-0.6c-0.4-0.2-1.1-0.4-1.9-0.6c-0.8-0.2-1.5-0.5-2-0.8s-0.9-0.6-1.1-1
						c-0.2-0.4-0.4-0.9-0.4-1.5c0-0.6,0.2-1.1,0.5-1.5c0.3-0.5,0.8-0.8,1.3-1.1c0.6-0.3,1.3-0.4,2.1-0.4c0.8,0,1.5,0.1,2.1,0.4
						c0.6,0.3,1,0.7,1.4,1.1c0.3,0.4,0.5,0.9,0.5,1.3c0,0.1,0,0.2-0.1,0.2c-0.1,0.1-0.1,0.1-0.2,0.1h-0.8c-0.1,0-0.2,0-0.2-0.1
						c-0.1-0.1-0.1-0.1-0.2-0.2c-0.1-0.5-0.3-0.8-0.8-1.1c-0.4-0.3-1-0.4-1.7-0.4c-0.7,0-1.3,0.1-1.7,0.4c-0.4,0.3-0.6,0.7-0.6,1.3
						c0,0.4,0.1,0.7,0.3,0.9c0.2,0.2,0.5,0.4,0.9,0.6c0.4,0.2,1,0.4,1.8,0.6c0.9,0.3,1.6,0.5,2.1,0.8c0.5,0.3,0.9,0.6,1.2,1
						c0.3,0.4,0.4,0.9,0.4,1.5c0,1-0.4,1.8-1.1,2.3c-0.8,0.6-1.8,0.8-3.1,0.8C264.7,426.2,264,426,263.3,425.7z"/>
					<path d="M273,423.2v-4.3h-1.3c-0.1,0-0.2,0-0.3-0.1c-0.1-0.1-0.1-0.1-0.1-0.3V418c0-0.1,0-0.2,0.1-0.3c0.1-0.1,0.1-0.1,0.3-0.1
						h1.3V415c0-0.1,0-0.2,0.1-0.3c0.1-0.1,0.1-0.1,0.3-0.1h0.7c0.1,0,0.2,0,0.3,0.1s0.1,0.2,0.1,0.3v2.7h2c0.1,0,0.2,0,0.3,0.1
						s0.1,0.2,0.1,0.3v0.5c0,0.1,0,0.2-0.1,0.3c-0.1,0.1-0.2,0.1-0.3,0.1h-2v4.2c0,0.5,0.1,1,0.3,1.2s0.5,0.4,0.9,0.4h1
						c0.1,0,0.2,0,0.3,0.1c0.1,0.1,0.1,0.2,0.1,0.3v0.5c0,0.1,0,0.2-0.1,0.3c-0.1,0.1-0.1,0.1-0.3,0.1h-1.1
						C273.8,426,273,425.1,273,423.2z"/>
					<path d="M279.2,425.9c-0.1-0.1-0.1-0.2-0.1-0.3v-7.6c0-0.1,0-0.2,0.1-0.3c0.1-0.1,0.2-0.1,0.3-0.1h0.7c0.1,0,0.2,0,0.3,0.1
						s0.1,0.2,0.1,0.3v0.7c0.4-0.7,1.2-1.1,2.2-1.1h0.6c0.1,0,0.2,0,0.3,0.1c0.1,0.1,0.1,0.2,0.1,0.3v0.6c0,0.1,0,0.2-0.1,0.3
						c-0.1,0.1-0.2,0.1-0.3,0.1h-0.9c-0.6,0-1,0.2-1.4,0.5c-0.3,0.3-0.5,0.8-0.5,1.4v4.7c0,0.1,0,0.2-0.1,0.3
						c-0.1,0.1-0.2,0.1-0.3,0.1h-0.7C279.3,426,279.2,426,279.2,425.9z"/>
					<path d="M286.1,425.2c-0.6-0.7-1-1.5-1-2.6l0-0.7l0-0.7c0-1.1,0.4-2,1-2.6c0.6-0.7,1.5-1,2.7-1s2.1,0.3,2.7,1
						c0.6,0.7,1,1.5,1,2.6c0,0.2,0,0.5,0,0.7c0,0.2,0,0.5,0,0.7c0,1.1-0.4,2-1,2.6s-1.5,1-2.7,1
						C287.7,426.2,286.8,425.8,286.1,425.2z M290.5,424.3c0.4-0.4,0.6-1.1,0.6-1.9c0-0.1,0-0.3,0-0.6s0-0.5,0-0.6
						c0-0.8-0.2-1.4-0.6-1.9c-0.4-0.4-0.9-0.6-1.6-0.6s-1.2,0.2-1.6,0.6c-0.4,0.4-0.6,1.1-0.6,1.9l0,0.6l0,0.6
						c0,0.8,0.2,1.4,0.6,1.9c0.4,0.4,0.9,0.6,1.6,0.6S290.1,424.7,290.5,424.3z"/>
					<path d="M295.3,425.9c-0.1-0.1-0.1-0.2-0.1-0.3V418c0-0.1,0-0.2,0.1-0.3c0.1-0.1,0.2-0.1,0.3-0.1h0.7c0.1,0,0.2,0,0.3,0.1
						c0.1,0.1,0.1,0.2,0.1,0.3v0.7c0.3-0.4,0.7-0.7,1.1-0.9c0.4-0.2,0.9-0.3,1.6-0.3c1,0,1.8,0.3,2.4,1s0.8,1.5,0.8,2.6v4.5
						c0,0.1,0,0.2-0.1,0.3s-0.2,0.1-0.3,0.1h-0.7c-0.1,0-0.2,0-0.3-0.1s-0.1-0.2-0.1-0.3v-4.4c0-0.8-0.2-1.4-0.6-1.8
						c-0.4-0.4-0.9-0.6-1.6-0.6c-0.7,0-1.2,0.2-1.6,0.6s-0.6,1-0.6,1.8v4.4c0,0.1,0,0.2-0.1,0.3s-0.2,0.1-0.3,0.1h-0.7
						C295.5,426,295.4,426,295.3,425.9z"/>
					<path d="M306.7,429.1c-0.5-0.3-0.9-0.6-1.1-1s-0.3-0.7-0.3-1c0-0.1,0-0.2,0.1-0.2c0.1-0.1,0.2-0.1,0.3-0.1h0.7
						c0.1,0,0.2,0,0.2,0.1c0.1,0,0.1,0.1,0.2,0.3c0.3,0.9,1,1.3,2,1.3c0.8,0,1.4-0.2,1.8-0.5c0.4-0.3,0.6-0.9,0.6-1.8v-1.1
						c-0.6,0.8-1.5,1.2-2.6,1.2c-1.1,0-2-0.4-2.5-1.1c-0.6-0.7-0.9-1.6-0.9-2.8l0-0.4l0-0.4c0-1.1,0.3-2,0.9-2.7
						c0.6-0.7,1.4-1.1,2.5-1.1c1.1,0,2,0.4,2.6,1.2v-0.7c0-0.1,0-0.2,0.1-0.3c0.1-0.1,0.2-0.1,0.3-0.1h0.7c0.1,0,0.2,0,0.3,0.1
						c0.1,0.1,0.1,0.2,0.1,0.3v7.8c0,2.5-1.2,3.7-3.7,3.7C307.9,429.5,307.2,429.4,306.7,429.1z M310.4,424.1
						c0.4-0.5,0.6-1.1,0.6-1.8c0-0.1,0-0.3,0-0.6c0-0.3,0-0.4,0-0.5c0-0.7-0.2-1.3-0.6-1.8c-0.4-0.5-0.9-0.7-1.7-0.7
						c-0.8,0-1.3,0.2-1.7,0.7s-0.5,1.1-0.6,1.9l0,0.4l0,0.4c0,0.8,0.2,1.4,0.6,1.9c0.3,0.5,0.9,0.7,1.7,0.7
						C309.5,424.8,310.1,424.6,310.4,424.1z"/>
				</g>
				<g class="st1">
					<path d="M266.1,444.9c-0.1-0.1-0.1-0.2-0.1-0.3v-9.5h-3.1c-0.1,0-0.2,0-0.3-0.1s-0.1-0.2-0.1-0.3v-0.6c0-0.1,0-0.2,0.1-0.3
						s0.2-0.1,0.3-0.1h7.7c0.1,0,0.2,0,0.3,0.1c0.1,0.1,0.1,0.2,0.1,0.3v0.6c0,0.1,0,0.2-0.1,0.3s-0.2,0.1-0.3,0.1h-3.1v9.5
						c0,0.1,0,0.2-0.1,0.3c-0.1,0.1-0.2,0.1-0.3,0.1h-0.8C266.3,445,266.2,445,266.1,444.9z"/>
					<path d="M272.3,444.1c-0.7-0.7-1-1.6-1.1-2.8l0-0.5l0-0.5c0.1-1.2,0.4-2.1,1.1-2.8c0.7-0.7,1.5-1,2.6-1c1.2,0,2.1,0.4,2.7,1.1
						c0.6,0.7,1,1.8,1,3v0.3c0,0.1,0,0.2-0.1,0.3s-0.2,0.1-0.3,0.1h-5.6v0.1c0,0.7,0.2,1.3,0.6,1.8c0.4,0.5,0.9,0.7,1.6,0.7
						c0.5,0,0.9-0.1,1.2-0.3c0.3-0.2,0.6-0.4,0.7-0.6c0.1-0.1,0.2-0.2,0.2-0.2c0.1,0,0.1,0,0.3,0h0.7c0.1,0,0.2,0,0.2,0.1
						c0.1,0.1,0.1,0.1,0.1,0.2c0,0.2-0.1,0.5-0.4,0.8c-0.3,0.3-0.7,0.6-1.2,0.9s-1.1,0.4-1.8,0.4C273.8,445.2,273,444.8,272.3,444.1
						z M277.2,440.2L277.2,440.2c0-0.8-0.2-1.4-0.6-1.9c-0.4-0.5-0.9-0.7-1.6-0.7c-0.7,0-1.2,0.2-1.6,0.7c-0.4,0.5-0.6,1.1-0.6,1.8
						v0H277.2z"/>
					<path d="M282,444.8c-0.4-0.2-0.8-0.5-1.1-0.9c-0.3-0.4-0.4-0.8-0.4-1.2c0-0.7,0.3-1.3,0.9-1.7c0.6-0.4,1.4-0.7,2.4-0.9l2.4-0.3
						v-0.5c0-1.1-0.6-1.6-1.9-1.6c-0.5,0-0.9,0.1-1.2,0.3c-0.3,0.2-0.5,0.4-0.7,0.7c0,0.1-0.1,0.2-0.1,0.2c0,0-0.1,0.1-0.2,0.1h-0.6
						c-0.1,0-0.2,0-0.2-0.1s-0.1-0.2-0.1-0.2c0-0.2,0.1-0.5,0.3-0.9c0.2-0.3,0.6-0.6,1.1-0.8s1.1-0.4,1.8-0.4c1.2,0,2.1,0.3,2.6,0.8
						c0.5,0.6,0.8,1.2,0.8,2.1v5.2c0,0.1,0,0.2-0.1,0.3c-0.1,0.1-0.2,0.1-0.3,0.1h-0.7c-0.1,0-0.2,0-0.3-0.1s-0.1-0.2-0.1-0.3v-0.7
						c-0.2,0.4-0.6,0.6-1,0.9c-0.4,0.2-1,0.4-1.7,0.4C282.9,445.2,282.4,445.1,282,444.8z M285.5,443.3c0.4-0.5,0.7-1.1,0.7-2v-0.4
						l-1.9,0.3c-0.8,0.1-1.3,0.3-1.7,0.5s-0.6,0.6-0.6,1c0,0.4,0.2,0.8,0.5,1c0.4,0.2,0.8,0.4,1.3,0.4
						C284.5,444,285,443.8,285.5,443.3z"/>
					<path d="M290.6,444.9c-0.1-0.1-0.1-0.2-0.1-0.3V437c0-0.1,0-0.2,0.1-0.3c0.1-0.1,0.2-0.1,0.3-0.1h0.7c0.1,0,0.2,0,0.3,0.1
						c0.1,0.1,0.1,0.2,0.1,0.3v0.5c0.6-0.7,1.4-1.1,2.3-1.1c1.2,0,2,0.5,2.5,1.5c0.3-0.4,0.6-0.8,1.1-1.1s1-0.4,1.6-0.4
						c0.9,0,1.6,0.3,2.1,0.9s0.8,1.5,0.8,2.6v4.6c0,0.1,0,0.2-0.1,0.3s-0.2,0.1-0.3,0.1h-0.7c-0.1,0-0.2,0-0.3-0.1s-0.1-0.2-0.1-0.3
						v-4.5c0-0.9-0.2-1.5-0.5-1.8c-0.4-0.4-0.8-0.6-1.4-0.6c-0.5,0-1,0.2-1.3,0.6c-0.4,0.4-0.6,1-0.6,1.8v4.5c0,0.1,0,0.2-0.1,0.3
						s-0.2,0.1-0.3,0.1h-0.7c-0.1,0-0.2,0-0.3-0.1s-0.1-0.2-0.1-0.3v-4.5c0-0.8-0.2-1.5-0.6-1.8c-0.4-0.4-0.8-0.6-1.4-0.6
						c-0.5,0-1,0.2-1.3,0.6s-0.6,1-0.6,1.8v4.5c0,0.1,0,0.2-0.1,0.3s-0.2,0.1-0.3,0.1h-0.7C290.8,445,290.7,445,290.6,444.9z"/>
					<path d="M306.2,444.8c-0.5-0.2-0.9-0.5-1.1-0.8c-0.2-0.3-0.4-0.6-0.4-0.8c0-0.1,0-0.2,0.1-0.2c0.1-0.1,0.2-0.1,0.2-0.1h0.7
						c0.1,0,0.1,0,0.2,0c0,0,0.1,0.1,0.2,0.1c0.2,0.3,0.5,0.5,0.8,0.7s0.7,0.3,1.2,0.3c0.6,0,1-0.1,1.4-0.3c0.3-0.2,0.5-0.5,0.5-0.9
						c0-0.3-0.1-0.5-0.2-0.6c-0.1-0.2-0.4-0.3-0.7-0.4c-0.3-0.1-0.9-0.3-1.5-0.4c-0.9-0.2-1.6-0.5-2-0.9c-0.4-0.4-0.6-0.9-0.6-1.5
						c0-0.4,0.1-0.8,0.4-1.1s0.6-0.7,1-0.9s1-0.3,1.7-0.3c0.7,0,1.2,0.1,1.7,0.3c0.5,0.2,0.8,0.5,1.1,0.8c0.2,0.3,0.4,0.5,0.4,0.8
						c0,0.1,0,0.2-0.1,0.2c-0.1,0.1-0.2,0.1-0.2,0.1h-0.6c-0.1,0-0.3-0.1-0.3-0.2c-0.2-0.2-0.3-0.4-0.5-0.5
						c-0.1-0.1-0.3-0.2-0.5-0.3s-0.5-0.1-0.9-0.1c-0.5,0-0.9,0.1-1.2,0.3s-0.4,0.5-0.4,0.9c0,0.2,0.1,0.4,0.2,0.6
						c0.1,0.2,0.3,0.3,0.7,0.4c0.3,0.1,0.8,0.3,1.5,0.4c1,0.2,1.7,0.5,2.2,0.9c0.4,0.4,0.6,0.9,0.6,1.5c0,0.5-0.1,0.9-0.4,1.2
						c-0.3,0.4-0.7,0.7-1.2,0.9c-0.5,0.2-1.1,0.3-1.8,0.3C307.4,445.2,306.8,445,306.2,444.8z"/>
				</g>
				<g class="st1">
					<path d="M378.9,226.7c-0.6-0.3-1.1-0.6-1.5-1.1c-0.3-0.5-0.5-0.9-0.5-1.5c0-0.1,0-0.2,0.1-0.2c0.1-0.1,0.1-0.1,0.2-0.1h0.8
						c0.2,0,0.3,0.1,0.4,0.3c0.1,0.4,0.4,0.8,0.8,1.2c0.5,0.3,1.1,0.5,1.9,0.5c0.9,0,1.6-0.2,2-0.5c0.4-0.3,0.7-0.8,0.7-1.3
						c0-0.4-0.1-0.7-0.3-0.9s-0.5-0.4-1-0.6c-0.4-0.2-1.1-0.4-1.9-0.6c-0.8-0.2-1.5-0.5-2-0.8s-0.9-0.6-1.1-1
						c-0.2-0.4-0.4-0.9-0.4-1.5c0-0.6,0.2-1.1,0.5-1.5c0.3-0.5,0.8-0.8,1.3-1.1c0.6-0.3,1.3-0.4,2.1-0.4c0.8,0,1.5,0.1,2.1,0.4
						c0.6,0.3,1,0.7,1.4,1.1c0.3,0.4,0.5,0.9,0.5,1.3c0,0.1,0,0.2-0.1,0.2c-0.1,0.1-0.1,0.1-0.2,0.1h-0.8c-0.1,0-0.2,0-0.2-0.1
						c-0.1-0.1-0.1-0.1-0.2-0.2c-0.1-0.5-0.3-0.8-0.8-1.1c-0.4-0.3-1-0.4-1.7-0.4c-0.7,0-1.3,0.1-1.7,0.4c-0.4,0.3-0.6,0.7-0.6,1.3
						c0,0.4,0.1,0.7,0.3,0.9c0.2,0.2,0.5,0.4,0.9,0.6c0.4,0.2,1,0.4,1.8,0.6c0.9,0.3,1.6,0.5,2.1,0.8c0.5,0.3,0.9,0.6,1.2,1
						c0.3,0.4,0.4,0.9,0.4,1.5c0,1-0.4,1.8-1.1,2.3c-0.8,0.6-1.8,0.8-3.1,0.8C380.3,227.2,379.5,227,378.9,226.7z"/>
					<path d="M388.6,224.2v-4.3h-1.3c-0.1,0-0.2,0-0.3-0.1c-0.1-0.1-0.1-0.1-0.1-0.3V219c0-0.1,0-0.2,0.1-0.3
						c0.1-0.1,0.1-0.1,0.3-0.1h1.3V216c0-0.1,0-0.2,0.1-0.3c0.1-0.1,0.1-0.1,0.3-0.1h0.7c0.1,0,0.2,0,0.3,0.1s0.1,0.2,0.1,0.3v2.7h2
						c0.1,0,0.2,0,0.3,0.1s0.1,0.2,0.1,0.3v0.5c0,0.1,0,0.2-0.1,0.3c-0.1,0.1-0.2,0.1-0.3,0.1h-2v4.2c0,0.5,0.1,1,0.3,1.2
						s0.5,0.4,0.9,0.4h1c0.1,0,0.2,0,0.3,0.1c0.1,0.1,0.1,0.2,0.1,0.3v0.5c0,0.1,0,0.2-0.1,0.3c-0.1,0.1-0.1,0.1-0.3,0.1H391
						C389.4,227,388.6,226.1,388.6,224.2z"/>
					<path d="M395.5,226.8c-0.4-0.2-0.8-0.5-1.1-0.9s-0.4-0.8-0.4-1.2c0-0.7,0.3-1.3,0.9-1.7c0.6-0.4,1.4-0.7,2.4-0.9l2.4-0.3v-0.5
						c0-1.1-0.6-1.6-1.9-1.6c-0.5,0-0.9,0.1-1.2,0.3c-0.3,0.2-0.5,0.4-0.7,0.7c0,0.1-0.1,0.2-0.1,0.2c0,0-0.1,0.1-0.2,0.1h-0.6
						c-0.1,0-0.2,0-0.2-0.1s-0.1-0.2-0.1-0.2c0-0.2,0.1-0.5,0.3-0.9c0.2-0.3,0.6-0.6,1.1-0.8c0.5-0.2,1.1-0.4,1.8-0.4
						c1.2,0,2.1,0.3,2.6,0.8c0.5,0.6,0.8,1.2,0.8,2.1v5.2c0,0.1,0,0.2-0.1,0.3s-0.2,0.1-0.3,0.1H400c-0.1,0-0.2,0-0.3-0.1
						c-0.1-0.1-0.1-0.2-0.1-0.3v-0.7c-0.2,0.4-0.6,0.6-1,0.9c-0.4,0.2-1,0.4-1.7,0.4C396.4,227.2,395.9,227.1,395.5,226.8z
						 M399,225.3c0.4-0.5,0.7-1.1,0.7-2v-0.4l-1.9,0.3c-0.8,0.1-1.3,0.3-1.7,0.5s-0.6,0.6-0.6,1c0,0.4,0.2,0.8,0.5,1
						c0.4,0.2,0.8,0.4,1.3,0.4C397.9,226,398.5,225.8,399,225.3z"/>
					<path d="M405.4,225.9v0.7c0,0.1,0,0.2-0.1,0.3s-0.2,0.1-0.3,0.1h-0.7c-0.1,0-0.2,0-0.3-0.1s-0.1-0.2-0.1-0.3V216
						c0-0.1,0-0.2,0.1-0.3c0.1-0.1,0.2-0.1,0.3-0.1h0.7c0.1,0,0.2,0,0.3,0.1s0.1,0.2,0.1,0.3v3.7c0.6-0.8,1.5-1.2,2.6-1.2
						c1.1,0,2,0.4,2.5,1.1c0.6,0.7,0.9,1.6,0.9,2.7c0,0.1,0,0.3,0,0.5c0,0.2,0,0.4,0,0.5c0,1.1-0.3,2-0.9,2.7
						c-0.6,0.7-1.4,1.1-2.5,1.1C406.9,227.2,406,226.8,405.4,225.9z M409.4,225.2c0.4-0.5,0.5-1.1,0.6-1.9c0-0.1,0-0.3,0-0.5
						c0-2-0.8-3.1-2.3-3.1c-0.7,0-1.3,0.2-1.7,0.7c-0.4,0.5-0.6,1-0.6,1.7c0,0.1,0,0.3,0,0.6c0,0.3,0,0.5,0,0.6
						c0,0.7,0.2,1.3,0.6,1.8s0.9,0.7,1.7,0.7C408.5,225.9,409.1,225.7,409.4,225.2z"/>
					<path d="M414.2,226.9c-0.1-0.1-0.1-0.2-0.1-0.3V216c0-0.1,0-0.2,0.1-0.3c0.1-0.1,0.2-0.1,0.3-0.1h0.7c0.1,0,0.2,0,0.3,0.1
						s0.1,0.2,0.1,0.3v10.6c0,0.1,0,0.2-0.1,0.3s-0.2,0.1-0.3,0.1h-0.7C414.3,227,414.2,227,414.2,226.9z"/>
					<path d="M419.1,226.1c-0.7-0.7-1-1.6-1.1-2.8l0-0.5l0-0.5c0.1-1.2,0.4-2.1,1.1-2.8c0.7-0.7,1.5-1,2.6-1c1.2,0,2.1,0.4,2.7,1.1
						c0.6,0.7,1,1.8,1,3v0.3c0,0.1,0,0.2-0.1,0.3s-0.2,0.1-0.3,0.1h-5.6v0.1c0,0.7,0.2,1.3,0.6,1.8c0.4,0.5,0.9,0.7,1.6,0.7
						c0.5,0,0.9-0.1,1.2-0.3s0.6-0.4,0.7-0.6c0.1-0.1,0.2-0.2,0.2-0.2c0.1,0,0.1,0,0.3,0h0.7c0.1,0,0.2,0,0.2,0.1
						c0.1,0.1,0.1,0.1,0.1,0.2c0,0.2-0.1,0.5-0.4,0.8c-0.3,0.3-0.7,0.6-1.2,0.9c-0.5,0.2-1.1,0.4-1.8,0.4
						C420.7,227.2,419.8,226.8,419.1,226.1z M424,222.2L424,222.2c0-0.8-0.2-1.4-0.6-1.9c-0.4-0.5-0.9-0.7-1.6-0.7
						c-0.7,0-1.2,0.2-1.6,0.7c-0.4,0.5-0.6,1.1-0.6,1.8v0H424z"/>
				</g>
				<g class="st1">
					<path d="M370.2,245.7c-0.6-0.3-1.1-0.6-1.5-1.1c-0.3-0.5-0.5-0.9-0.5-1.5c0-0.1,0-0.2,0.1-0.2c0.1-0.1,0.1-0.1,0.2-0.1h0.8
						c0.2,0,0.3,0.1,0.4,0.3c0.1,0.4,0.4,0.8,0.8,1.2c0.5,0.3,1.1,0.5,1.9,0.5c0.9,0,1.6-0.2,2-0.5c0.4-0.3,0.7-0.8,0.7-1.3
						c0-0.4-0.1-0.7-0.3-0.9s-0.5-0.4-1-0.6c-0.4-0.2-1.1-0.4-1.9-0.6c-0.8-0.2-1.5-0.5-2-0.8s-0.9-0.6-1.1-1
						c-0.2-0.4-0.4-0.9-0.4-1.5c0-0.6,0.2-1.1,0.5-1.5c0.3-0.5,0.8-0.8,1.3-1.1c0.6-0.3,1.3-0.4,2.1-0.4c0.8,0,1.5,0.1,2.1,0.4
						c0.6,0.3,1,0.7,1.4,1.1c0.3,0.4,0.5,0.9,0.5,1.3c0,0.1,0,0.2-0.1,0.2c-0.1,0.1-0.1,0.1-0.2,0.1h-0.8c-0.1,0-0.2,0-0.2-0.1
						c-0.1-0.1-0.1-0.1-0.2-0.2c-0.1-0.5-0.3-0.8-0.8-1.1c-0.4-0.3-1-0.4-1.7-0.4c-0.7,0-1.3,0.1-1.7,0.4c-0.4,0.3-0.6,0.7-0.6,1.3
						c0,0.4,0.1,0.7,0.3,0.9c0.2,0.2,0.5,0.4,0.9,0.6c0.4,0.2,1,0.4,1.8,0.6c0.9,0.3,1.6,0.5,2.1,0.8c0.5,0.3,0.9,0.6,1.2,1
						c0.3,0.4,0.4,0.9,0.4,1.5c0,1-0.4,1.8-1.1,2.3c-0.8,0.6-1.8,0.8-3.1,0.8C371.6,246.2,370.8,246,370.2,245.7z"/>
					<path d="M380.4,248.9c-0.1-0.1-0.1-0.1-0.1-0.2c0,0,0-0.1,0.1-0.3l1.2-2.9l-3.1-7.2c-0.1-0.1-0.1-0.2-0.1-0.3
						c0-0.1,0-0.2,0.1-0.2c0.1-0.1,0.1-0.1,0.2-0.1h0.7c0.2,0,0.3,0.1,0.4,0.3l2.5,5.9l2.5-5.9c0.1-0.2,0.2-0.3,0.4-0.3h0.7
						c0.1,0,0.2,0,0.2,0.1c0.1,0.1,0.1,0.1,0.1,0.2c0,0.1,0,0.2-0.1,0.3l-4.5,10.5c-0.1,0.1-0.1,0.1-0.2,0.2c-0.1,0-0.1,0.1-0.2,0.1
						h-0.7C380.5,249,380.4,249,380.4,248.9z"/>
					<path d="M389.2,245.8c-0.5-0.2-0.9-0.5-1.1-0.8c-0.2-0.3-0.4-0.6-0.4-0.8c0-0.1,0-0.2,0.1-0.2c0.1-0.1,0.2-0.1,0.2-0.1h0.7
						c0.1,0,0.1,0,0.2,0s0.1,0.1,0.2,0.1c0.2,0.3,0.5,0.5,0.8,0.7c0.3,0.2,0.7,0.3,1.2,0.3c0.6,0,1-0.1,1.4-0.3
						c0.3-0.2,0.5-0.5,0.5-0.9c0-0.3-0.1-0.5-0.2-0.6s-0.4-0.3-0.7-0.4c-0.3-0.1-0.9-0.3-1.5-0.4c-0.9-0.2-1.6-0.5-2-0.9
						c-0.4-0.4-0.6-0.9-0.6-1.5c0-0.4,0.1-0.8,0.4-1.1c0.2-0.4,0.6-0.7,1-0.9s1-0.3,1.7-0.3c0.7,0,1.2,0.1,1.7,0.3
						c0.5,0.2,0.8,0.5,1.1,0.8c0.2,0.3,0.4,0.5,0.4,0.8c0,0.1,0,0.2-0.1,0.2c-0.1,0.1-0.2,0.1-0.2,0.1h-0.6c-0.1,0-0.3-0.1-0.3-0.2
						c-0.2-0.2-0.3-0.4-0.5-0.5c-0.1-0.1-0.3-0.2-0.5-0.3c-0.2-0.1-0.5-0.1-0.9-0.1c-0.5,0-0.9,0.1-1.2,0.3s-0.4,0.5-0.4,0.9
						c0,0.2,0.1,0.4,0.2,0.6c0.1,0.2,0.3,0.3,0.7,0.4c0.3,0.1,0.8,0.3,1.5,0.4c1,0.2,1.7,0.5,2.2,0.9c0.4,0.4,0.6,0.9,0.6,1.5
						c0,0.5-0.1,0.9-0.4,1.2c-0.3,0.4-0.7,0.7-1.2,0.9c-0.5,0.2-1.1,0.3-1.8,0.3C390.3,246.2,389.7,246,389.2,245.8z"/>
					<path d="M397.6,243.2v-4.3h-1.3c-0.1,0-0.2,0-0.3-0.1c-0.1-0.1-0.1-0.1-0.1-0.3V238c0-0.1,0-0.2,0.1-0.3
						c0.1-0.1,0.1-0.1,0.3-0.1h1.3V235c0-0.1,0-0.2,0.1-0.3c0.1-0.1,0.1-0.1,0.3-0.1h0.7c0.1,0,0.2,0,0.3,0.1s0.1,0.2,0.1,0.3v2.7h2
						c0.1,0,0.2,0,0.3,0.1s0.1,0.2,0.1,0.3v0.5c0,0.1,0,0.2-0.1,0.3c-0.1,0.1-0.2,0.1-0.3,0.1h-2v4.2c0,0.5,0.1,1,0.3,1.2
						s0.5,0.4,0.9,0.4h1c0.1,0,0.2,0,0.3,0.1c0.1,0.1,0.1,0.2,0.1,0.3v0.5c0,0.1,0,0.2-0.1,0.3c-0.1,0.1-0.1,0.1-0.3,0.1h-1.1
						C398.4,246,397.6,245.1,397.6,243.2z"/>
					<path d="M404.4,245.1c-0.7-0.7-1-1.6-1.1-2.8l0-0.5l0-0.5c0.1-1.2,0.4-2.1,1.1-2.8s1.5-1,2.6-1c1.2,0,2.1,0.4,2.7,1.1
						c0.6,0.7,1,1.8,1,3v0.3c0,0.1,0,0.2-0.1,0.3s-0.2,0.1-0.3,0.1h-5.6v0.1c0,0.7,0.2,1.3,0.6,1.8c0.4,0.5,0.9,0.7,1.6,0.7
						c0.5,0,0.9-0.1,1.2-0.3c0.3-0.2,0.6-0.4,0.7-0.6c0.1-0.1,0.2-0.2,0.2-0.2c0.1,0,0.1,0,0.3,0h0.7c0.1,0,0.2,0,0.2,0.1
						c0.1,0.1,0.1,0.1,0.1,0.2c0,0.2-0.1,0.5-0.4,0.8c-0.3,0.3-0.7,0.6-1.2,0.9c-0.5,0.2-1.1,0.4-1.8,0.4
						C405.9,246.2,405,245.8,404.4,245.1z M409.2,241.2L409.2,241.2c0-0.8-0.2-1.4-0.6-1.9c-0.4-0.5-0.9-0.7-1.6-0.7
						c-0.7,0-1.2,0.2-1.6,0.7c-0.4,0.5-0.6,1.1-0.6,1.8v0H409.2z"/>
					<path d="M413.3,245.9c-0.1-0.1-0.1-0.2-0.1-0.3V238c0-0.1,0-0.2,0.1-0.3c0.1-0.1,0.2-0.1,0.3-0.1h0.7c0.1,0,0.2,0,0.3,0.1
						c0.1,0.1,0.1,0.2,0.1,0.3v0.5c0.6-0.7,1.4-1.1,2.3-1.1c1.2,0,2,0.5,2.5,1.5c0.3-0.4,0.6-0.8,1.1-1.1s1-0.4,1.6-0.4
						c0.9,0,1.6,0.3,2.1,0.9s0.8,1.5,0.8,2.6v4.6c0,0.1,0,0.2-0.1,0.3s-0.2,0.1-0.3,0.1H424c-0.1,0-0.2,0-0.3-0.1s-0.1-0.2-0.1-0.3
						v-4.5c0-0.9-0.2-1.5-0.5-1.8c-0.4-0.4-0.8-0.6-1.4-0.6c-0.5,0-1,0.2-1.3,0.6c-0.4,0.4-0.6,1-0.6,1.8v4.5c0,0.1,0,0.2-0.1,0.3
						s-0.2,0.1-0.3,0.1h-0.7c-0.1,0-0.2,0-0.3-0.1s-0.1-0.2-0.1-0.3v-4.5c0-0.8-0.2-1.5-0.6-1.8c-0.4-0.4-0.8-0.6-1.4-0.6
						c-0.5,0-1,0.2-1.3,0.6s-0.6,1-0.6,1.8v4.5c0,0.1,0,0.2-0.1,0.3s-0.2,0.1-0.3,0.1h-0.7C413.4,246,413.3,246,413.3,245.9z"/>
					<path d="M428.9,245.8c-0.5-0.2-0.9-0.5-1.1-0.8c-0.2-0.3-0.4-0.6-0.4-0.8c0-0.1,0-0.2,0.1-0.2c0.1-0.1,0.2-0.1,0.2-0.1h0.7
						c0.1,0,0.1,0,0.2,0c0,0,0.1,0.1,0.2,0.1c0.2,0.3,0.5,0.5,0.8,0.7s0.7,0.3,1.2,0.3c0.6,0,1-0.1,1.4-0.3c0.3-0.2,0.5-0.5,0.5-0.9
						c0-0.3-0.1-0.5-0.2-0.6c-0.1-0.2-0.4-0.3-0.7-0.4c-0.3-0.1-0.9-0.3-1.5-0.4c-0.9-0.2-1.6-0.5-2-0.9c-0.4-0.4-0.6-0.9-0.6-1.5
						c0-0.4,0.1-0.8,0.4-1.1s0.6-0.7,1-0.9s1-0.3,1.7-0.3c0.7,0,1.2,0.1,1.7,0.3c0.5,0.2,0.8,0.5,1.1,0.8c0.2,0.3,0.4,0.5,0.4,0.8
						c0,0.1,0,0.2-0.1,0.2c-0.1,0.1-0.2,0.1-0.2,0.1h-0.6c-0.1,0-0.3-0.1-0.3-0.2c-0.2-0.2-0.3-0.4-0.5-0.5
						c-0.1-0.1-0.3-0.2-0.5-0.3s-0.5-0.1-0.9-0.1c-0.5,0-0.9,0.1-1.2,0.3s-0.4,0.5-0.4,0.9c0,0.2,0.1,0.4,0.2,0.6
						c0.1,0.2,0.3,0.3,0.7,0.4c0.3,0.1,0.8,0.3,1.5,0.4c1,0.2,1.7,0.5,2.2,0.9c0.4,0.4,0.6,0.9,0.6,1.5c0,0.5-0.1,0.9-0.4,1.2
						c-0.3,0.4-0.7,0.7-1.2,0.9c-0.5,0.2-1.1,0.3-1.8,0.3C430,246.2,429.4,246,428.9,245.8z"/>
				</g>
				<g class="st1">
					<path d="M138.3,226.7c-0.6-0.3-1.1-0.6-1.5-1.1c-0.3-0.5-0.5-0.9-0.5-1.5c0-0.1,0-0.2,0.1-0.2c0.1-0.1,0.1-0.1,0.2-0.1h0.8
						c0.2,0,0.3,0.1,0.4,0.3c0.1,0.4,0.4,0.8,0.8,1.2c0.5,0.3,1.1,0.5,1.9,0.5c0.9,0,1.6-0.2,2-0.5c0.4-0.3,0.7-0.8,0.7-1.3
						c0-0.4-0.1-0.7-0.3-0.9c-0.2-0.2-0.5-0.4-1-0.6c-0.4-0.2-1.1-0.4-1.9-0.6c-0.8-0.2-1.5-0.5-2-0.8c-0.5-0.3-0.9-0.6-1.1-1
						c-0.2-0.4-0.4-0.9-0.4-1.5c0-0.6,0.2-1.1,0.5-1.5c0.3-0.5,0.8-0.8,1.3-1.1s1.3-0.4,2.1-0.4c0.8,0,1.5,0.1,2.1,0.4
						c0.6,0.3,1,0.7,1.4,1.1c0.3,0.4,0.5,0.9,0.5,1.3c0,0.1,0,0.2-0.1,0.2c-0.1,0.1-0.1,0.1-0.2,0.1h-0.8c-0.1,0-0.2,0-0.2-0.1
						c-0.1-0.1-0.1-0.1-0.2-0.2c-0.1-0.5-0.3-0.8-0.8-1.1c-0.4-0.3-1-0.4-1.7-0.4c-0.7,0-1.3,0.1-1.7,0.4c-0.4,0.3-0.6,0.7-0.6,1.3
						c0,0.4,0.1,0.7,0.3,0.9c0.2,0.2,0.5,0.4,0.9,0.6s1,0.4,1.8,0.6c0.9,0.3,1.6,0.5,2.1,0.8c0.5,0.3,0.9,0.6,1.2,1
						c0.3,0.4,0.4,0.9,0.4,1.5c0,1-0.4,1.8-1.1,2.3c-0.8,0.6-1.8,0.8-3.1,0.8C139.7,227.2,138.9,227,138.3,226.7z"/>
					<path d="M147.4,226.9c-0.1-0.1-0.1-0.2-0.1-0.3V216c0-0.1,0-0.2,0.1-0.3c0.1-0.1,0.2-0.1,0.3-0.1h0.7c0.1,0,0.2,0,0.3,0.1
						c0.1,0.1,0.1,0.2,0.1,0.3v5.6l3.2-2.6c0.2-0.1,0.3-0.2,0.3-0.2c0.1,0,0.2,0,0.3,0h0.8c0.1,0,0.2,0,0.2,0.1
						c0.1,0.1,0.1,0.1,0.1,0.2c0,0.1-0.1,0.2-0.2,0.3l-3.7,3.1l4.1,4c0.1,0.1,0.2,0.2,0.2,0.3c0,0.1,0,0.2-0.1,0.2
						c-0.1,0.1-0.1,0.1-0.2,0.1H153c-0.2,0-0.3,0-0.3,0s-0.2-0.1-0.3-0.2l-3.6-3.4v3.3c0,0.1,0,0.2-0.1,0.3
						c-0.1,0.1-0.2,0.1-0.3,0.1h-0.7C147.5,227,147.4,227,147.4,226.9z"/>
					<path d="M156,217c-0.1-0.1-0.1-0.2-0.1-0.3v-0.8c0-0.1,0-0.2,0.1-0.3c0.1-0.1,0.2-0.1,0.3-0.1h0.9c0.1,0,0.2,0,0.3,0.1
						c0.1,0.1,0.1,0.2,0.1,0.3v0.8c0,0.1,0,0.2-0.1,0.3s-0.2,0.1-0.3,0.1h-0.9C156.2,217.1,156.1,217.1,156,217z M156.1,226.9
						c-0.1-0.1-0.1-0.2-0.1-0.3V219c0-0.1,0-0.2,0.1-0.3c0.1-0.1,0.2-0.1,0.3-0.1h0.7c0.1,0,0.2,0,0.3,0.1c0.1,0.1,0.1,0.2,0.1,0.3
						v7.6c0,0.1,0,0.2-0.1,0.3c-0.1,0.1-0.2,0.1-0.3,0.1h-0.7C156.3,227,156.2,227,156.1,226.9z"/>
					<path d="M160.5,226.9c-0.1-0.1-0.1-0.2-0.1-0.3V216c0-0.1,0-0.2,0.1-0.3c0.1-0.1,0.2-0.1,0.3-0.1h0.7c0.1,0,0.2,0,0.3,0.1
						s0.1,0.2,0.1,0.3v10.6c0,0.1,0,0.2-0.1,0.3s-0.2,0.1-0.3,0.1h-0.7C160.7,227,160.6,227,160.5,226.9z"/>
					<path d="M165,226.9c-0.1-0.1-0.1-0.2-0.1-0.3V216c0-0.1,0-0.2,0.1-0.3c0.1-0.1,0.2-0.1,0.3-0.1h0.7c0.1,0,0.2,0,0.3,0.1
						s0.1,0.2,0.1,0.3v10.6c0,0.1,0,0.2-0.1,0.3s-0.2,0.1-0.3,0.1h-0.7C165.1,227,165,227,165,226.9z"/>
					<path d="M170.2,226.9c-0.1-0.1-0.1-0.2-0.1-0.3v-6.7h-1.4c-0.1,0-0.2,0-0.3-0.1c-0.1-0.1-0.1-0.1-0.1-0.3V219
						c0-0.1,0-0.2,0.1-0.3c0.1-0.1,0.2-0.1,0.3-0.1h1.4v-0.8c0-0.9,0.2-1.5,0.6-2s1.1-0.7,2.1-0.7h0.9c0.1,0,0.2,0,0.3,0.1
						c0.1,0.1,0.1,0.2,0.1,0.3v0.5c0,0.1,0,0.2-0.1,0.3c-0.1,0.1-0.2,0.1-0.3,0.1h-0.9c-0.5,0-0.8,0.1-1,0.4
						c-0.2,0.3-0.3,0.7-0.3,1.2v0.7h2.1c0.1,0,0.2,0,0.3,0.1c0.1,0.1,0.1,0.2,0.1,0.3v0.5c0,0.1,0,0.2-0.1,0.3
						c-0.1,0.1-0.2,0.1-0.3,0.1h-2.1v6.7c0,0.1,0,0.2-0.1,0.3s-0.2,0.1-0.3,0.1h-0.7C170.3,227,170.3,227,170.2,226.9z"/>
					<path d="M176.7,226.2c-0.6-0.7-0.8-1.5-0.8-2.6V219c0-0.1,0-0.2,0.1-0.3c0.1-0.1,0.2-0.1,0.3-0.1h0.7c0.1,0,0.2,0,0.3,0.1
						s0.1,0.2,0.1,0.3v4.4c0,1.6,0.7,2.4,2.1,2.4c0.7,0,1.2-0.2,1.6-0.6c0.4-0.4,0.6-1,0.6-1.8V219c0-0.1,0-0.2,0.1-0.3
						c0.1-0.1,0.2-0.1,0.3-0.1h0.7c0.1,0,0.2,0,0.3,0.1s0.1,0.2,0.1,0.3v7.6c0,0.1,0,0.2-0.1,0.3s-0.2,0.1-0.3,0.1h-0.7
						c-0.1,0-0.2,0-0.3-0.1s-0.1-0.2-0.1-0.3v-0.7c-0.3,0.4-0.7,0.7-1.1,0.9s-0.9,0.3-1.6,0.3C178,227.2,177.2,226.8,176.7,226.2z"
						/>
					<path d="M186.2,226.9c-0.1-0.1-0.1-0.2-0.1-0.3V216c0-0.1,0-0.2,0.1-0.3c0.1-0.1,0.2-0.1,0.3-0.1h0.7c0.1,0,0.2,0,0.3,0.1
						s0.1,0.2,0.1,0.3v10.6c0,0.1,0,0.2-0.1,0.3s-0.2,0.1-0.3,0.1h-0.7C186.4,227,186.3,227,186.2,226.9z"/>
				</g>
				<g class="st1">
					<path d="M120.9,245.9c-0.1-0.1-0.1-0.2-0.1-0.3v-10.5c0-0.1,0-0.2,0.1-0.3c0.1-0.1,0.1-0.1,0.3-0.1h0.8c0.1,0,0.2,0,0.3,0.1
						c0.1,0.1,0.1,0.2,0.1,0.3v10.5c0,0.1,0,0.2-0.1,0.3c-0.1,0.1-0.2,0.1-0.3,0.1h-0.8C121,246,121,246,120.9,245.9z"/>
					<path d="M125.6,245.9c-0.1-0.1-0.1-0.2-0.1-0.3V238c0-0.1,0-0.2,0.1-0.3c0.1-0.1,0.2-0.1,0.3-0.1h0.7c0.1,0,0.2,0,0.3,0.1
						c0.1,0.1,0.1,0.2,0.1,0.3v0.7c0.3-0.4,0.7-0.7,1.1-0.9c0.4-0.2,0.9-0.3,1.6-0.3c1,0,1.8,0.3,2.4,1s0.8,1.5,0.8,2.6v4.5
						c0,0.1,0,0.2-0.1,0.3s-0.2,0.1-0.3,0.1h-0.7c-0.1,0-0.2,0-0.3-0.1s-0.1-0.2-0.1-0.3v-4.4c0-0.8-0.2-1.4-0.6-1.8
						c-0.4-0.4-0.9-0.6-1.6-0.6c-0.7,0-1.2,0.2-1.6,0.6s-0.6,1-0.6,1.8v4.4c0,0.1,0,0.2-0.1,0.3s-0.2,0.1-0.3,0.1h-0.7
						C125.7,246,125.7,246,125.6,245.9z"/>
					<path d="M136.2,245.1c-0.6-0.7-0.9-1.6-0.9-2.8l0-0.5l0-0.5c0-1.1,0.3-2,0.9-2.7s1.4-1.1,2.5-1.1s2,0.4,2.6,1.2V235
						c0-0.1,0-0.2,0.1-0.3s0.2-0.1,0.3-0.1h0.7c0.1,0,0.2,0,0.3,0.1c0.1,0.1,0.1,0.2,0.1,0.3v10.6c0,0.1,0,0.2-0.1,0.3
						c-0.1,0.1-0.2,0.1-0.3,0.1h-0.7c-0.1,0-0.2,0-0.3-0.1c-0.1-0.1-0.1-0.2-0.1-0.3v-0.7c-0.6,0.8-1.5,1.2-2.6,1.2
						C137.6,246.2,136.8,245.8,136.2,245.1z M140.7,244.2c0.4-0.5,0.6-1.1,0.6-1.8c0-0.1,0-0.3,0-0.6c0-0.3,0-0.5,0-0.6
						c0-0.7-0.2-1.2-0.6-1.7c-0.4-0.5-0.9-0.7-1.7-0.7c-0.8,0-1.3,0.2-1.7,0.7c-0.4,0.5-0.5,1.1-0.6,1.9l0,0.5c0,2,0.8,3.1,2.3,3.1
						C139.8,244.9,140.4,244.7,140.7,244.2z"/>
					<path d="M145.7,236c-0.1-0.1-0.1-0.2-0.1-0.3v-0.8c0-0.1,0-0.2,0.1-0.3c0.1-0.1,0.2-0.1,0.3-0.1h0.9c0.1,0,0.2,0,0.3,0.1
						c0.1,0.1,0.1,0.2,0.1,0.3v0.8c0,0.1,0,0.2-0.1,0.3c-0.1,0.1-0.2,0.1-0.3,0.1H146C145.9,236.1,145.8,236.1,145.7,236z
						 M145.9,245.9c-0.1-0.1-0.1-0.2-0.1-0.3V238c0-0.1,0-0.2,0.1-0.3s0.2-0.1,0.3-0.1h0.7c0.1,0,0.2,0,0.3,0.1
						c0.1,0.1,0.1,0.2,0.1,0.3v7.6c0,0.1,0,0.2-0.1,0.3c-0.1,0.1-0.2,0.1-0.3,0.1h-0.7C146,246,145.9,246,145.9,245.9z"/>
					<path d="M152.5,245.6l-3-7.4c0,0,0-0.1,0-0.2c0-0.1,0-0.2,0.1-0.2c0.1-0.1,0.1-0.1,0.2-0.1h0.7c0.2,0,0.3,0.1,0.4,0.3l2.5,6.4
						l2.5-6.4c0-0.1,0.1-0.1,0.1-0.2c0.1-0.1,0.2-0.1,0.2-0.1h0.7c0.1,0,0.2,0,0.2,0.1c0.1,0.1,0.1,0.1,0.1,0.2l0,0.2l-3,7.4
						c-0.1,0.3-0.3,0.4-0.6,0.4h-0.6C152.8,246,152.6,245.9,152.5,245.6z"/>
					<path d="M159.5,236c-0.1-0.1-0.1-0.2-0.1-0.3v-0.8c0-0.1,0-0.2,0.1-0.3c0.1-0.1,0.2-0.1,0.3-0.1h0.9c0.1,0,0.2,0,0.3,0.1
						c0.1,0.1,0.1,0.2,0.1,0.3v0.8c0,0.1,0,0.2-0.1,0.3c-0.1,0.1-0.2,0.1-0.3,0.1h-0.9C159.7,236.1,159.6,236.1,159.5,236z
						 M159.7,245.9c-0.1-0.1-0.1-0.2-0.1-0.3V238c0-0.1,0-0.2,0.1-0.3c0.1-0.1,0.2-0.1,0.3-0.1h0.7c0.1,0,0.2,0,0.3,0.1
						s0.1,0.2,0.1,0.3v7.6c0,0.1,0,0.2-0.1,0.3s-0.2,0.1-0.3,0.1h-0.7C159.8,246,159.7,246,159.7,245.9z"/>
					<path d="M164.5,245.1c-0.6-0.7-0.9-1.6-0.9-2.8l0-0.5l0-0.5c0-1.1,0.3-2,0.9-2.7s1.4-1.1,2.5-1.1c1.1,0,2,0.4,2.6,1.2V235
						c0-0.1,0-0.2,0.1-0.3s0.2-0.1,0.3-0.1h0.7c0.1,0,0.2,0,0.3,0.1s0.1,0.2,0.1,0.3v10.6c0,0.1,0,0.2-0.1,0.3s-0.2,0.1-0.3,0.1H170
						c-0.1,0-0.2,0-0.3-0.1c-0.1-0.1-0.1-0.2-0.1-0.3v-0.7c-0.6,0.8-1.5,1.2-2.6,1.2C165.9,246.2,165,245.8,164.5,245.1z M169,244.2
						c0.4-0.5,0.6-1.1,0.6-1.8c0-0.1,0-0.3,0-0.6c0-0.3,0-0.5,0-0.6c0-0.7-0.2-1.2-0.6-1.7s-0.9-0.7-1.7-0.7c-0.8,0-1.3,0.2-1.7,0.7
						c-0.4,0.5-0.5,1.1-0.6,1.9l0,0.5c0,2,0.8,3.1,2.3,3.1C168.1,244.9,168.6,244.7,169,244.2z"/>
					<path d="M174.8,245.2c-0.6-0.7-0.8-1.5-0.8-2.6V238c0-0.1,0-0.2,0.1-0.3c0.1-0.1,0.2-0.1,0.3-0.1h0.7c0.1,0,0.2,0,0.3,0.1
						s0.1,0.2,0.1,0.3v4.4c0,1.6,0.7,2.4,2.1,2.4c0.7,0,1.2-0.2,1.6-0.6c0.4-0.4,0.6-1,0.6-1.8V238c0-0.1,0-0.2,0.1-0.3
						s0.2-0.1,0.3-0.1h0.7c0.1,0,0.2,0,0.3,0.1s0.1,0.2,0.1,0.3v7.6c0,0.1,0,0.2-0.1,0.3s-0.2,0.1-0.3,0.1h-0.7
						c-0.1,0-0.2,0-0.3-0.1s-0.1-0.2-0.1-0.3v-0.7c-0.3,0.4-0.7,0.7-1.1,0.9s-0.9,0.3-1.6,0.3C176.1,246.2,175.3,245.8,174.8,245.2z
						"/>
					<path d="M185,245.8c-0.4-0.2-0.8-0.5-1.1-0.9s-0.4-0.8-0.4-1.2c0-0.7,0.3-1.3,0.9-1.7c0.6-0.4,1.4-0.7,2.4-0.9l2.4-0.3v-0.5
						c0-1.1-0.6-1.6-1.9-1.6c-0.5,0-0.9,0.1-1.2,0.3c-0.3,0.2-0.5,0.4-0.7,0.7c0,0.1-0.1,0.2-0.1,0.2c0,0-0.1,0.1-0.2,0.1h-0.6
						c-0.1,0-0.2,0-0.2-0.1s-0.1-0.2-0.1-0.2c0-0.2,0.1-0.5,0.3-0.9c0.2-0.3,0.6-0.6,1.1-0.8c0.5-0.2,1.1-0.4,1.8-0.4
						c1.2,0,2.1,0.3,2.6,0.8c0.5,0.6,0.8,1.2,0.8,2.1v5.2c0,0.1,0,0.2-0.1,0.3s-0.2,0.1-0.3,0.1h-0.7c-0.1,0-0.2,0-0.3-0.1
						c-0.1-0.1-0.1-0.2-0.1-0.3v-0.7c-0.2,0.4-0.6,0.6-1,0.9c-0.4,0.2-1,0.4-1.7,0.4C186,246.2,185.5,246.1,185,245.8z M188.5,244.3
						c0.4-0.5,0.7-1.1,0.7-2v-0.4l-1.9,0.3c-0.8,0.1-1.3,0.3-1.7,0.5s-0.6,0.6-0.6,1c0,0.4,0.2,0.8,0.5,1c0.4,0.2,0.8,0.4,1.3,0.4
						C187.5,245,188.1,244.8,188.5,244.3z"/>
					<path d="M193.7,245.9c-0.1-0.1-0.1-0.2-0.1-0.3V235c0-0.1,0-0.2,0.1-0.3c0.1-0.1,0.2-0.1,0.3-0.1h0.7c0.1,0,0.2,0,0.3,0.1
						s0.1,0.2,0.1,0.3v10.6c0,0.1,0,0.2-0.1,0.3s-0.2,0.1-0.3,0.1h-0.7C193.8,246,193.7,246,193.7,245.9z"/>
					<path d="M198.9,245.8c-0.5-0.2-0.9-0.5-1.1-0.8c-0.2-0.3-0.4-0.6-0.4-0.8c0-0.1,0-0.2,0.1-0.2c0.1-0.1,0.2-0.1,0.2-0.1h0.7
						c0.1,0,0.1,0,0.2,0s0.1,0.1,0.2,0.1c0.2,0.3,0.5,0.5,0.8,0.7c0.3,0.2,0.7,0.3,1.2,0.3c0.6,0,1-0.1,1.4-0.3
						c0.3-0.2,0.5-0.5,0.5-0.9c0-0.3-0.1-0.5-0.2-0.6s-0.4-0.3-0.7-0.4c-0.3-0.1-0.9-0.3-1.5-0.4c-0.9-0.2-1.6-0.5-2-0.9
						c-0.4-0.4-0.6-0.9-0.6-1.5c0-0.4,0.1-0.8,0.4-1.1c0.2-0.4,0.6-0.7,1-0.9s1-0.3,1.7-0.3c0.7,0,1.2,0.1,1.7,0.3
						c0.5,0.2,0.8,0.5,1.1,0.8c0.2,0.3,0.4,0.5,0.4,0.8c0,0.1,0,0.2-0.1,0.2c-0.1,0.1-0.2,0.1-0.2,0.1h-0.6c-0.1,0-0.3-0.1-0.3-0.2
						c-0.2-0.2-0.3-0.4-0.5-0.5c-0.1-0.1-0.3-0.2-0.5-0.3c-0.2-0.1-0.5-0.1-0.9-0.1c-0.5,0-0.9,0.1-1.2,0.3s-0.4,0.5-0.4,0.9
						c0,0.2,0.1,0.4,0.2,0.6c0.1,0.2,0.3,0.3,0.7,0.4c0.3,0.1,0.8,0.3,1.5,0.4c1,0.2,1.7,0.5,2.2,0.9c0.4,0.4,0.6,0.9,0.6,1.5
						c0,0.5-0.1,0.9-0.4,1.2c-0.3,0.4-0.7,0.7-1.2,0.9c-0.5,0.2-1.1,0.3-1.8,0.3C200.1,246.2,199.5,246,198.9,245.8z"/>
				</g>
			</g>
			<g class="st1">
				<path d="M255.9,261.6V276h-2.5v-5.9h-5.2v5.9h-2.5v-14.4h2.5v6h5.2v-6H255.9z"/>
				<path d="M261.2,275.5c-0.3-0.3-0.9-0.8-1.1-1.1c-0.6-0.6-0.8-1.1-0.8-2v-7.3c0-0.7,0.1-1.2,0.6-1.7c0.3-0.3,0.8-0.9,1.1-1.1
					c0.6-0.6,1.1-0.8,2-0.8h3.6c0.7,0,1.2,0.1,1.7,0.6c0.3,0.3,0.9,0.8,1.1,1.1c0.6,0.6,0.8,1.1,0.8,2v7.3c0,0.7-0.1,1.2-0.6,1.7
					c-0.3,0.3-0.8,0.9-1.1,1.1c-0.6,0.6-1.1,0.8-2,0.8h-3.6C262.2,276.1,261.7,276,261.2,275.5z M262.3,273.2
					c0.3,0.3,0.6,0.5,0.6,0.5h3.6c0.1,0,0.3-0.2,0.6-0.5c0.3-0.3,0.5-0.6,0.5-0.6v-7.5c0-0.1-0.2-0.3-0.5-0.6
					c-0.3-0.3-0.6-0.5-0.6-0.5H263c-0.1,0-0.3,0.2-0.6,0.5c-0.3,0.3-0.5,0.6-0.5,0.6v7.5C261.8,272.7,262,272.9,262.3,273.2z"/>
				<path d="M289.1,261.6l-3.3,14.4h-2.9l-2.3-10l-2.3,10h-2.9l-3.3-14.4h2.6l2.2,10.2l2.4-10.2h2.7l2.4,10.1l2.2-10.1H289.1z"/>
				<path d="M312.8,261.6l-3.3,14.4h-2.9l-2.3-10l-2.3,10h-2.9l-3.3-14.4h2.6l2.2,10.2l2.4-10.2h2.7l2.4,10.1l2.2-10.1H312.8z"/>
				<path d="M317.4,264v3.6h6v2.4h-6v3.5h6.5v2.4h-9v-14.4h9v2.4H317.4z"/>
			</g>
			<g class="st1">
				<path d="M268.1,290.8c0,0.9-0.6,1.5-1.1,2.1c0.6,0.6,1.1,1.1,1.1,2.1v1.9c0,0.5-0.1,1.1-0.5,1.5c-0.2,0.3-0.9,0.9-1.2,1.2
					c-0.5,0.3-1,0.5-1.5,0.5h-7v-14.4h7c0.5,0,1.1,0.1,1.5,0.5c0.3,0.2,0.9,0.9,1.2,1.2c0.3,0.5,0.5,1,0.5,1.5V290.8z M265.6,289
					c0-0.2-0.1-0.3-0.4-0.6c-0.3-0.3-0.4-0.4-0.6-0.4h-4.2v3.6h4.2c0.2,0,0.3-0.1,0.6-0.4c0.3-0.3,0.4-0.4,0.4-0.6V289z M265.6,295
					c0-0.2-0.1-0.3-0.4-0.6c-0.3-0.3-0.4-0.4-0.6-0.4h-4.2v3.6h4.2c0.2,0,0.3-0.1,0.6-0.4c0.3-0.3,0.4-0.4,0.4-0.6V295z"/>
				<path d="M273.3,299.5c-0.3-0.3-0.9-0.8-1.1-1.1c-0.6-0.6-0.8-1.1-0.8-2v-10.8h2.5v10.9c0,0.1,0.2,0.3,0.5,0.6
					c0.3,0.3,0.6,0.5,0.6,0.5h2.9c0.1,0,0.3-0.2,0.6-0.5c0.3-0.3,0.5-0.6,0.5-0.6v-10.9h2.5v10.8c0,0.7-0.1,1.2-0.6,1.7
					c-0.3,0.3-0.8,0.9-1.1,1.1c-0.6,0.6-1.1,0.8-2,0.8h-3C274.3,300.1,273.8,300,273.3,299.5z"/>
				<path d="M285.2,285.6h2.5V300h-2.5V285.6z"/>
				<path d="M300.2,297.6v2.4h-8.9v-14.4h2.5v12H300.2z"/>
				<path d="M313.6,289.3v7.1c0,0.7-0.1,1.2-0.6,1.7c-0.3,0.3-0.8,0.9-1.1,1.1c-0.6,0.6-1.1,0.8-2,0.8h-7v-14.4h7
					c0.7,0,1.2,0.1,1.7,0.6c0.3,0.3,0.9,0.8,1.1,1.1C313.4,287.9,313.6,288.4,313.6,289.3z M311.1,289.2c0-0.1-0.2-0.3-0.5-0.6
					c-0.3-0.3-0.6-0.5-0.6-0.5h-4.5v9.6h4.5c0.1,0,0.3-0.2,0.6-0.5c0.3-0.3,0.5-0.6,0.5-0.6V289.2z"/>
			</g>
			<g class="st1">
				<path d="M232.2,322.5c-0.3-0.3-0.7-1-0.8-1.3l2.5-0.6c0.5,0.7,1,1.2,1.2,1.2h3.9c0.1,0,0.3-0.2,0.6-0.5c0.3-0.3,0.5-0.6,0.5-0.6
					v-1.4c0-0.2-0.2-0.4-0.3-0.4l-6.2-1.8c-1.2-0.3-1.9-1.5-1.9-2.6v-1.2c0-0.7,0.1-1.2,0.6-1.7c0.3-0.3,0.8-0.9,1.1-1.1
					c0.6-0.6,1.1-0.8,2-0.8h3.5c1.2,0,2,0.7,2.7,1.6c0.3,0.3,0.7,1,0.8,1.3l-2.5,0.6c-0.5-0.7-1-1.2-1.2-1.2h-3.4
					c-0.1,0-0.3,0.2-0.6,0.5c-0.3,0.3-0.5,0.6-0.5,0.6v1.1c0,0.2,0.1,0.4,0.3,0.4l6.3,1.8c1.2,0.4,1.9,1.5,1.9,2.6v1.4
					c0,0.7-0.1,1.2-0.6,1.7c-0.3,0.3-0.8,0.9-1.1,1.1c-0.6,0.6-1.1,0.8-2,0.8h-4.1C233.8,324.1,233,323.4,232.2,322.5z"/>
				<path d="M247.7,323.5c-0.3-0.3-0.9-0.8-1.1-1.1c-0.6-0.6-0.8-1.1-0.8-2v-7.3c0-0.7,0.1-1.2,0.6-1.7c0.3-0.3,0.8-0.9,1.1-1.1
					c0.6-0.6,1.1-0.8,2-0.8h3.6c0.7,0,1.2,0.1,1.7,0.6c0.3,0.3,0.9,0.8,1.1,1.1c0.6,0.6,0.8,1.1,0.8,2v7.3c0,0.7-0.1,1.2-0.6,1.7
					c-0.3,0.3-0.8,0.9-1.1,1.1c-0.6,0.6-1.1,0.8-2,0.8h-3.6C248.7,324.1,248.2,324,247.7,323.5z M248.8,321.2
					c0.3,0.3,0.6,0.5,0.6,0.5h3.6c0.1,0,0.3-0.2,0.6-0.5c0.3-0.3,0.5-0.6,0.5-0.6v-7.5c0-0.1-0.2-0.3-0.5-0.6
					c-0.3-0.3-0.6-0.5-0.6-0.5h-3.6c-0.1,0-0.3,0.2-0.6,0.5c-0.3,0.3-0.5,0.6-0.5,0.6v7.5C248.3,320.7,248.5,320.9,248.8,321.2z"/>
				<path d="M262.6,312v3.6h6v2.4h-6v5.9h-2.5v-14.4h9v2.4H262.6z"/>
				<path d="M281.6,312h-3.9v12h-2.5v-12h-3.9v-2.4h10.3V312z"/>
				<path d="M300,309.6l-3.3,14.4h-2.9l-2.3-10l-2.3,10h-2.9l-3.3-14.4h2.6l2.2,10.2l2.4-10.2h2.7l2.4,10.1l2.2-10.1H300z"/>
				<path d="M309,321h-5.5l-1,3h-2.7l5-14.4h2.9l5,14.4H310L309,321z M308.2,318.6l-1.9-5.8l-1.9,5.8H308.2z"/>
				<path d="M319.9,318.3h-2.7v5.7h-2.5v-14.4h7c0.5,0,1.1,0.1,1.5,0.5c0.3,0.2,0.9,0.9,1.2,1.2c0.3,0.5,0.5,1,0.5,1.5v2.4
					c0,0.5-0.1,1.1-0.5,1.5c-0.2,0.3-0.9,0.9-1.2,1.2c-0.2,0.1-0.4,0.3-0.6,0.3l2.8,5.8h-2.8L319.9,318.3z M317.2,315.9h4.2
					c0.2,0,0.3-0.1,0.6-0.4c0.3-0.3,0.4-0.4,0.4-0.6v-2c0-0.2-0.1-0.3-0.4-0.6c-0.3-0.3-0.4-0.4-0.6-0.4h-4.2V315.9z"/>
				<path d="M330.8,312v3.6h6v2.4h-6v3.5h6.5v2.4h-9v-14.4h9v2.4H330.8z"/>
			</g>
		</g>
	</g>
</g>
</svg>
